<?xml version="1.0" encoding="UTF-8"?>
<svg enable-background="new 0 0 1999.2 333.2" version="1.1" viewBox="0 0 1999.2 333.2" xml:space="preserve" xmlns="http://www.w3.org/2000/svg">
<style type="text/css">
	.st0{fill:#0018A9;}
	.st1{fill:#08006C;}
	.st2{fill:#006CDD;}
	.st3{fill:#39B580;}
</style>
<rect class="st0" width="1999.2" height="333.2"/>
		<rect class="st0" transform="matrix(-1.837e-16 1 -1 -1.837e-16 333.2 8.9408e-5)" width="333.2" height="333.2"/>
	<polygon class="st1" points="0 333.2 333.2 0 333.2 333.2"/>
			<path class="st2" d="m241.17 241.17h-3.17v-51.3l0.01-1.07c0.01-0.5 0.02-1 0.06-1.49 0.06-0.99 0.21-1.98 0.4-2.96 0.4-1.95 1.03-3.86 1.9-5.65 0.87-1.78 1.95-3.48 3.24-5 0.6-0.73 1.46-1.58 1.82-1.94l4.22-4.22c0.87-0.88 2.11-2.09 2.33-2.38 0.86-1.01 1.46-2.25 1.73-3.54 0.06-0.33 0.11-0.66 0.13-0.98 0.02-0.17 0.02-0.33 0.02-0.5l0.01-0.14v-32.6l0.01-2.07c0.01-1 0.08-1.99 0.21-2.98 0.53-3.94 2.09-7.74 4.46-10.94 0.6-0.79 1.24-1.57 1.93-2.28 0.4-0.41 0.58-0.59 0.82-0.83l0.71-0.7 21.12-21.12 0.45-0.44 0.54-0.52c0.37-0.33 0.75-0.66 1.13-0.97 1.56-1.24 3.27-2.29 5.09-3.1 1.81-0.82 3.73-1.41 5.69-1.75 0.98-0.17 1.98-0.27 2.97-0.33l0.75-0.02 0.63-0.01h32.84v3.17h-32.84l-0.57 0.01-0.65 0.02c-0.86 0.05-1.72 0.13-2.57 0.29-1.7 0.29-3.36 0.81-4.93 1.52-1.58 0.71-3.05 1.62-4.4 2.7-0.34 0.26-0.66 0.56-0.98 0.83l-0.47 0.44-0.42 0.4-1.4 1.4-11.26 11.27-8.45 8.45-0.71 0.7c-0.24 0.24-0.44 0.44-0.77 0.79-0.6 0.62-1.15 1.29-1.67 1.98-2.05 2.78-3.4 6.06-3.86 9.49-0.11 0.85-0.17 1.71-0.18 2.58l-0.01 2.04v32.35l-0.01 0.43c0 0.24-0.01 0.47-0.03 0.7-0.02 0.46-0.1 0.92-0.19 1.38-0.37 1.82-1.21 3.55-2.41 4.96-0.48 0.58-1.61 1.66-2.51 2.57l-2.82 2.81c-0.95 0.98-1.8 1.72-3.05 3.16-1.12 1.32-2.05 2.78-2.81 4.33-0.75 1.55-1.29 3.21-1.64 4.89-0.16 0.85-0.29 1.7-0.34 2.56-0.04 0.43-0.05 0.86-0.06 1.29l-0.01 1.04v51.28z"/>
			<rect class="st2" x="238" y="250.69" width="3.17" height="82.51"/>
			<path class="st2" d="m253.86 241.17h-3.17v-52.25c0.01-0.23 0.01-0.46 0.03-0.7 0.02-0.46 0.1-0.92 0.19-1.38 0.19-0.9 0.48-1.79 0.88-2.63 0.41-0.83 0.9-1.63 1.52-2.32 0.48-0.59 1.59-1.64 2.5-2.56l2.81-2.82c0.96-0.99 1.78-1.71 3.04-3.14 2.25-2.63 3.79-5.83 4.48-9.21 0.17-0.85 0.3-1.7 0.36-2.56 0.04-0.43 0.05-0.86 0.06-1.29l0.01-1.06v-33.79c0.01-0.47 0.04-0.94 0.1-1.39 0.25-1.85 0.98-3.62 2.08-5.11 0.29-0.36 0.58-0.74 0.9-1.06 0.13-0.14 0.4-0.4 0.63-0.63l0.71-0.71 2.81-2.82 5.63-5.63 11.27-11.26 1.57-1.57 0.13-0.12 0.25-0.24c0.18-0.15 0.35-0.31 0.53-0.45 0.73-0.58 1.52-1.08 2.37-1.45 0.85-0.38 1.75-0.66 2.66-0.82 0.46-0.09 0.92-0.12 1.39-0.15l0.34-0.01 0.17-0.01h33.1v3.17h-33.1l-0.12 0.01h-0.25c-0.33 0.02-0.66 0.05-0.98 0.11-0.66 0.11-1.29 0.31-1.9 0.59-0.61 0.26-1.17 0.63-1.7 1.03-0.13 0.1-0.25 0.22-0.38 0.33l-0.44 0.42-21.12 21.12-0.7 0.71c-0.23 0.22-0.52 0.51-0.58 0.58-0.24 0.24-0.44 0.5-0.64 0.76-0.79 1.07-1.31 2.33-1.48 3.65-0.05 0.33-0.07 0.66-0.08 0.99v33.76l-0.01 1.1c-0.01 0.49-0.02 0.99-0.06 1.49-0.07 0.99-0.22 1.98-0.41 2.95-0.8 3.9-2.59 7.6-5.17 10.63-0.61 0.75-1.44 1.55-1.8 1.92l-4.23 4.23c-0.89 0.9-2.09 2.06-2.31 2.36-0.44 0.5-0.79 1.07-1.08 1.67-0.29 0.59-0.5 1.24-0.63 1.88-0.06 0.33-0.12 0.66-0.13 0.99-0.02 0.16-0.02 0.33-0.02 0.49v52.2z"/>
			<rect class="st2" x="250.69" y="250.69" width="3.17" height="82.51"/>
			<path class="st2" d="m82.51 333.2h-3.17v-80.74l0.02-0.75c0.03-0.98 0.13-1.98 0.29-2.95 0.32-1.96 0.86-3.88 1.65-5.7s1.79-3.54 3.01-5.1c0.59-0.79 1.26-1.52 1.95-2.24l70.06-70.06c0.27-0.29 0.47-0.49 0.67-0.77 0.41-0.52 0.75-1.09 1.02-1.69s0.45-1.25 0.56-1.9c0.12-0.71 0.11-1.04 0.11-2.65v-33.22l0.02-0.75c0.04-0.98 0.13-1.98 0.29-2.95 0.33-1.95 0.87-3.87 1.67-5.69 0.79-1.82 1.8-3.54 3.02-5.09 0.6-0.79 1.27-1.52 1.96-2.23l1.4-1.4 11.2-11.21 11.21-11.2 11.2-11.21 11.21-11.2 11.2-11.21 11.21-11.2 1.4-1.4c0.22-0.25 0.45-0.48 0.65-0.75 0.41-0.52 0.75-1.09 1.01-1.7 0.27-0.6 0.45-1.25 0.56-1.9 0.05-0.33 0.09-0.65 0.1-0.98l0.01-0.25v-33.11h3.17v33.15l-0.01 0.35c-0.02 0.46-0.06 0.92-0.14 1.38-0.15 0.9-0.4 1.8-0.78 2.65-0.37 0.85-0.84 1.65-1.41 2.38-0.28 0.36-0.6 0.71-0.92 1.04l-1.4 1.4-11.21 11.2-11.2 11.21-11.21 11.2-11.2 11.21-11.21 11.2-11.2 11.21-1.4 1.4c-0.6 0.62-1.17 1.25-1.7 1.94-1.06 1.35-1.94 2.84-2.62 4.42-0.7 1.57-1.17 3.24-1.45 4.93-0.13 0.85-0.22 1.71-0.25 2.56l-0.02 0.64v33.2c0 1.49 0.02 2.22-0.15 3.17-0.16 0.91-0.41 1.8-0.79 2.65-0.36 0.85-0.85 1.65-1.42 2.37-0.29 0.37-0.59 0.69-0.93 1.05l-1.4 1.4-11.21 11.2-8.83 8.84-2.25 2.24-0.13 0.13-6.61 6.6-2.24 2.25-2.36 2.36-11.2 11.21-11.21 11.2-11.2 11.21-1.41 1.41c-0.6 0.62-1.18 1.25-1.7 1.94-1.06 1.36-1.93 2.86-2.61 4.43s-1.15 3.24-1.43 4.93c-0.13 0.85-0.22 1.71-0.25 2.56l-0.02 0.64v80.74z"/>
			<path class="st2" d="m95.2 333.2h-3.17v-80.71l0.01-0.35c0.02-0.46 0.06-0.92 0.13-1.38 0.15-0.9 0.4-1.81 0.77-2.65 0.37-0.85 0.83-1.66 1.4-2.39 0.28-0.36 0.6-0.71 0.91-1.04l1.39-1.4 11.21-11.2 11.2-11.21 11.21-11.2 2.36-2.36 2.25-2.24 6.6-6.61 0.13-0.13 2.24-2.25 8.84-8.83 11.2-11.21 1.4-1.4c0.57-0.59 1.17-1.24 1.69-1.92 1.06-1.35 1.95-2.83 2.64-4.4s1.18-3.23 1.46-4.93c0.32-1.66 0.29-3.59 0.29-4.73v-33.15l0.01-0.35c0.02-0.46 0.06-0.92 0.14-1.38 0.15-0.91 0.4-1.81 0.78-2.65 0.36-0.85 0.84-1.65 1.41-2.38 0.28-0.37 0.6-0.71 0.91-1.04l1.4-1.4 11.21-11.2 11.2-11.21 11.21-11.2 11.2-11.21 11.21-11.2 11.2-11.21 1.4-1.4c0.59-0.62 1.17-1.25 1.7-1.94 1.06-1.35 1.94-2.84 2.63-4.41s1.17-3.24 1.45-4.93c0.13-0.85 0.22-1.71 0.25-2.56l0.02-0.64v-33.2h3.17v33.22l-0.02 0.74c-0.04 0.99-0.13 1.98-0.3 2.96-0.32 1.95-0.87 3.87-1.67 5.69-0.79 1.81-1.8 3.53-3.02 5.09-0.6 0.79-1.28 1.52-1.96 2.22l-1.4 1.4-11.2 11.21-11.21 11.2-11.2 11.21-11.21 11.2-11.2 11.21-11.21 11.2-1.4 1.4c-0.23 0.25-0.46 0.48-0.65 0.75-0.41 0.52-0.75 1.09-1.01 1.7-0.28 0.6-0.45 1.25-0.56 1.9-0.05 0.33-0.09 0.66-0.1 0.98l-0.01 0.25v33.14c-0.01 0.71 0.02 1.16-0.02 2.3-0.04 0.98-0.13 1.98-0.3 2.95-0.33 1.95-0.89 3.87-1.69 5.68-0.79 1.82-1.82 3.53-3.05 5.09-0.59 0.78-1.29 1.54-1.95 2.21l-68.63 68.63-1.38 1.39c-0.23 0.24-0.46 0.48-0.65 0.75-0.41 0.52-0.74 1.09-1.01 1.7-0.27 0.6-0.44 1.25-0.55 1.9-0.05 0.33-0.09 0.66-0.1 0.98l-0.01 0.25v80.7z"/>
			<path class="st2" d="m137.11 189.36-2.25 2.24-1.82-1.82-0.42-0.41-5.25-5.26-0.36-0.36-0.24-0.25c-0.17-0.16-0.31-0.35-0.47-0.52-0.29-0.36-0.58-0.74-0.83-1.13-0.5-0.79-0.9-1.65-1.18-2.54-0.3-0.89-0.45-1.82-0.52-2.75-0.02-0.25-0.02-0.44-0.02-0.73v-113.37c0-0.29-0.01-0.77-0.02-1.2-0.02-0.44-0.05-0.87-0.09-1.3-0.36-3.46-1.61-6.82-3.62-9.67-0.48-0.72-1.05-1.39-1.62-2.04l-0.45-0.48-0.4-0.41-21.99-21.99-0.33-0.34-0.24-0.25c-0.17-0.17-0.31-0.35-0.47-0.52-0.58-0.73-1.09-1.52-1.48-2.38-0.39-0.85-0.68-1.75-0.84-2.67-0.1-0.46-0.13-0.93-0.17-1.39l-0.02-0.75v-17.07h3.17v17.06l0.01 0.59c0.03 0.33 0.06 0.67 0.12 0.99 0.11 0.66 0.33 1.3 0.6 1.91 0.28 0.61 0.64 1.17 1.06 1.7 0.12 0.12 0.21 0.25 0.33 0.37l0.17 0.18 0.32 0.33 1.42 1.42 11.35 11.34 5.67 5.68 3.55 3.55 0.44 0.45 0.52 0.55c0.67 0.75 1.31 1.52 1.87 2.36 2.31 3.28 3.75 7.16 4.16 11.15 0.05 0.5 0.1 1 0.11 1.5 0.02 0.49 0.02 1.07 0.02 1.33v113.35c0.01 0.25 0.01 0.36 0.02 0.55 0.05 0.67 0.15 1.32 0.36 1.96s0.49 1.25 0.85 1.82c0.17 0.29 0.38 0.55 0.59 0.81 0.12 0.13 0.21 0.26 0.33 0.37l0.17 0.19 7.89 7.85z"/>
			<path class="st2" d="m333.2 241.17h-128.4l-15.96-0.01c-1.87-0.02-3.74-0.55-5.35-1.49-0.82-0.46-1.55-1.04-2.23-1.69l-2.82-2.81-11.34-11.35-11.35-11.34-11.34-11.35-0.56-0.55-2.24-2.25 2.24-2.25 14.15 14.15 11.35 11.34 11.34 11.35 2.79 2.79c0.48 0.46 1.01 0.88 1.59 1.21 1.16 0.67 2.48 1.05 3.82 1.06l15.91 0.02h128.4v3.17z"/>
			<path class="st2" d="m128.13 198.33-2.24 2.25-7.51-7.51-0.36-0.35-0.52-0.55c-0.35-0.36-0.67-0.75-1-1.13-0.63-0.78-1.23-1.59-1.76-2.44-1.08-1.69-1.93-3.53-2.55-5.43-0.62-1.91-0.98-3.9-1.1-5.9-0.02-0.48-0.03-1.05-0.04-1.47v-113.34l-0.01-0.68c-0.01-0.17-0.02-0.33-0.04-0.5-0.14-1.32-0.61-2.63-1.39-3.71-0.18-0.28-0.4-0.53-0.62-0.79l-0.43-0.44-3.54-3.54-5.68-5.67-11.33-11.37-1.81-1.81-0.52-0.55c-0.35-0.36-0.67-0.75-0.99-1.13-1.26-1.56-2.34-3.28-3.17-5.1-0.84-1.82-1.46-3.74-1.81-5.72-0.18-0.99-0.29-1.99-0.35-2.99l-0.02-0.75-0.01-0.66v-17.05h3.17v17.06l0.01 0.59 0.02 0.65c0.06 0.87 0.13 1.74 0.3 2.59 0.3 1.71 0.84 3.38 1.56 4.96s1.66 3.06 2.75 4.42c0.28 0.33 0.56 0.67 0.86 0.98l0.45 0.48 1.79 1.79 11.34 11.35 9.39 9.39 0.12 0.13 0.25 0.25c0.31 0.36 0.61 0.71 0.87 1.1 1.08 1.52 1.75 3.34 1.94 5.2 0.02 0.23 0.04 0.46 0.05 0.7s0.02 0.43 0.02 0.81v113.35c0.01 0.39 0.01 0.86 0.04 1.29 0.1 1.73 0.41 3.46 0.95 5.11 0.53 1.66 1.27 3.24 2.21 4.71 0.46 0.74 0.98 1.44 1.53 2.11 0.29 0.33 0.56 0.67 0.86 0.98l0.44 0.48 0.36 0.36 5.25 5.26 0.42 0.41 1.85 1.82z"/>
			<path class="st2" d="m333.2 253.87h-128.4l-16.2-0.01c-4.01-0.06-8-1.18-11.47-3.19-1.75-1-3.34-2.24-4.78-3.64l-2.89-2.88-11.35-11.34-11.34-11.35-14.15-14.15 2.25-2.24 2.24 2.25 0.56 0.55 11.35 11.34 11.34 11.35 11.35 11.34 2.86 2.86c1.25 1.21 2.63 2.29 4.14 3.15 3.01 1.75 6.47 2.71 9.94 2.77l16.14 0.01h128.4v3.18z"/>
		<path class="st2" d="m33.22 253.86c0.97-0.01 1.95-0.06 2.92-0.2 1.94-0.24 3.84-0.74 5.66-1.45s3.54-1.65 5.13-2.78c0.8-0.56 1.55-1.18 2.27-1.84 0.82-0.76 1.15-1.12 1.63-1.6l37.26-37.26 0.44-0.45 0.5-0.53c0.32-0.37 0.65-0.73 0.95-1.12 2.44-3.05 4.12-6.7 4.82-10.54 0.18-0.96 0.29-1.93 0.36-2.9 0.03-0.48 0.04-0.99 0.05-1.45v-34.15l-0.01-0.59-0.02-0.73c-0.02-0.49-0.06-0.97-0.11-1.46-0.41-3.88-1.79-7.66-3.99-10.88-0.55-0.8-1.14-1.58-1.79-2.31-0.31-0.37-0.66-0.72-1-1.07l-31.07-31.07-11.04-11.05-12.08-12.08-0.5-0.48c-0.7-0.68-1.46-1.29-2.24-1.88-1.57-1.15-3.28-2.12-5.09-2.87-1.81-0.74-3.7-1.26-5.63-1.54-0.97-0.13-1.94-0.23-2.92-0.24-0.56-0.01-0.8-0.01-1.14-0.01h-16.58v3.17h16.59c0.33 0 0.61 0 1.08 0.01 0.85 0.01 1.69 0.09 2.53 0.21 1.67 0.24 3.32 0.7 4.88 1.34 1.56 0.65 3.05 1.48 4.41 2.48 0.67 0.51 1.33 1.04 1.94 1.63l0.44 0.42 54.17 54.17c0.29 0.31 0.59 0.6 0.86 0.93 0.56 0.63 1.07 1.31 1.55 2 1.91 2.8 3.1 6.07 3.46 9.43 0.04 0.42 0.07 0.84 0.09 1.26 0.01 0.4 0.03 0.9 0.02 1.18v34.15c-0.01 0.41-0.01 0.84-0.04 1.26-0.05 0.84-0.15 1.69-0.31 2.52-0.61 3.33-2.06 6.49-4.18 9.13-0.26 0.33-0.54 0.65-0.82 0.97l-0.44 0.46-0.4 0.41-37.26 37.26c-0.79 0.8-2.14 2.17-3.51 3.1-1.38 0.98-2.87 1.8-4.45 2.41-1.57 0.62-3.22 1.05-4.9 1.26-0.84 0.12-1.68 0.16-2.53 0.17h-1.98-31.2v3.17h31.22l2 0.03z"/>
		<path class="st2" d="m34.51 241.08c0.9-0.11 1.79-0.34 2.64-0.68 0.85-0.33 1.65-0.77 2.39-1.3 0.79-0.55 1.27-1.04 2.31-2.09l37.26-37.26 0.52-0.54c0.14-0.18 0.3-0.34 0.44-0.52 1.14-1.42 1.92-3.13 2.25-4.92 0.09-0.45 0.14-0.9 0.17-1.35 0.02-0.23 0.01-0.45 0.02-0.69v-34.15c0-0.37-0.01-0.52-0.01-0.77l-0.05-0.68c-0.19-1.81-0.84-3.57-1.86-5.08-0.26-0.37-0.53-0.74-0.84-1.08-0.14-0.18-0.31-0.33-0.46-0.5l-31.04-31.04-22.08-22.06-0.69-0.69-0.34-0.35-0.26-0.25c-0.33-0.32-0.68-0.6-1.04-0.88-0.74-0.54-1.53-0.99-2.37-1.34-0.84-0.34-1.73-0.59-2.63-0.72-0.45-0.06-0.9-0.11-1.36-0.11-0.18-0.01-0.56-0.01-0.88-0.01h-16.6v3.17h16.59c0.31 0 0.72 0 0.81 0.01 0.33 0 0.65 0.04 0.97 0.08 0.64 0.09 1.27 0.27 1.88 0.51 0.6 0.25 1.17 0.57 1.7 0.96 0.25 0.2 0.51 0.4 0.74 0.63l0.2 0.19 12.07 12.07 11.04 11.05 31.03 31.03c0.11 0.12 0.23 0.23 0.33 0.36 0.22 0.24 0.41 0.5 0.6 0.77 0.73 1.08 1.19 2.33 1.33 3.63l0.04 0.49 0.01 0.24v0.14 34.39c-0.01 0.19 0 0.33-0.02 0.5-0.02 0.32-0.06 0.65-0.12 0.97-0.23 1.28-0.79 2.5-1.61 3.51-0.1 0.13-0.21 0.25-0.31 0.37l-0.41 0.42-37.26 37.26c-1.12 1.13-1.31 1.32-1.91 1.75-0.53 0.38-1.1 0.7-1.71 0.93-0.61 0.24-1.24 0.41-1.88 0.48-0.32 0.05-0.65 0.06-0.97 0.07h-1.91-31.23v3.17h31.22 1.93c0.46-0.01 0.91-0.03 1.36-0.09z"/>
			<path class="st3" d="m229.4 270.1v-7.93l-3.97 3.97v7.93c0.01 0 2.42-2.42 3.97-3.97z"/>
			<path class="st3" d="m229.4 282.53v-7.93l-3.97 3.97v7.93c0.01 0 2.42-2.42 3.97-3.97z"/>
			<path class="st3" d="m229.4 294.96v-7.93l-3.97 3.97v7.93c0.01 0 2.42-2.42 3.97-3.97z"/>
			<path class="st3" d="m229.4 307.39v-7.93l-3.97 3.97v7.93c0.01 0 2.42-2.42 3.97-3.97z"/>
			<path class="st3" d="m229.4 319.82v-7.93l-3.97 3.97v7.93c0.01 0 2.42-2.42 3.97-3.97z"/>
			<path class="st3" d="m102.34 78.64v-7.93l-3.97 3.97v7.93l3.97-3.97z"/>
			<path class="st3" d="m102.34 91.07v-7.93l-3.97 3.97v7.93l3.97-3.97z"/>
			<path class="st3" d="m102.34 103.5v-7.93l-3.97 3.97v7.93l3.97-3.97z"/>
			<path class="st3" d="m102.34 115.93v-7.93l-3.97 3.97v7.93l3.97-3.97z"/>
			<path class="st3" d="m102.34 128.36v-7.93l-3.97 3.97v7.93c0-0.01 2.42-2.42 3.97-3.97z"/>
			<path class="st3" d="m321.21 73.45h7.93l-3.97-3.97h-7.93c0.01 0 2.43 2.42 3.97 3.97z"/>
			<path class="st3" d="m308.79 73.45h7.93l-3.97-3.97h-7.93l3.97 3.97z"/>
			<path class="st3" d="m296.36 73.45h7.93l-3.97-3.97h-7.93l3.97 3.97z"/>
			<path class="st3" d="m32.87 264.15h7.93l-3.97-3.97h-7.93c0.01 0.01 2.42 2.43 3.97 3.97z"/>
			<path class="st3" d="m20.45 264.15h7.93l-3.97-3.97h-7.93c0 0.01 2.42 2.43 3.97 3.97z"/>
			<path class="st3" d="m8.02 264.15h7.93l-3.97-3.97h-7.93c0 0.01 2.42 2.43 3.97 3.97z"/>
		<rect class="st0" transform="matrix(-1 -1.2246e-16 1.2246e-16 -1 999.59 333.2)" x="333.2" width="333.2" height="333.2"/>
	<polygon class="st1" points="333.2 0 666.4 333.2 333.2 333.2"/>
			<path class="st2" d="m425.22 241.17v-3.17h51.3l1.07 0.01c0.5 0.01 1 0.02 1.49 0.06 0.99 0.06 1.98 0.21 2.96 0.4 1.95 0.4 3.86 1.03 5.65 1.9 1.78 0.87 3.48 1.95 5 3.24 0.73 0.6 1.58 1.46 1.94 1.82l4.22 4.22c0.88 0.87 2.09 2.11 2.38 2.33 1.01 0.86 2.25 1.46 3.54 1.73 0.33 0.06 0.66 0.11 0.98 0.13 0.17 0.02 0.33 0.02 0.5 0.02l0.14 0.01h32.61l2.07 0.01c1 0.01 1.99 0.08 2.98 0.21 3.94 0.53 7.74 2.09 10.94 4.46 0.79 0.6 1.57 1.24 2.28 1.93 0.41 0.4 0.59 0.58 0.83 0.82l0.7 0.71 21.12 21.12 0.44 0.45 0.52 0.54c0.33 0.37 0.66 0.75 0.97 1.13 1.24 1.56 2.29 3.27 3.1 5.09 0.83 1.81 1.41 3.73 1.75 5.69 0.17 0.98 0.27 1.98 0.33 2.97l0.02 0.75 0.01 0.63v32.84h-3.17v-32.84l-0.01-0.57-0.02-0.65c-0.05-0.86-0.13-1.72-0.29-2.57-0.29-1.7-0.81-3.36-1.52-4.93-0.71-1.58-1.62-3.05-2.7-4.4-0.26-0.34-0.56-0.66-0.83-0.98l-0.44-0.47-0.4-0.42-1.4-1.4-11.27-11.26-8.45-8.45-0.7-0.71c-0.24-0.24-0.44-0.44-0.79-0.77-0.62-0.6-1.29-1.15-1.98-1.67-2.78-2.05-6.06-3.4-9.49-3.86-0.85-0.11-1.71-0.17-2.58-0.18l-2.04-0.01h-32.35l-0.43-0.01c-0.24 0-0.47-0.01-0.7-0.03-0.46-0.02-0.92-0.1-1.38-0.19-1.82-0.37-3.55-1.21-4.96-2.41-0.58-0.48-1.66-1.61-2.57-2.51l-2.81-2.82c-0.98-0.95-1.72-1.8-3.16-3.05-1.32-1.12-2.78-2.05-4.33-2.81-1.55-0.75-3.21-1.29-4.89-1.64-0.85-0.16-1.7-0.29-2.56-0.34-0.43-0.04-0.86-0.05-1.29-0.06l-1.04-0.01h-51.29z"/>
			<rect class="st2" x="333.2" y="238" width="82.51" height="3.17"/>
			<path class="st2" d="m425.22 253.87v-3.17h52.25c0.23 0.01 0.46 0.01 0.7 0.03 0.46 0.02 0.92 0.1 1.38 0.19 0.9 0.19 1.79 0.48 2.63 0.88 0.83 0.41 1.63 0.9 2.32 1.52 0.59 0.48 1.64 1.59 2.56 2.5l2.82 2.81c0.99 0.96 1.71 1.79 3.14 3.04 2.63 2.25 5.83 3.79 9.21 4.48 0.85 0.17 1.7 0.3 2.56 0.36 0.43 0.04 0.86 0.05 1.29 0.06l1.06 0.01h33.79c0.47 0.01 0.94 0.04 1.39 0.1 1.85 0.25 3.62 0.98 5.11 2.08 0.36 0.29 0.74 0.58 1.06 0.9 0.14 0.13 0.4 0.4 0.63 0.63l0.71 0.71 2.82 2.81 5.63 5.63 11.26 11.27 1.57 1.57 0.12 0.13 0.24 0.25c0.15 0.18 0.31 0.35 0.45 0.53 0.58 0.73 1.08 1.52 1.45 2.37 0.38 0.85 0.66 1.75 0.82 2.66 0.09 0.46 0.12 0.92 0.15 1.39l0.01 0.34 0.01 0.17v33.1h-3.17v-33.1l-0.01-0.12v-0.25c-0.02-0.33-0.05-0.66-0.11-0.98-0.11-0.66-0.31-1.29-0.59-1.9-0.26-0.61-0.63-1.17-1.03-1.7-0.1-0.13-0.22-0.25-0.33-0.38l-0.42-0.44-21.12-21.12-0.71-0.7c-0.22-0.23-0.51-0.52-0.58-0.58-0.24-0.24-0.5-0.44-0.76-0.64-1.07-0.79-2.33-1.31-3.65-1.48-0.33-0.05-0.66-0.07-0.99-0.08h-33.76l-1.1-0.01c-0.49-0.01-0.99-0.02-1.49-0.06-0.99-0.07-1.98-0.22-2.95-0.41-3.9-0.8-7.6-2.59-10.63-5.17-0.75-0.61-1.55-1.44-1.92-1.8l-4.23-4.23c-0.9-0.89-2.06-2.09-2.36-2.31-0.5-0.44-1.07-0.79-1.67-1.08s-1.24-0.5-1.88-0.63c-0.33-0.06-0.66-0.12-0.99-0.13-0.16-0.02-0.33-0.02-0.49-0.02h-52.2z"/>
			<rect class="st2" x="333.2" y="250.69" width="82.51" height="3.17"/>
			<path class="st2" d="m333.2 82.51v-3.17h80.74l0.75 0.02c0.98 0.03 1.98 0.13 2.95 0.29 1.96 0.32 3.88 0.86 5.7 1.65s3.54 1.79 5.1 3.01c0.79 0.59 1.52 1.26 2.24 1.95l70.06 70.06c0.29 0.27 0.49 0.47 0.77 0.67 0.52 0.41 1.09 0.75 1.69 1.02s1.25 0.45 1.9 0.56c0.71 0.12 1.04 0.11 2.65 0.11h33.22l0.75 0.02c0.98 0.04 1.98 0.13 2.95 0.29 1.95 0.33 3.87 0.87 5.69 1.67 1.82 0.79 3.54 1.8 5.09 3.02 0.79 0.6 1.52 1.27 2.23 1.96l1.4 1.4 11.21 11.2 11.2 11.21 11.21 11.2 11.2 11.21 11.21 11.2 11.2 11.21 1.4 1.4c0.25 0.22 0.48 0.45 0.75 0.65 0.52 0.41 1.09 0.75 1.7 1.01 0.6 0.27 1.25 0.45 1.9 0.56 0.33 0.05 0.65 0.09 0.98 0.1l0.25 0.01h33.14v3.17h-33.15l-0.35-0.01c-0.46-0.02-0.92-0.06-1.38-0.14-0.9-0.15-1.8-0.4-2.65-0.78-0.85-0.37-1.65-0.84-2.38-1.41-0.36-0.28-0.71-0.6-1.04-0.92l-1.4-1.4-11.2-11.21-11.21-11.2-11.2-11.21-11.21-11.2-11.2-11.21-11.21-11.2-1.4-1.4c-0.62-0.6-1.25-1.17-1.94-1.7-1.35-1.06-2.84-1.94-4.42-2.62-1.57-0.7-3.24-1.17-4.93-1.45-0.85-0.13-1.71-0.22-2.56-0.25l-0.64-0.02h-33.2c-1.49 0-2.22 0.02-3.17-0.15-0.91-0.16-1.8-0.41-2.65-0.79-0.85-0.36-1.65-0.85-2.37-1.42-0.37-0.29-0.69-0.59-1.05-0.93l-1.4-1.4-11.2-11.21-8.84-8.83-2.24-2.25-0.13-0.13-6.6-6.61-2.25-2.24-2.36-2.36-11.21-11.2-11.2-11.21-11.21-11.2-1.41-1.41c-0.62-0.6-1.25-1.18-1.94-1.7-1.36-1.06-2.86-1.93-4.43-2.61s-3.24-1.15-4.93-1.43c-0.85-0.13-1.71-0.22-2.56-0.25l-0.64-0.02h-80.77z"/>
			<path class="st2" d="m333.2 95.2v-3.17h80.71l0.35 0.01c0.46 0.02 0.92 0.06 1.38 0.13 0.9 0.15 1.81 0.4 2.65 0.77 0.85 0.37 1.66 0.83 2.39 1.4 0.36 0.28 0.71 0.6 1.04 0.91l1.4 1.39 11.2 11.21 11.21 11.2 11.2 11.21 2.36 2.36 2.24 2.25 6.61 6.6 0.13 0.13 2.25 2.24 8.83 8.84 11.21 11.2 1.4 1.4c0.59 0.57 1.24 1.17 1.92 1.69 1.35 1.06 2.83 1.95 4.4 2.64s3.23 1.18 4.93 1.46c1.66 0.32 3.59 0.29 4.73 0.29h33.15l0.35 0.01c0.46 0.02 0.92 0.06 1.38 0.14 0.91 0.15 1.81 0.4 2.65 0.78 0.85 0.36 1.65 0.84 2.38 1.41 0.37 0.28 0.71 0.6 1.04 0.91l1.4 1.4 11.2 11.21 11.21 11.2 11.2 11.21 11.21 11.2 11.2 11.21 11.21 11.2 1.4 1.4c0.62 0.59 1.25 1.17 1.94 1.7 1.35 1.06 2.84 1.94 4.41 2.63s3.24 1.17 4.93 1.45c0.85 0.13 1.71 0.22 2.56 0.25l0.64 0.02h33.21v3.17h-33.22l-0.74-0.02c-0.99-0.04-1.98-0.13-2.96-0.3-1.95-0.32-3.87-0.87-5.69-1.67-1.81-0.79-3.53-1.8-5.09-3.02-0.79-0.6-1.52-1.28-2.22-1.96l-1.4-1.4-11.21-11.2-11.2-11.21-11.21-11.2-11.2-11.21-11.21-11.2-11.2-11.21-1.4-1.4c-0.25-0.23-0.48-0.46-0.75-0.65-0.52-0.41-1.09-0.75-1.7-1.01-0.6-0.28-1.25-0.45-1.9-0.56-0.33-0.05-0.66-0.09-0.98-0.1l-0.25-0.01h-33.14c-0.71-0.01-1.16 0.02-2.3-0.02-0.98-0.04-1.98-0.13-2.95-0.3-1.95-0.33-3.87-0.89-5.68-1.69-1.82-0.79-3.53-1.82-5.09-3.05-0.78-0.59-1.54-1.29-2.21-1.95l-68.63-68.63-1.39-1.38c-0.24-0.23-0.48-0.46-0.75-0.65-0.52-0.41-1.09-0.74-1.7-1.01-0.6-0.27-1.25-0.44-1.9-0.55-0.33-0.05-0.66-0.09-0.98-0.1l-0.25-0.01h-80.71z"/>
			<path class="st2" d="m477.04 137.11-2.24-2.25 1.82-1.82 0.41-0.42 5.26-5.25 0.36-0.36 0.25-0.24c0.16-0.17 0.35-0.31 0.52-0.47 0.36-0.29 0.74-0.58 1.13-0.83 0.79-0.5 1.65-0.9 2.54-1.18 0.89-0.3 1.82-0.45 2.75-0.52 0.25-0.02 0.44-0.02 0.73-0.02h113.35c0.29 0 0.77-0.01 1.2-0.02 0.44-0.02 0.87-0.05 1.3-0.09 3.46-0.36 6.82-1.61 9.67-3.62 0.72-0.48 1.39-1.05 2.04-1.62l0.48-0.45 0.41-0.4 9.22-9.22 11.34-11.35 1.42-1.42 0.34-0.33 0.25-0.24c0.17-0.17 0.35-0.31 0.52-0.47 0.73-0.58 1.52-1.09 2.38-1.48 0.85-0.39 1.75-0.68 2.67-0.84 0.46-0.1 0.93-0.13 1.39-0.17l0.75-0.02h17.06v3.17h-17.06l-0.59 0.01c-0.33 0.03-0.67 0.06-0.99 0.12-0.66 0.11-1.3 0.33-1.91 0.6-0.61 0.28-1.17 0.64-1.7 1.06-0.12 0.12-0.25 0.21-0.37 0.33l-0.18 0.17-0.33 0.32-1.42 1.42-11.34 11.35-5.68 5.67-3.55 3.55-0.45 0.44-0.55 0.52c-0.75 0.67-1.52 1.31-2.36 1.87-3.28 2.31-7.16 3.75-11.15 4.16-0.5 0.05-1 0.1-1.5 0.11-0.49 0.02-1.07 0.02-1.33 0.02h-113.31c-0.25 0.01-0.36 0.01-0.55 0.02-0.67 0.05-1.32 0.15-1.96 0.36s-1.25 0.49-1.82 0.85c-0.29 0.17-0.55 0.38-0.81 0.59-0.13 0.12-0.26 0.21-0.37 0.33l-0.19 0.17-7.85 7.89z"/>
			<path class="st2" d="m425.22 333.2v-128.4l0.01-15.96c0.02-1.87 0.55-3.74 1.49-5.35 0.46-0.82 1.04-1.55 1.69-2.23l2.81-2.82 11.35-11.34 11.34-11.35 11.35-11.34 0.55-0.56 2.25-2.24 2.25 2.24-14.15 14.15-11.34 11.35-11.35 11.34-2.79 2.79c-0.46 0.48-0.88 1.01-1.21 1.59-0.67 1.16-1.05 2.48-1.06 3.82l-0.01 15.91v128.4h-3.18z"/>
			<path class="st2" d="m468.06 128.13-2.25-2.24 7.51-7.51 0.35-0.36 0.55-0.52c0.36-0.35 0.75-0.67 1.13-1 0.78-0.63 1.59-1.23 2.44-1.76 1.69-1.08 3.53-1.93 5.43-2.55 1.91-0.62 3.9-0.98 5.9-1.1 0.48-0.02 1.05-0.03 1.47-0.04h113.35l0.68-0.01c0.17-0.01 0.33-0.02 0.5-0.04 1.32-0.14 2.63-0.61 3.71-1.39 0.28-0.18 0.53-0.4 0.79-0.62l0.44-0.43 3.54-3.54 5.67-5.68 11.35-11.34 1.81-1.81 0.55-0.52c0.36-0.35 0.75-0.67 1.13-0.99 1.56-1.26 3.28-2.34 5.1-3.17 1.82-0.84 3.74-1.46 5.72-1.81 0.99-0.18 1.99-0.29 2.99-0.35l0.75-0.02 0.66-0.01h17.06v3.17h-17.06l-0.6 0.01-0.65 0.02c-0.87 0.06-1.74 0.13-2.59 0.3-1.71 0.3-3.38 0.84-4.96 1.56s-3.06 1.66-4.42 2.75c-0.33 0.28-0.67 0.56-0.98 0.86l-0.48 0.45-1.79 1.79-11.35 11.34-9.39 9.39-0.13 0.12-0.25 0.25c-0.36 0.31-0.71 0.61-1.1 0.87-1.52 1.08-3.34 1.75-5.2 1.94-0.23 0.02-0.46 0.04-0.7 0.05s-0.43 0.02-0.81 0.02h-113.34c-0.39 0.01-0.86 0.01-1.29 0.04-1.73 0.1-3.46 0.41-5.11 0.95-1.66 0.53-3.24 1.27-4.71 2.21-0.74 0.46-1.44 0.98-2.11 1.53-0.33 0.29-0.67 0.56-0.98 0.86l-0.48 0.44-0.36 0.36-5.26 5.25-0.41 0.42-1.82 1.86z"/>
			<path class="st2" d="m412.53 333.2v-128.4l0.01-16.2c0.06-4.01 1.18-8 3.19-11.47 1-1.75 2.24-3.34 3.64-4.78l2.88-2.89 11.34-11.35 11.35-11.34 14.15-14.15 2.24 2.25-2.25 2.24-0.55 0.56-11.34 11.35-11.35 11.34-11.34 11.35-2.86 2.86c-1.21 1.25-2.29 2.63-3.15 4.14-1.75 3.01-2.71 6.47-2.77 9.94l-0.01 16.14v128.4h-3.18z"/>
		<path class="st2" d="m412.53 33.22c0.01 0.97 0.06 1.95 0.2 2.92 0.24 1.94 0.74 3.84 1.45 5.66s1.65 3.54 2.78 5.13c0.56 0.8 1.18 1.55 1.84 2.27 0.76 0.82 1.12 1.15 1.6 1.63l37.26 37.26 0.45 0.44 0.53 0.5c0.37 0.32 0.73 0.65 1.12 0.95 3.05 2.44 6.7 4.12 10.54 4.82 0.96 0.18 1.93 0.29 2.9 0.36 0.48 0.03 0.99 0.04 1.45 0.05h34.15l0.59-0.01 0.73-0.02c0.49-0.02 0.97-0.06 1.46-0.11 3.88-0.41 7.66-1.79 10.88-3.99 0.8-0.55 1.58-1.14 2.31-1.79 0.37-0.31 0.72-0.66 1.07-1l53.84-53.84 0.35-0.34 0.48-0.5c0.68-0.7 1.29-1.46 1.88-2.24 1.15-1.57 2.12-3.28 2.87-5.09 0.74-1.81 1.26-3.7 1.54-5.63 0.13-0.97 0.23-1.94 0.24-2.92 0.01-0.56 0.01-0.8 0.01-1.14v-16.59h-3.17v16.59c0 0.33 0 0.61-0.01 1.08-0.01 0.85-0.09 1.69-0.21 2.53-0.24 1.67-0.7 3.32-1.34 4.88-0.65 1.56-1.48 3.05-2.48 4.41-0.51 0.67-1.04 1.33-1.63 1.94l-0.42 0.44-54.17 54.17c-0.31 0.29-0.6 0.59-0.93 0.86-0.63 0.56-1.31 1.07-2 1.55-2.8 1.91-6.07 3.1-9.43 3.46-0.42 0.04-0.84 0.07-1.26 0.09-0.4 0.01-0.9 0.03-1.18 0.02h-34.15c-0.41-0.01-0.84-0.01-1.26-0.04-0.84-0.05-1.69-0.15-2.52-0.31-3.33-0.61-6.49-2.06-9.13-4.18-0.33-0.26-0.65-0.54-0.97-0.82l-0.46-0.44-0.41-0.4-37.26-37.26c-0.8-0.79-2.17-2.14-3.1-3.51-0.98-1.38-1.8-2.87-2.41-4.45-0.62-1.57-1.05-3.22-1.26-4.9-0.12-0.84-0.16-1.68-0.17-2.53v-1.98-31.2h-3.17v31.22l-0.02 2z"/>
		<path class="st2" d="m425.32 34.51c0.11 0.9 0.34 1.79 0.68 2.64 0.33 0.85 0.77 1.65 1.3 2.39 0.55 0.79 1.04 1.27 2.09 2.31l37.26 37.26 0.54 0.52c0.18 0.14 0.34 0.3 0.52 0.44 1.42 1.14 3.13 1.92 4.92 2.25 0.45 0.09 0.9 0.14 1.35 0.17 0.23 0.02 0.45 0.01 0.69 0.02h34.15c0.37 0 0.52-0.01 0.77-0.01l0.68-0.05c1.81-0.19 3.57-0.84 5.08-1.86 0.37-0.26 0.74-0.53 1.08-0.84 0.18-0.14 0.33-0.31 0.5-0.46l53.81-53.81 0.35-0.34 0.25-0.26c0.32-0.33 0.6-0.68 0.88-1.04 0.54-0.74 0.99-1.53 1.34-2.37 0.34-0.84 0.59-1.73 0.72-2.63 0.06-0.45 0.11-0.9 0.11-1.36 0.01-0.18 0.01-0.56 0.01-0.88v-16.6h-3.17v16.59c0 0.31 0 0.72-0.01 0.81 0 0.33-0.04 0.65-0.08 0.97-0.09 0.64-0.27 1.27-0.51 1.88-0.25 0.6-0.57 1.17-0.96 1.7-0.2 0.25-0.4 0.51-0.63 0.74l-0.19 0.2-12.07 12.07-11.07 11.04-31.03 31.03c-0.12 0.11-0.23 0.23-0.36 0.33-0.24 0.22-0.5 0.41-0.77 0.6-1.08 0.73-2.33 1.19-3.63 1.33l-0.49 0.04-0.24 0.01h-0.14-34.39c-0.19-0.01-0.33 0-0.5-0.02-0.32-0.02-0.65-0.06-0.97-0.12-1.28-0.23-2.5-0.79-3.51-1.61-0.13-0.1-0.25-0.21-0.37-0.31l-0.42-0.41-4.14-4.14-11.05-11.04-22.08-22.08c-1.13-1.12-1.32-1.31-1.75-1.91-0.38-0.53-0.7-1.1-0.93-1.71-0.24-0.61-0.41-1.24-0.48-1.88-0.05-0.32-0.06-0.65-0.07-0.97v-1.91-31.23h-3.17v31.22 1.93c0.02 0.46 0.03 0.91 0.1 1.36z"/>
			<path class="st3" d="m396.29 229.4h7.93l-3.97-3.97h-7.93c0 0.01 2.42 2.43 3.97 3.97z"/>
			<path class="st3" d="m383.86 229.4h7.93l-3.97-3.97h-7.93c0.01 0.01 2.42 2.43 3.97 3.97z"/>
			<path class="st3" d="m371.43 229.4h7.93l-3.97-3.97h-7.93c0.01 0.01 2.42 2.43 3.97 3.97z"/>
			<path class="st3" d="m359 229.4h7.93l-3.97-3.97h-7.93l3.97 3.97z"/>
			<path class="st3" d="m346.58 229.4h7.93l-3.97-3.97h-7.93c0 0.01 2.42 2.43 3.97 3.97z"/>
			<path class="st3" d="m587.75 102.34h7.93l-3.97-3.97h-7.93c0.01 0 2.42 2.42 3.97 3.97z"/>
			<path class="st3" d="m575.32 102.34h7.93l-3.97-3.97h-7.93c0.01 0 2.43 2.42 3.97 3.97z"/>
			<path class="st3" d="m562.9 102.34h7.93l-3.97-3.97h-7.93l3.97 3.97z"/>
			<path class="st3" d="m550.47 102.34h7.93l-3.97-3.97h-7.93l3.97 3.97z"/>
			<path class="st3" d="m538.04 102.34h7.93l-3.97-3.97h-7.93l3.97 3.97z"/>
			<path class="st3" d="m592.95 321.21v7.93l3.97-3.97v-7.93c-0.01 0.01-2.42 2.43-3.97 3.97z"/>
			<path class="st3" d="m592.95 308.79v7.93l3.97-3.97v-7.93c-0.01 0-2.42 2.42-3.97 3.97z"/>
			<path class="st3" d="m592.95 296.36v7.93l3.97-3.97v-7.93c-0.01 0-2.42 2.42-3.97 3.97z"/>
			<path class="st3" d="m402.24 32.87v7.93l3.97-3.97v-7.93c0 0.01-2.42 2.43-3.97 3.97z"/>
			<path class="st3" d="m402.24 20.45v7.93l3.97-3.97v-7.93l-3.97 3.97z"/>
			<path class="st3" d="m402.24 8.02v7.93l3.97-3.97v-7.93l-3.97 3.97z"/>
		<rect class="st0" transform="matrix(-1 -1.2246e-16 1.2246e-16 -1 1666 333.2)" x="666.41" width="333.2" height="333.2"/>
	<polygon class="st1" points="666.41 0 999.61 333.2 666.41 333.2"/>
			<path class="st2" d="m758.44 241.17v-3.17h51.3l1.07 0.01c0.5 0.01 1 0.02 1.49 0.06 0.99 0.06 1.98 0.21 2.96 0.4 1.95 0.4 3.86 1.03 5.65 1.9s3.48 1.95 5 3.24c0.73 0.6 1.58 1.46 1.94 1.82l4.22 4.22c0.88 0.87 2.09 2.11 2.38 2.33 1.01 0.86 2.25 1.46 3.54 1.73 0.33 0.06 0.66 0.11 0.98 0.13 0.17 0.02 0.33 0.02 0.5 0.02l0.14 0.01h32.6l2.07 0.01c1 0.01 1.99 0.08 2.98 0.21 3.94 0.53 7.74 2.09 10.94 4.46 0.79 0.6 1.57 1.24 2.28 1.93 0.41 0.4 0.59 0.58 0.83 0.82l0.7 0.71 21.12 21.12 0.44 0.45 0.52 0.54c0.33 0.37 0.66 0.75 0.97 1.13 1.24 1.56 2.29 3.27 3.1 5.09 0.83 1.81 1.41 3.73 1.75 5.69 0.17 0.98 0.27 1.98 0.33 2.97l0.02 0.75 0.01 0.63v32.84h-3.17v-32.84l-0.01-0.57-0.02-0.65c-0.05-0.86-0.13-1.72-0.29-2.57-0.29-1.7-0.81-3.36-1.52-4.93-0.71-1.58-1.62-3.05-2.7-4.4-0.26-0.34-0.56-0.66-0.83-0.98l-0.44-0.47-0.4-0.42-1.4-1.4-11.27-11.26-8.45-8.45-0.7-0.71c-0.24-0.24-0.44-0.44-0.79-0.77-0.62-0.6-1.29-1.15-1.98-1.67-2.78-2.05-6.06-3.4-9.49-3.86-0.85-0.11-1.71-0.17-2.58-0.18l-2.04-0.01h-32.35l-0.43-0.01c-0.24 0-0.47-0.01-0.7-0.03-0.46-0.02-0.92-0.1-1.38-0.19-1.82-0.37-3.55-1.21-4.96-2.41-0.58-0.48-1.66-1.61-2.57-2.51l-2.81-2.82c-0.98-0.95-1.72-1.8-3.16-3.05-1.32-1.12-2.78-2.05-4.33-2.81-1.55-0.75-3.21-1.29-4.89-1.64-0.85-0.16-1.7-0.29-2.56-0.34-0.43-0.04-0.86-0.05-1.29-0.06l-1.04-0.01h-51.28z"/>
			<rect class="st2" x="666.41" y="238" width="82.51" height="3.17"/>
			<path class="st2" d="m758.44 253.87v-3.17h52.25c0.23 0.01 0.46 0.01 0.7 0.03 0.46 0.02 0.92 0.1 1.38 0.19 0.9 0.19 1.79 0.48 2.63 0.88 0.83 0.41 1.63 0.9 2.32 1.52 0.59 0.48 1.64 1.59 2.56 2.5l2.82 2.81c0.99 0.96 1.71 1.79 3.14 3.04 2.63 2.25 5.83 3.79 9.21 4.48 0.85 0.17 1.7 0.3 2.56 0.36 0.43 0.04 0.86 0.05 1.29 0.06l1.06 0.01h33.79c0.47 0.01 0.94 0.04 1.39 0.1 1.85 0.25 3.62 0.98 5.11 2.08 0.36 0.29 0.74 0.58 1.06 0.9 0.14 0.13 0.4 0.4 0.63 0.63l0.71 0.71 2.82 2.81 5.63 5.63 11.26 11.27 1.57 1.57 0.12 0.13 0.24 0.25c0.15 0.18 0.31 0.35 0.45 0.53 0.58 0.73 1.08 1.52 1.45 2.37 0.38 0.85 0.66 1.75 0.82 2.66 0.09 0.46 0.12 0.92 0.15 1.39l0.01 0.34 0.01 0.17v33.1h-3.17v-33.1l-0.01-0.12v-0.25c-0.02-0.33-0.05-0.66-0.11-0.98-0.11-0.66-0.31-1.29-0.59-1.9-0.26-0.61-0.63-1.17-1.03-1.7-0.1-0.13-0.22-0.25-0.33-0.38l-0.42-0.44-21.12-21.12-0.71-0.7c-0.22-0.23-0.51-0.52-0.58-0.58-0.24-0.24-0.5-0.44-0.76-0.64-1.07-0.79-2.33-1.31-3.65-1.48-0.33-0.05-0.66-0.07-0.99-0.08h-33.76l-1.1-0.01c-0.49-0.01-0.99-0.02-1.49-0.06-0.99-0.07-1.98-0.22-2.95-0.41-3.9-0.8-7.6-2.59-10.63-5.17-0.75-0.61-1.55-1.44-1.92-1.8l-4.23-4.23c-0.9-0.89-2.06-2.09-2.36-2.31-0.5-0.44-1.07-0.79-1.67-1.08-0.59-0.29-1.24-0.5-1.88-0.63-0.33-0.06-0.66-0.12-0.99-0.13-0.16-0.02-0.33-0.02-0.49-0.02h-52.2z"/>
			<rect class="st2" x="666.41" y="250.69" width="82.51" height="3.17"/>
			<path class="st2" d="m666.41 82.51v-3.17h80.74l0.75 0.02c0.98 0.03 1.98 0.13 2.95 0.29 1.96 0.32 3.88 0.86 5.7 1.65s3.54 1.79 5.1 3.01c0.79 0.59 1.52 1.26 2.24 1.95l70.06 70.06c0.29 0.27 0.49 0.47 0.77 0.67 0.52 0.41 1.09 0.75 1.69 1.02s1.25 0.45 1.9 0.56c0.71 0.12 1.04 0.11 2.65 0.11h33.22l0.75 0.02c0.98 0.04 1.98 0.13 2.95 0.29 1.95 0.33 3.87 0.87 5.69 1.67 1.82 0.79 3.54 1.8 5.09 3.02 0.79 0.6 1.52 1.27 2.23 1.96l1.4 1.4 11.21 11.2 11.2 11.21 11.21 11.2 11.2 11.21 11.21 11.2 11.2 11.21 1.4 1.4c0.25 0.22 0.48 0.45 0.75 0.65 0.52 0.41 1.09 0.75 1.7 1.01 0.6 0.27 1.25 0.45 1.9 0.56 0.33 0.05 0.65 0.09 0.98 0.1l0.25 0.01h33.14v3.17h-33.15l-0.35-0.01c-0.46-0.02-0.92-0.06-1.38-0.14-0.9-0.15-1.8-0.4-2.65-0.78-0.85-0.37-1.65-0.84-2.38-1.41-0.36-0.28-0.71-0.6-1.04-0.92l-1.4-1.4-11.2-11.21-11.21-11.2-11.2-11.21-11.21-11.2-11.2-11.21-11.21-11.2-1.4-1.4c-0.62-0.6-1.25-1.17-1.94-1.7-1.35-1.06-2.84-1.94-4.42-2.62-1.57-0.7-3.24-1.17-4.93-1.45-0.85-0.13-1.71-0.22-2.56-0.25l-0.64-0.02h-33.2c-1.49 0-2.22 0.02-3.17-0.15-0.91-0.16-1.8-0.41-2.65-0.79-0.85-0.36-1.65-0.85-2.37-1.42-0.37-0.29-0.69-0.59-1.05-0.93l-1.4-1.4-11.2-11.21-8.84-8.83-2.24-2.25-0.13-0.13-6.6-6.61-2.25-2.24-2.36-2.36-11.21-11.2-11.2-11.21-11.21-11.2-1.41-1.41c-0.62-0.6-1.25-1.18-1.94-1.7-1.36-1.06-2.86-1.93-4.43-2.61s-3.24-1.15-4.93-1.43c-0.85-0.13-1.71-0.22-2.56-0.25l-0.64-0.02h-80.77z"/>
			<path class="st2" d="m666.41 95.2v-3.17h80.71l0.35 0.01c0.46 0.02 0.92 0.06 1.38 0.13 0.9 0.15 1.81 0.4 2.65 0.77 0.85 0.37 1.66 0.83 2.39 1.4 0.36 0.28 0.71 0.6 1.04 0.91l1.4 1.39 11.2 11.21 11.21 11.2 11.2 11.21 2.36 2.36 2.24 2.25 6.61 6.6 0.13 0.13 2.25 2.24 8.83 8.84 11.21 11.2 1.4 1.4c0.59 0.57 1.24 1.17 1.92 1.69 1.35 1.06 2.83 1.95 4.4 2.64s3.23 1.18 4.93 1.46c1.66 0.32 3.59 0.29 4.73 0.29h33.15l0.35 0.01c0.46 0.02 0.92 0.06 1.38 0.14 0.91 0.15 1.81 0.4 2.65 0.78 0.85 0.36 1.65 0.84 2.38 1.41 0.37 0.28 0.71 0.6 1.04 0.91l1.4 1.4 11.2 11.21 11.21 11.2 11.2 11.21 11.21 11.2 11.2 11.21 11.21 11.2 1.4 1.4c0.62 0.59 1.25 1.17 1.94 1.7 1.35 1.06 2.84 1.94 4.41 2.63s3.24 1.17 4.93 1.45c0.85 0.13 1.71 0.22 2.56 0.25l0.64 0.02h33.21v3.17h-33.22l-0.74-0.02c-0.99-0.04-1.98-0.13-2.96-0.3-1.95-0.32-3.87-0.87-5.69-1.67-1.81-0.79-3.53-1.8-5.09-3.02-0.79-0.6-1.52-1.28-2.22-1.96l-1.4-1.4-11.21-11.2-11.2-11.21-11.21-11.2-11.2-11.21-11.21-11.2-11.2-11.21-1.4-1.4c-0.25-0.23-0.48-0.46-0.75-0.65-0.52-0.41-1.09-0.75-1.7-1.01-0.6-0.28-1.25-0.45-1.9-0.56-0.33-0.05-0.66-0.09-0.98-0.1l-0.25-0.01h-33.14c-0.71-0.01-1.16 0.02-2.3-0.02-0.98-0.04-1.98-0.13-2.95-0.3-1.95-0.33-3.87-0.89-5.68-1.69-1.82-0.79-3.53-1.82-5.09-3.05-0.78-0.59-1.54-1.29-2.21-1.95l-68.63-68.63-1.39-1.38c-0.24-0.23-0.48-0.46-0.75-0.65-0.52-0.41-1.09-0.74-1.7-1.01-0.6-0.27-1.25-0.44-1.9-0.55-0.33-0.05-0.66-0.09-0.98-0.1l-0.25-0.01h-80.71z"/>
			<path class="st2" d="m810.25 137.11-2.24-2.25 1.82-1.82 0.41-0.42 5.26-5.25 0.36-0.36 0.25-0.24c0.16-0.17 0.35-0.31 0.52-0.47 0.36-0.29 0.74-0.58 1.13-0.83 0.79-0.5 1.65-0.9 2.54-1.18 0.89-0.3 1.82-0.45 2.75-0.52 0.25-0.02 0.44-0.02 0.73-0.02h113.35c0.29 0 0.77-0.01 1.2-0.02 0.44-0.02 0.87-0.05 1.3-0.09 3.46-0.36 6.82-1.61 9.67-3.62 0.72-0.48 1.39-1.05 2.04-1.62l0.48-0.45 0.41-0.4 9.22-9.22 11.34-11.35 1.42-1.42 0.34-0.33 0.25-0.24c0.17-0.17 0.35-0.31 0.52-0.47 0.73-0.58 1.52-1.09 2.38-1.48 0.85-0.39 1.75-0.68 2.67-0.84 0.46-0.1 0.93-0.13 1.39-0.17l0.75-0.02h17.06v3.17h-17.06l-0.59 0.01c-0.33 0.03-0.67 0.06-0.99 0.12-0.66 0.11-1.3 0.33-1.91 0.6-0.61 0.28-1.17 0.64-1.7 1.06-0.12 0.12-0.25 0.21-0.37 0.33l-0.18 0.17-0.33 0.32-1.42 1.42-11.34 11.35-5.68 5.67-3.55 3.55-0.45 0.44-0.55 0.52c-0.75 0.67-1.52 1.31-2.36 1.87-3.28 2.31-7.16 3.75-11.15 4.16-0.5 0.05-1 0.1-1.5 0.11-0.49 0.02-1.07 0.02-1.33 0.02h-113.31c-0.25 0.01-0.36 0.01-0.55 0.02-0.67 0.05-1.32 0.15-1.96 0.36s-1.25 0.49-1.82 0.85c-0.29 0.17-0.55 0.38-0.81 0.59-0.13 0.12-0.26 0.21-0.37 0.33l-0.19 0.17-7.85 7.89z"/>
			<path class="st2" d="m758.44 333.2v-128.4l0.01-15.96c0.02-1.87 0.55-3.74 1.49-5.35 0.46-0.82 1.04-1.55 1.69-2.23l2.81-2.82 11.35-11.34 11.34-11.35 11.35-11.34 0.55-0.56 2.25-2.24 2.25 2.24-14.15 14.15-11.34 11.35-11.35 11.34-2.79 2.79c-0.46 0.48-0.88 1.01-1.21 1.59-0.67 1.16-1.05 2.48-1.06 3.82l-0.01 15.91v128.4h-3.18z"/>
			<path class="st2" d="m801.28 128.13-2.25-2.24 7.51-7.51 0.35-0.36 0.55-0.52c0.36-0.35 0.75-0.67 1.13-1 0.78-0.63 1.59-1.23 2.44-1.76 1.69-1.08 3.53-1.93 5.43-2.55 1.91-0.62 3.9-0.98 5.9-1.1 0.48-0.02 1.05-0.03 1.47-0.04h113.35l0.68-0.01c0.17-0.01 0.33-0.02 0.5-0.04 1.32-0.14 2.63-0.61 3.71-1.39 0.28-0.18 0.53-0.4 0.79-0.62l0.44-0.43 3.54-3.54 5.67-5.68 11.35-11.34 1.81-1.81 0.55-0.52c0.36-0.35 0.75-0.67 1.13-0.99 1.56-1.26 3.28-2.34 5.1-3.17 1.82-0.84 3.74-1.46 5.72-1.81 0.99-0.18 1.99-0.29 2.99-0.35l0.75-0.02 0.66-0.01h17.06v3.17h-17.06l-0.6 0.01-0.65 0.02c-0.87 0.06-1.74 0.13-2.59 0.3-1.71 0.3-3.38 0.84-4.96 1.56s-3.06 1.66-4.42 2.75c-0.33 0.28-0.67 0.56-0.98 0.86l-0.48 0.45-1.79 1.79-11.35 11.34-9.39 9.39-0.13 0.12-0.25 0.25c-0.36 0.31-0.71 0.61-1.1 0.87-1.52 1.08-3.34 1.75-5.2 1.94-0.23 0.02-0.46 0.04-0.7 0.05s-0.43 0.02-0.81 0.02h-113.35c-0.39 0.01-0.86 0.01-1.29 0.04-1.73 0.1-3.46 0.41-5.11 0.95-1.66 0.53-3.24 1.27-4.71 2.21-0.74 0.46-1.44 0.98-2.11 1.53-0.33 0.29-0.67 0.56-0.98 0.86l-0.48 0.44-0.36 0.36-5.26 5.25-0.41 0.42-1.81 1.86z"/>
			<path class="st2" d="m745.74 333.2v-128.4l0.01-16.2c0.06-4.01 1.18-8 3.19-11.47 1-1.75 2.24-3.34 3.64-4.78l2.88-2.89 11.34-11.35 11.35-11.34 14.15-14.15 2.24 2.25-2.25 2.24-0.55 0.56-11.34 11.35-11.35 11.34-11.34 11.35-2.86 2.86c-1.21 1.25-2.29 2.63-3.15 4.14-1.75 3.01-2.71 6.47-2.77 9.94l-0.01 16.14v128.4h-3.18z"/>
		<path class="st2" d="m745.75 33.22c0.01 0.97 0.06 1.95 0.2 2.92 0.24 1.94 0.74 3.84 1.45 5.66s1.65 3.54 2.78 5.13c0.56 0.8 1.18 1.55 1.84 2.27 0.76 0.82 1.12 1.15 1.6 1.63l37.26 37.26 0.45 0.44 0.53 0.5c0.37 0.32 0.73 0.65 1.12 0.95 3.05 2.44 6.7 4.12 10.54 4.82 0.96 0.18 1.93 0.29 2.9 0.36 0.48 0.03 0.99 0.04 1.45 0.05h34.15l0.59-0.01 0.73-0.02c0.49-0.02 0.97-0.06 1.46-0.11 3.88-0.41 7.66-1.79 10.88-3.99 0.8-0.55 1.58-1.14 2.31-1.79 0.37-0.31 0.72-0.66 1.07-1l53.84-53.84 0.35-0.34 0.48-0.5c0.68-0.7 1.29-1.46 1.88-2.24 1.15-1.57 2.12-3.28 2.87-5.09 0.74-1.81 1.26-3.7 1.54-5.63 0.13-0.97 0.23-1.94 0.24-2.92 0.01-0.56 0.01-0.8 0.01-1.14v-16.59h-3.17v16.59c0 0.33 0 0.61-0.01 1.08-0.01 0.85-0.09 1.69-0.21 2.53-0.24 1.67-0.7 3.32-1.34 4.88-0.65 1.56-1.48 3.05-2.48 4.41-0.51 0.67-1.04 1.33-1.63 1.94l-0.42 0.44-54.17 54.17c-0.31 0.29-0.6 0.59-0.93 0.86-0.63 0.56-1.31 1.07-2 1.55-2.8 1.91-6.07 3.1-9.43 3.46-0.42 0.04-0.84 0.07-1.26 0.09-0.4 0.01-0.9 0.03-1.18 0.02h-34.15c-0.41-0.01-0.84-0.01-1.26-0.04-0.84-0.05-1.69-0.15-2.52-0.31-3.33-0.61-6.49-2.06-9.13-4.18-0.33-0.26-0.65-0.54-0.97-0.82l-0.46-0.44-0.41-0.4-15.18-15.18-11.06-11.03-11.04-11.04c-0.8-0.79-2.17-2.14-3.1-3.51-0.98-1.38-1.8-2.87-2.41-4.45-0.62-1.57-1.05-3.22-1.26-4.9-0.12-0.84-0.16-1.68-0.17-2.53v-1.98-31.21h-3.17v31.22 2z"/>
		<path class="st2" d="m758.53 34.51c0.11 0.9 0.34 1.79 0.68 2.64 0.33 0.85 0.77 1.65 1.3 2.39 0.55 0.79 1.04 1.27 2.09 2.31l37.26 37.26 0.54 0.52c0.18 0.14 0.34 0.3 0.52 0.44 1.42 1.14 3.13 1.92 4.92 2.25 0.45 0.09 0.9 0.14 1.35 0.17 0.23 0.02 0.45 0.01 0.69 0.02h34.15c0.37 0 0.52-0.01 0.77-0.01l0.68-0.05c1.81-0.19 3.57-0.84 5.08-1.86 0.37-0.26 0.74-0.53 1.08-0.84 0.18-0.14 0.33-0.31 0.5-0.46l53.81-53.81 0.35-0.34 0.25-0.26c0.32-0.33 0.6-0.68 0.88-1.04 0.54-0.74 0.99-1.53 1.34-2.37 0.34-0.84 0.59-1.73 0.72-2.63 0.06-0.45 0.11-0.9 0.11-1.36 0.01-0.18 0.01-0.56 0.01-0.88v-16.6h-3.17v16.59c0 0.31 0 0.72-0.01 0.81 0 0.33-0.04 0.65-0.08 0.97-0.09 0.64-0.27 1.27-0.51 1.88-0.25 0.6-0.57 1.17-0.96 1.7-0.2 0.25-0.4 0.51-0.63 0.74l-0.19 0.2-0.34 0.34-0.72 0.69-53.11 53.11c-0.12 0.11-0.23 0.23-0.36 0.33-0.24 0.22-0.5 0.41-0.77 0.6-1.08 0.73-2.33 1.19-3.63 1.33l-0.49 0.04-0.24 0.01h-0.14-34.39c-0.19-0.01-0.33 0-0.5-0.02-0.32-0.02-0.65-0.06-0.97-0.12-1.28-0.23-2.5-0.79-3.51-1.61-0.13-0.1-0.25-0.21-0.37-0.31l-0.42-0.41-37.26-37.26c-1.13-1.12-1.32-1.31-1.75-1.91-0.38-0.53-0.7-1.1-0.93-1.71-0.24-0.61-0.41-1.24-0.48-1.88-0.05-0.32-0.06-0.65-0.07-0.97v-1.91-31.23h-3.17v31.22 1.93c0.01 0.46 0.02 0.91 0.09 1.36z"/>
			<path class="st3" d="m729.5 229.4h7.93l-3.97-3.97h-7.93c0.01 0.01 2.42 2.43 3.97 3.97z"/>
			<path class="st3" d="m717.07 229.4h7.93l-3.97-3.97h-7.93l3.97 3.97z"/>
			<path class="st3" d="m704.65 229.4h7.93l-3.97-3.97h-7.93c0 0.01 2.42 2.43 3.97 3.97z"/>
			<path class="st3" d="m692.22 229.4h7.93l-3.97-3.97h-7.93c0 0.01 2.42 2.43 3.97 3.97z"/>
			<path class="st3" d="m679.79 229.4h7.93l-3.97-3.97h-7.93c0 0.01 2.42 2.43 3.97 3.97z"/>
			<path class="st3" d="m920.97 102.34h7.93l-3.97-3.97h-7.93l3.97 3.97z"/>
			<path class="st3" d="m908.54 102.34h7.93l-3.97-3.97h-7.93l3.97 3.97z"/>
			<path class="st3" d="m896.11 102.34h7.93l-3.97-3.97h-7.93l3.97 3.97z"/>
			<path class="st3" d="m883.68 102.34h7.93l-3.97-3.97h-7.93l3.97 3.97z"/>
			<path class="st3" d="m871.25 102.34h7.93l-3.97-3.97h-7.93l3.97 3.97z"/>
			<path class="st3" d="m926.16 321.21v7.93l3.97-3.97v-7.93c0 0.01-2.42 2.43-3.97 3.97z"/>
			<path class="st3" d="m926.16 308.79v7.93l3.97-3.97v-7.93l-3.97 3.97z"/>
			<path class="st3" d="m926.16 296.36v7.93l3.97-3.97v-7.93l-3.97 3.97z"/>
			<path class="st3" d="m735.45 32.87v7.93l3.97-3.97v-7.93c0 0.01-2.42 2.43-3.97 3.97z"/>
			<path class="st3" d="m735.45 20.45v7.93l3.97-3.97v-7.93l-3.97 3.97z"/>
			<path class="st3" d="m735.45 8.02v7.93l3.97-3.97v-7.93l-3.97 3.97z"/>
		<rect class="st0" transform="matrix(-1.837e-16 1 -1 -1.837e-16 1332.8 -999.61)" x="999.61" width="333.2" height="333.2"/>
	<polygon class="st1" points="999.61 333.2 1332.8 0 1332.8 333.2"/>
			<path class="st2" d="m1240.8 241.17h-3.17v-51.3l0.01-1.07c0.01-0.5 0.02-1 0.06-1.49 0.06-0.99 0.21-1.98 0.4-2.96 0.4-1.95 1.03-3.86 1.9-5.65 0.87-1.78 1.95-3.48 3.24-5 0.6-0.73 1.46-1.58 1.82-1.94l4.22-4.22c0.87-0.88 2.11-2.09 2.33-2.38 0.86-1.01 1.46-2.25 1.73-3.54 0.06-0.33 0.11-0.66 0.13-0.98 0.02-0.17 0.02-0.33 0.02-0.5l0.01-0.14v-32.6l0.01-2.07c0.01-1 0.08-1.99 0.21-2.98 0.53-3.94 2.09-7.74 4.46-10.94 0.6-0.79 1.24-1.57 1.93-2.28 0.4-0.41 0.58-0.59 0.82-0.83l0.71-0.7 21.12-21.12 0.45-0.44 0.54-0.52c0.37-0.33 0.75-0.66 1.13-0.97 1.56-1.24 3.27-2.29 5.09-3.1 1.81-0.82 3.73-1.41 5.69-1.75 0.98-0.17 1.98-0.27 2.97-0.33l0.75-0.02 0.63-0.01h32.84v3.17h-32.84l-0.57 0.01-0.65 0.02c-0.86 0.05-1.72 0.13-2.57 0.29-1.7 0.29-3.36 0.81-4.93 1.52-1.58 0.71-3.05 1.62-4.4 2.7-0.34 0.26-0.66 0.56-0.98 0.83l-0.47 0.44-0.42 0.4-1.4 1.4-11.26 11.27-8.45 8.45-0.71 0.7c-0.24 0.24-0.44 0.44-0.77 0.79-0.6 0.62-1.15 1.29-1.67 1.98-2.05 2.78-3.4 6.06-3.86 9.49-0.11 0.85-0.17 1.71-0.18 2.58l-0.01 2.04v32.35l-0.01 0.43c0 0.24-0.01 0.47-0.03 0.7-0.02 0.46-0.1 0.92-0.19 1.38-0.37 1.82-1.21 3.55-2.41 4.96-0.48 0.58-1.61 1.66-2.51 2.57l-2.82 2.81c-0.95 0.98-1.8 1.72-3.05 3.16-1.12 1.32-2.05 2.78-2.81 4.33-0.75 1.55-1.29 3.21-1.64 4.89-0.16 0.85-0.29 1.7-0.34 2.56-0.04 0.43-0.05 0.86-0.06 1.29l-0.01 1.04v51.28z"/>
			<rect class="st2" x="1237.6" y="250.69" width="3.17" height="82.51"/>
			<path class="st2" d="m1253.5 241.17h-3.17v-52.25c0.01-0.23 0.01-0.46 0.03-0.7 0.02-0.46 0.1-0.92 0.19-1.38 0.19-0.9 0.48-1.79 0.88-2.63 0.41-0.83 0.9-1.63 1.52-2.32 0.48-0.59 1.59-1.64 2.5-2.56l2.81-2.82c0.96-0.99 1.79-1.71 3.04-3.14 2.25-2.63 3.79-5.83 4.48-9.21 0.17-0.85 0.3-1.7 0.36-2.56 0.04-0.43 0.05-0.86 0.06-1.29l0.01-1.06v-33.79c0.01-0.47 0.04-0.94 0.1-1.39 0.25-1.85 0.98-3.62 2.08-5.11 0.29-0.36 0.58-0.74 0.9-1.06 0.13-0.14 0.4-0.4 0.63-0.63l0.71-0.71 2.81-2.82 5.63-5.63 11.27-11.26 1.57-1.57 0.13-0.12 0.25-0.24c0.18-0.15 0.35-0.31 0.53-0.45 0.73-0.58 1.52-1.08 2.37-1.45 0.85-0.38 1.75-0.66 2.66-0.82 0.46-0.09 0.92-0.12 1.39-0.15l0.34-0.01 0.17-0.01h33.1v3.17h-33.1l-0.12 0.01h-0.25c-0.33 0.02-0.66 0.05-0.98 0.11-0.66 0.11-1.29 0.31-1.9 0.59-0.61 0.26-1.17 0.63-1.7 1.03-0.13 0.1-0.25 0.22-0.38 0.33l-0.44 0.42-21.12 21.12-0.7 0.71c-0.23 0.22-0.52 0.51-0.58 0.58-0.24 0.24-0.44 0.5-0.64 0.76-0.79 1.07-1.31 2.33-1.48 3.65-0.05 0.33-0.07 0.66-0.08 0.99v33.76l-0.01 1.1c-0.01 0.49-0.02 0.99-0.06 1.49-0.07 0.99-0.22 1.98-0.41 2.95-0.8 3.9-2.59 7.6-5.17 10.63-0.61 0.75-1.44 1.55-1.8 1.92l-4.23 4.23c-0.89 0.9-2.09 2.06-2.31 2.36-0.44 0.5-0.79 1.07-1.08 1.67-0.29 0.59-0.5 1.24-0.63 1.88-0.06 0.33-0.12 0.66-0.13 0.99-0.02 0.16-0.02 0.33-0.02 0.49v52.2z"/>
			<rect class="st2" x="1250.3" y="250.69" width="3.17" height="82.51"/>
			<path class="st2" d="m1082.1 333.2h-3.17v-80.74l0.02-0.75c0.03-0.98 0.13-1.98 0.29-2.95 0.32-1.96 0.86-3.88 1.65-5.7s1.79-3.54 3.01-5.1c0.59-0.79 1.26-1.52 1.95-2.24l46.37-46.37 2.24-2.25 21.44-21.44c0.27-0.29 0.47-0.49 0.67-0.77 0.41-0.52 0.75-1.09 1.02-1.69s0.45-1.25 0.56-1.9c0.12-0.71 0.11-1.04 0.11-2.65v-33.22l0.02-0.75c0.04-0.98 0.13-1.98 0.29-2.95 0.33-1.95 0.87-3.87 1.67-5.69 0.79-1.82 1.8-3.54 3.02-5.09 0.6-0.79 1.27-1.52 1.96-2.23l1.4-1.4 11.2-11.21 11.21-11.2 11.2-11.21 11.21-11.2 11.2-11.21 11.21-11.2 1.4-1.4c0.22-0.25 0.45-0.48 0.65-0.75 0.41-0.52 0.75-1.09 1.01-1.7 0.27-0.6 0.45-1.25 0.56-1.9 0.05-0.33 0.09-0.65 0.1-0.98l0.01-0.25v-33.11h3.17v33.15l-0.01 0.35c-0.02 0.46-0.06 0.92-0.14 1.38-0.15 0.9-0.4 1.8-0.78 2.65-0.37 0.85-0.84 1.65-1.41 2.38-0.28 0.36-0.59 0.71-0.92 1.04l-1.4 1.4-11.21 11.2-11.2 11.21-11.21 11.2-11.2 11.21-11.21 11.2-11.2 11.21-1.4 1.4c-0.59 0.62-1.17 1.25-1.7 1.94-1.06 1.35-1.94 2.84-2.62 4.42-0.7 1.57-1.17 3.24-1.45 4.93-0.13 0.85-0.22 1.71-0.25 2.56l-0.02 0.64v33.2c0 1.49 0.02 2.22-0.15 3.17-0.16 0.91-0.41 1.8-0.79 2.65-0.36 0.85-0.85 1.65-1.42 2.37-0.29 0.37-0.59 0.69-0.93 1.05l-1.4 1.4-11.21 11.2-8.83 8.84-2.25 2.24-0.13 0.13-6.61 6.6-2.24 2.25-2.36 2.36-11.2 11.21-11.21 11.2-11.2 11.21-1.41 1.41c-0.6 0.62-1.18 1.25-1.7 1.94-1.06 1.36-1.93 2.86-2.61 4.43s-1.15 3.24-1.43 4.93c-0.13 0.85-0.22 1.71-0.25 2.56l-0.02 0.64v80.74z"/>
			<path class="st2" d="m1094.8 333.2h-3.17v-80.71l0.01-0.35c0.02-0.46 0.06-0.92 0.13-1.38 0.15-0.9 0.4-1.81 0.77-2.65 0.37-0.85 0.83-1.66 1.4-2.39 0.28-0.36 0.59-0.71 0.91-1.04l1.39-1.4 11.21-11.2 11.2-11.21 11.21-11.2 4.6-4.6 6.6-6.61 0.13-0.13 2.24-2.25 8.84-8.83 11.2-11.21 1.4-1.4c0.57-0.59 1.17-1.24 1.69-1.92 1.06-1.35 1.95-2.83 2.64-4.4s1.18-3.23 1.46-4.93c0.32-1.66 0.29-3.59 0.29-4.73v-33.15l0.01-0.35c0.02-0.46 0.06-0.92 0.14-1.38 0.15-0.91 0.4-1.81 0.78-2.65 0.36-0.85 0.84-1.65 1.41-2.38 0.28-0.37 0.59-0.71 0.91-1.04l1.4-1.4 11.21-11.2 11.2-11.21 11.21-11.2 11.2-11.21 11.21-11.2 11.2-11.21 1.4-1.4c0.59-0.62 1.17-1.25 1.7-1.94 1.06-1.35 1.94-2.84 2.63-4.41s1.17-3.24 1.45-4.93c0.13-0.85 0.22-1.71 0.25-2.56l0.02-0.64v-33.2h3.17v33.22l-0.02 0.74c-0.04 0.99-0.13 1.98-0.3 2.96-0.32 1.95-0.87 3.87-1.67 5.69-0.79 1.81-1.8 3.53-3.02 5.09-0.6 0.79-1.28 1.52-1.96 2.22l-1.4 1.4-11.2 11.21-11.21 11.2-11.2 11.21-11.21 11.2-11.2 11.21-11.21 11.2-1.4 1.4c-0.23 0.25-0.46 0.48-0.65 0.75-0.41 0.52-0.75 1.09-1.01 1.7-0.28 0.6-0.45 1.25-0.56 1.9-0.05 0.33-0.09 0.66-0.1 0.98l-0.01 0.25v33.14c-0.01 0.71 0.02 1.16-0.02 2.3-0.04 0.98-0.13 1.98-0.3 2.95-0.33 1.95-0.89 3.87-1.69 5.68-0.79 1.82-1.82 3.53-3.05 5.09-0.59 0.78-1.29 1.54-1.95 2.21l-68.63 68.63-1.38 1.39c-0.23 0.24-0.46 0.48-0.65 0.75-0.41 0.52-0.74 1.09-1.01 1.7-0.27 0.6-0.44 1.25-0.55 1.9-0.05 0.33-0.09 0.66-0.1 0.98l-0.01 0.25v80.7z"/>
			<path class="st2" d="m1136.7 189.36-2.25 2.24-1.82-1.82-0.42-0.41-5.25-5.26-0.36-0.36-0.24-0.25c-0.17-0.16-0.31-0.35-0.47-0.52-0.29-0.36-0.58-0.74-0.83-1.13-0.5-0.79-0.9-1.65-1.18-2.54-0.3-0.89-0.45-1.82-0.52-2.75-0.02-0.25-0.02-0.44-0.02-0.73v-113.37c0-0.29-0.01-0.77-0.02-1.2-0.02-0.44-0.05-0.87-0.09-1.3-0.36-3.46-1.61-6.82-3.62-9.67-0.48-0.72-1.05-1.39-1.62-2.04l-0.45-0.48-0.4-0.41-9.22-9.22-11.35-11.34-1.42-1.42-0.33-0.34-0.24-0.25c-0.17-0.17-0.31-0.35-0.47-0.52-0.58-0.73-1.09-1.52-1.48-2.38-0.39-0.85-0.68-1.75-0.84-2.67-0.1-0.46-0.13-0.93-0.17-1.39l-0.02-0.75v-17.08h3.17v17.06l0.01 0.59c0.03 0.33 0.06 0.67 0.12 0.99 0.11 0.66 0.33 1.3 0.6 1.91 0.28 0.61 0.64 1.17 1.06 1.7 0.12 0.12 0.21 0.25 0.33 0.37l0.17 0.18 0.32 0.33 1.42 1.42 11.35 11.34 5.67 5.68 3.55 3.55 0.44 0.45 0.52 0.55c0.67 0.75 1.31 1.52 1.87 2.36 2.31 3.28 3.75 7.16 4.16 11.15 0.05 0.5 0.1 1 0.11 1.5 0.02 0.49 0.02 1.07 0.02 1.33v113.35c0.01 0.25 0.01 0.36 0.02 0.55 0.05 0.67 0.15 1.32 0.36 1.96s0.49 1.25 0.85 1.82c0.17 0.29 0.38 0.55 0.59 0.81 0.12 0.13 0.21 0.26 0.33 0.37l0.17 0.19 7.89 7.85z"/>
			<path class="st2" d="m1332.8 241.17h-128.4l-15.96-0.01c-1.87-0.02-3.74-0.55-5.35-1.49-0.82-0.46-1.55-1.04-2.23-1.69l-2.82-2.81-11.34-11.35-11.35-11.34-11.36-11.36-0.56-0.55-2.24-2.25 2.24-2.25 14.15 14.15 11.35 11.34 11.34 11.35 2.79 2.79c0.48 0.46 1.01 0.88 1.59 1.21 1.16 0.67 2.48 1.05 3.82 1.06l15.91 0.01h128.4v3.19z"/>
			<path class="st2" d="m1127.7 198.33-2.24 2.25-7.51-7.51-0.36-0.35-0.52-0.55c-0.35-0.36-0.67-0.75-1-1.13-0.63-0.78-1.23-1.59-1.76-2.44-1.08-1.69-1.93-3.53-2.55-5.43-0.62-1.91-0.98-3.9-1.1-5.9-0.02-0.48-0.03-1.05-0.04-1.47v-113.34l-0.01-0.68c-0.01-0.17-0.02-0.33-0.04-0.5-0.14-1.32-0.61-2.63-1.39-3.71-0.18-0.28-0.4-0.53-0.62-0.79l-0.43-0.44-3.54-3.54-5.68-5.67-11.34-11.35-1.81-1.81-0.52-0.55c-0.35-0.36-0.67-0.75-0.99-1.13-1.26-1.56-2.34-3.28-3.17-5.1-0.84-1.82-1.46-3.74-1.81-5.72-0.18-0.99-0.29-1.99-0.35-2.99l-0.02-0.75-0.01-0.66v-17.07h3.17v17.06l0.01 0.59 0.02 0.65c0.06 0.87 0.13 1.74 0.3 2.59 0.3 1.71 0.84 3.38 1.56 4.96s1.66 3.06 2.75 4.42c0.28 0.33 0.56 0.67 0.86 0.98l0.45 0.48 1.79 1.79 11.34 11.35 9.39 9.39 0.12 0.13 0.25 0.25c0.31 0.36 0.61 0.71 0.87 1.1 1.08 1.52 1.75 3.34 1.94 5.2 0.02 0.23 0.04 0.46 0.05 0.7s0.02 0.43 0.02 0.81v113.35c0.01 0.39 0.01 0.86 0.04 1.29 0.1 1.73 0.41 3.46 0.95 5.11 0.53 1.66 1.27 3.24 2.21 4.71 0.46 0.74 0.98 1.44 1.53 2.11 0.29 0.33 0.56 0.67 0.86 0.98l0.44 0.48 0.36 0.36 5.25 5.26 0.42 0.41 1.86 1.82z"/>
			<path class="st2" d="m1332.8 253.87h-128.4l-16.2-0.01c-4.01-0.06-8-1.18-11.47-3.19-1.75-1-3.34-2.24-4.78-3.64l-2.89-2.88-11.35-11.34-11.34-11.35-11.9-11.9-2.24-2.25 2.24-2.24 2.24 2.25 0.56 0.55 11.35 11.34 11.34 11.35 11.35 11.34 2.86 2.86c1.25 1.21 2.63 2.29 4.14 3.15 3.01 1.75 6.47 2.71 9.94 2.77l16.14 0.01h128.4v3.18z"/>
		<path class="st2" d="m1032.8 253.86c0.97-0.01 1.95-0.06 2.92-0.2 1.94-0.24 3.84-0.74 5.66-1.45s3.54-1.65 5.13-2.78c0.8-0.56 1.55-1.18 2.27-1.84 0.82-0.76 1.15-1.12 1.63-1.6l37.26-37.26 0.44-0.45 0.5-0.53c0.32-0.37 0.65-0.73 0.95-1.12 2.44-3.05 4.12-6.7 4.82-10.54 0.18-0.96 0.29-1.93 0.36-2.9 0.03-0.48 0.04-0.99 0.05-1.45v-34.15l-0.01-0.59-0.02-0.73c-0.02-0.49-0.06-0.97-0.11-1.46-0.41-3.88-1.79-7.66-3.99-10.88-0.55-0.8-1.14-1.58-1.79-2.31-0.31-0.37-0.66-0.72-1-1.07l-53.84-53.84-0.34-0.35-0.5-0.48c-0.7-0.68-1.46-1.29-2.24-1.88-1.57-1.15-3.28-2.12-5.09-2.87-1.81-0.74-3.7-1.26-5.63-1.54-0.97-0.13-1.94-0.23-2.92-0.24-0.56-0.01-0.8-0.01-1.14-0.01h-16.59v3.17h16.59c0.33 0 0.61 0 1.08 0.01 0.85 0.01 1.69 0.09 2.53 0.21 1.67 0.24 3.32 0.7 4.88 1.34 1.56 0.65 3.05 1.48 4.41 2.48 0.67 0.51 1.33 1.04 1.94 1.63l0.44 0.42 54.17 54.17c0.29 0.31 0.59 0.6 0.86 0.93 0.56 0.63 1.07 1.31 1.55 2 1.91 2.8 3.1 6.07 3.46 9.43 0.04 0.42 0.07 0.84 0.09 1.26 0.01 0.4 0.03 0.9 0.02 1.18v34.15c-0.01 0.41-0.01 0.84-0.04 1.26-0.05 0.84-0.15 1.69-0.31 2.52-0.61 3.33-2.06 6.49-4.18 9.13-0.26 0.33-0.54 0.65-0.82 0.97l-0.44 0.46-0.4 0.41-37.26 37.26c-0.79 0.8-2.14 2.17-3.51 3.1-1.38 0.98-2.87 1.8-4.45 2.41-1.57 0.62-3.22 1.05-4.9 1.26-0.84 0.12-1.68 0.16-2.53 0.17h-1.98-31.22v3.17h31.22l2.02 0.02z"/>
		<path class="st2" d="m1034.1 241.08c0.9-0.11 1.79-0.34 2.64-0.68 0.85-0.33 1.65-0.77 2.39-1.3 0.79-0.55 1.27-1.04 2.31-2.09l37.26-37.26 0.52-0.54c0.14-0.18 0.3-0.34 0.44-0.52 1.14-1.42 1.92-3.13 2.25-4.92 0.09-0.45 0.14-0.9 0.17-1.35 0.02-0.23 0.01-0.45 0.02-0.69v-34.15c0-0.37-0.01-0.52-0.01-0.77l-0.05-0.68c-0.19-1.81-0.84-3.57-1.86-5.08-0.26-0.37-0.53-0.74-0.84-1.08-0.14-0.18-0.31-0.33-0.46-0.5l-53.81-53.81-0.34-0.35-0.26-0.25c-0.33-0.32-0.68-0.6-1.04-0.88-0.74-0.54-1.53-0.99-2.37-1.34-0.84-0.34-1.73-0.59-2.63-0.72-0.45-0.06-0.9-0.11-1.36-0.11-0.18-0.01-0.56-0.01-0.88-0.01h-16.59v3.17h16.59c0.31 0 0.72 0 0.81 0.01 0.33 0 0.65 0.04 0.97 0.08 0.64 0.09 1.27 0.27 1.88 0.51 0.6 0.25 1.17 0.57 1.7 0.96 0.25 0.2 0.51 0.4 0.74 0.63l0.2 0.19 54.14 54.14c0.11 0.12 0.23 0.23 0.33 0.36 0.22 0.24 0.41 0.5 0.6 0.77 0.73 1.08 1.19 2.33 1.33 3.63l0.04 0.49 0.01 0.24v0.14 34.39c-0.01 0.19 0 0.33-0.02 0.5-0.02 0.32-0.06 0.65-0.12 0.97-0.23 1.28-0.79 2.5-1.61 3.51-0.1 0.13-0.21 0.25-0.31 0.37l-0.41 0.42-37.26 37.26c-1.12 1.13-1.31 1.32-1.91 1.75-0.53 0.38-1.1 0.7-1.71 0.93-0.61 0.24-1.24 0.41-1.88 0.48-0.32 0.05-0.65 0.06-0.97 0.07h-1.91-31.22v3.17h31.22 1.93c0.43 0.02 0.89 0 1.34-0.06z"/>
			<path class="st3" d="m1229 270.1v-7.93l-3.97 3.97v7.93c0.01 0 2.42-2.42 3.97-3.97z"/>
			<path class="st3" d="m1229 282.53v-7.93l-3.97 3.97v7.93c0.01 0 2.42-2.42 3.97-3.97z"/>
			<path class="st3" d="m1229 294.96v-7.93l-3.97 3.97v7.93c0.01 0 2.42-2.42 3.97-3.97z"/>
			<path class="st3" d="m1229 307.39v-7.93l-3.97 3.97v7.93c0.01 0 2.42-2.42 3.97-3.97z"/>
			<path class="st3" d="m1229 319.82v-7.93l-3.97 3.97v7.93c0.01 0 2.42-2.42 3.97-3.97z"/>
			<path class="st3" d="m1102 78.64v-7.93l-3.97 3.97v7.93l3.97-3.97z"/>
			<path class="st3" d="m1102 91.07v-7.93l-3.97 3.97v7.93l3.97-3.97z"/>
			<path class="st3" d="m1102 103.5v-7.93l-3.97 3.97v7.93l3.97-3.97z"/>
			<path class="st3" d="m1102 115.93v-7.93l-3.97 3.97v7.93l3.97-3.97z"/>
			<path class="st3" d="m1102 128.36v-7.93l-3.97 3.97v7.93c0-0.01 2.42-2.42 3.97-3.97z"/>
			<path class="st3" d="m1320.8 73.45h7.93l-3.97-3.97h-7.93c0.01 0 2.42 2.42 3.97 3.97z"/>
			<path class="st3" d="m1308.4 73.45h7.93l-3.97-3.97h-7.93c0.01 0 2.43 2.42 3.97 3.97z"/>
			<path class="st3" d="m1296 73.45h7.93l-3.97-3.97h-7.93l3.97 3.97z"/>
			<path class="st3" d="m1032.5 264.15h7.93l-3.97-3.97h-7.93c0.01 0.01 2.42 2.43 3.97 3.97z"/>
			<path class="st3" d="m1020 264.15h7.93l-3.97-3.97h-7.93c0.01 0.01 2.42 2.43 3.97 3.97z"/>
			<path class="st3" d="m1007.6 264.15h7.93l-3.97-3.97h-7.93l3.97 3.97z"/>
		<rect class="st0" transform="matrix(-1 -1.2246e-16 1.2246e-16 -1 2998.8 333.2)" x="1332.8" width="333.2" height="333.2"/>
	<polygon class="st1" points="1332.8 0 1666 333.2 1332.8 333.2"/>
			<path class="st2" d="m1424.8 241.17v-3.17h51.3l1.07 0.01c0.5 0.01 1 0.02 1.49 0.06 0.99 0.06 1.98 0.21 2.96 0.4 1.95 0.4 3.86 1.03 5.65 1.9s3.48 1.95 5 3.24c0.73 0.6 1.58 1.46 1.94 1.82l4.22 4.22c0.88 0.87 2.09 2.11 2.38 2.33 1.01 0.86 2.24 1.46 3.54 1.73 0.33 0.06 0.66 0.11 0.98 0.13 0.17 0.02 0.33 0.02 0.5 0.02l0.14 0.01h32.6l2.07 0.01c1 0.01 1.99 0.08 2.98 0.21 3.94 0.53 7.74 2.09 10.94 4.46 0.79 0.6 1.57 1.24 2.28 1.93 0.41 0.4 0.59 0.58 0.83 0.82l0.7 0.71 21.12 21.12 0.44 0.45 0.52 0.54c0.33 0.37 0.66 0.75 0.97 1.13 1.24 1.56 2.29 3.27 3.1 5.09 0.83 1.81 1.41 3.73 1.75 5.69 0.17 0.98 0.27 1.98 0.33 2.97l0.02 0.75 0.01 0.63v32.84h-3.17v-32.84l-0.01-0.57-0.02-0.65c-0.05-0.86-0.13-1.72-0.29-2.57-0.29-1.7-0.81-3.36-1.52-4.93-0.71-1.58-1.62-3.05-2.7-4.4-0.26-0.34-0.56-0.66-0.83-0.98l-0.44-0.47-0.4-0.42-1.4-1.4-11.27-11.26-8.45-8.45-0.7-0.71c-0.24-0.24-0.44-0.44-0.79-0.77-0.62-0.6-1.29-1.15-1.98-1.67-2.78-2.05-6.06-3.4-9.49-3.86-0.85-0.11-1.71-0.17-2.58-0.18l-2.04-0.01h-32.35l-0.43-0.01c-0.24 0-0.47-0.01-0.7-0.03-0.46-0.02-0.92-0.1-1.38-0.19-1.82-0.37-3.55-1.21-4.96-2.41-0.58-0.48-1.66-1.61-2.57-2.51l-2.81-2.82c-0.98-0.95-1.72-1.8-3.16-3.05-1.32-1.12-2.78-2.05-4.33-2.81-1.55-0.75-3.21-1.29-4.89-1.64-0.85-0.16-1.7-0.29-2.56-0.34-0.43-0.04-0.86-0.05-1.29-0.06l-1.04-0.01h-51.28z"/>
			<rect class="st2" x="1332.8" y="238" width="82.51" height="3.17"/>
			<path class="st2" d="m1424.8 253.86v-3.17h52.25c0.23 0.01 0.46 0.01 0.7 0.03 0.46 0.02 0.92 0.1 1.38 0.19 0.9 0.19 1.79 0.48 2.63 0.88 0.83 0.41 1.63 0.9 2.32 1.52 0.59 0.48 1.64 1.59 2.56 2.5l2.82 2.81c0.99 0.96 1.71 1.78 3.14 3.04 2.63 2.25 5.83 3.79 9.21 4.48 0.85 0.17 1.7 0.3 2.56 0.36 0.43 0.04 0.86 0.05 1.29 0.06l1.06 0.01h33.79c0.47 0.01 0.94 0.04 1.39 0.1 1.85 0.25 3.62 0.98 5.11 2.08 0.36 0.29 0.74 0.58 1.06 0.9 0.14 0.13 0.4 0.4 0.63 0.63l0.71 0.71 2.82 2.81 5.63 5.63 11.26 11.27 1.57 1.57 0.12 0.13 0.24 0.25c0.15 0.18 0.31 0.35 0.45 0.53 0.58 0.73 1.08 1.52 1.45 2.37 0.38 0.85 0.66 1.75 0.82 2.66 0.09 0.46 0.12 0.92 0.15 1.39l0.01 0.34 0.01 0.17v33.1h-3.17v-33.1l-0.01-0.12v-0.25c-0.02-0.33-0.05-0.66-0.11-0.98-0.11-0.66-0.31-1.29-0.59-1.9-0.26-0.61-0.63-1.17-1.03-1.7-0.1-0.13-0.22-0.25-0.33-0.38l-0.42-0.44-21.12-21.12-0.71-0.7c-0.22-0.23-0.51-0.52-0.58-0.58-0.24-0.24-0.5-0.44-0.76-0.64-1.07-0.79-2.33-1.31-3.65-1.48-0.33-0.05-0.66-0.07-0.99-0.08h-33.76l-1.1-0.01c-0.49-0.01-0.99-0.02-1.49-0.06-0.99-0.07-1.98-0.22-2.95-0.41-3.9-0.8-7.6-2.59-10.63-5.17-0.75-0.61-1.56-1.44-1.92-1.8l-4.23-4.23c-0.9-0.89-2.06-2.09-2.36-2.31-0.5-0.44-1.07-0.79-1.67-1.08-0.59-0.29-1.24-0.5-1.88-0.63-0.33-0.06-0.66-0.12-0.99-0.13-0.16-0.02-0.33-0.02-0.49-0.02h-52.2z"/>
			<rect class="st2" x="1332.8" y="250.69" width="82.51" height="3.17"/>
			<path class="st2" d="m1332.8 82.51v-3.17h80.74l0.75 0.02c0.98 0.03 1.98 0.13 2.95 0.29 1.96 0.32 3.88 0.86 5.7 1.65s3.54 1.79 5.1 3.01c0.79 0.59 1.52 1.26 2.24 1.95l70.06 70.06c0.29 0.27 0.49 0.47 0.77 0.67 0.52 0.41 1.09 0.75 1.69 1.02s1.25 0.45 1.9 0.56c0.71 0.12 1.04 0.11 2.65 0.11h33.22l0.75 0.02c0.98 0.04 1.98 0.13 2.95 0.29 1.95 0.33 3.87 0.87 5.69 1.67 1.82 0.79 3.54 1.8 5.09 3.02 0.79 0.6 1.52 1.27 2.23 1.96l1.4 1.4 11.21 11.2 11.2 11.21 11.21 11.2 11.2 11.21 11.21 11.2 11.2 11.21 1.4 1.4c0.25 0.22 0.48 0.45 0.75 0.65 0.52 0.41 1.09 0.75 1.7 1.01 0.6 0.27 1.25 0.45 1.9 0.56 0.33 0.05 0.65 0.09 0.98 0.1l0.25 0.01h33.1v3.17h-33.15l-0.35-0.01c-0.46-0.02-0.92-0.06-1.38-0.14-0.9-0.15-1.8-0.4-2.65-0.78-0.85-0.37-1.65-0.84-2.38-1.41-0.36-0.28-0.71-0.6-1.04-0.92l-1.4-1.4-11.2-11.21-11.21-11.2-11.2-11.21-11.21-11.2-11.2-11.21-11.21-11.2-1.4-1.4c-0.62-0.6-1.25-1.17-1.94-1.7-1.35-1.06-2.84-1.94-4.42-2.62-1.57-0.7-3.24-1.17-4.93-1.45-0.85-0.13-1.71-0.22-2.56-0.25l-0.64-0.02h-33.2c-1.49 0-2.22 0.02-3.17-0.15-0.91-0.16-1.8-0.41-2.65-0.79-0.85-0.36-1.65-0.85-2.37-1.42-0.37-0.29-0.69-0.59-1.05-0.93l-1.4-1.4-11.2-11.21-8.84-8.83-2.24-2.25-0.13-0.13-6.6-6.61-2.25-2.24-2.36-2.36-11.21-11.2-11.2-11.21-11.21-11.2-1.41-1.41c-0.62-0.6-1.25-1.18-1.94-1.7-1.36-1.06-2.86-1.93-4.43-2.61s-3.24-1.15-4.93-1.43c-0.85-0.13-1.71-0.22-2.56-0.25l-0.64-0.02h-80.73z"/>
			<path class="st2" d="m1332.8 95.2v-3.17h80.71l0.35 0.01c0.46 0.02 0.92 0.06 1.38 0.13 0.9 0.15 1.81 0.4 2.65 0.77 0.85 0.37 1.66 0.83 2.39 1.4 0.36 0.28 0.71 0.6 1.04 0.91l1.4 1.39 11.2 11.21 11.21 11.2 11.2 11.21 2.36 2.36 2.24 2.25 6.61 6.6 0.13 0.13 2.25 2.24 8.83 8.84 11.21 11.2 1.4 1.4c0.59 0.57 1.24 1.17 1.92 1.69 1.35 1.06 2.83 1.95 4.4 2.64s3.23 1.18 4.93 1.46c1.66 0.32 3.59 0.29 4.73 0.29h33.15l0.35 0.01c0.46 0.02 0.92 0.06 1.38 0.14 0.91 0.15 1.81 0.4 2.65 0.78 0.85 0.36 1.65 0.84 2.38 1.41 0.37 0.28 0.71 0.6 1.04 0.91l1.4 1.4 11.2 11.21 11.21 11.2 11.2 11.21 11.21 11.2 11.2 11.21 11.21 11.2 1.4 1.4c0.62 0.59 1.25 1.17 1.94 1.7 1.35 1.06 2.84 1.94 4.41 2.63s3.24 1.17 4.93 1.45c0.85 0.13 1.71 0.22 2.56 0.25l0.64 0.02h33.19v3.17h-33.22l-0.74-0.02c-0.99-0.04-1.98-0.13-2.96-0.3-1.95-0.32-3.87-0.87-5.69-1.67-1.81-0.79-3.53-1.8-5.09-3.02-0.79-0.6-1.52-1.28-2.22-1.96l-1.4-1.4-11.21-11.2-11.2-11.21-11.21-11.2-11.2-11.21-11.21-11.2-11.2-11.21-1.4-1.4c-0.25-0.23-0.48-0.46-0.75-0.65-0.52-0.41-1.09-0.75-1.7-1.01-0.6-0.28-1.25-0.45-1.9-0.56-0.33-0.05-0.66-0.09-0.98-0.1l-0.25-0.01h-33.14c-0.71-0.01-1.16 0.02-2.3-0.02-0.98-0.04-1.98-0.13-2.95-0.3-1.95-0.33-3.87-0.89-5.68-1.69-1.82-0.79-3.53-1.82-5.09-3.05-0.78-0.59-1.54-1.29-2.21-1.95l-68.63-68.63-1.39-1.38c-0.24-0.23-0.48-0.46-0.75-0.65-0.52-0.41-1.09-0.74-1.7-1.01-0.6-0.27-1.25-0.44-1.9-0.55-0.33-0.05-0.66-0.09-0.98-0.1l-0.25-0.01h-80.69z"/>
			<path class="st2" d="m1476.6 137.11-2.24-2.25 1.82-1.82 0.41-0.42 5.26-5.25 0.36-0.36 0.25-0.24c0.16-0.17 0.35-0.31 0.52-0.47 0.36-0.29 0.74-0.58 1.13-0.83 0.79-0.5 1.65-0.9 2.54-1.18 0.89-0.3 1.82-0.45 2.75-0.52 0.25-0.02 0.44-0.02 0.73-0.02h113.35c0.29 0 0.77-0.01 1.2-0.02 0.44-0.02 0.87-0.05 1.3-0.09 3.46-0.36 6.82-1.61 9.67-3.62 0.72-0.48 1.39-1.05 2.04-1.62l0.48-0.45 0.41-0.4 9.22-9.22 11.34-11.35 1.42-1.42 0.34-0.33 0.25-0.24c0.17-0.17 0.35-0.31 0.52-0.47 0.73-0.58 1.52-1.09 2.38-1.48 0.85-0.39 1.75-0.68 2.67-0.84 0.46-0.1 0.93-0.13 1.39-0.17l0.75-0.02h17.1v3.17h-17.06l-0.59 0.01c-0.33 0.03-0.67 0.06-0.99 0.12-0.66 0.11-1.3 0.33-1.91 0.6-0.61 0.28-1.17 0.64-1.7 1.06-0.12 0.12-0.25 0.21-0.37 0.33l-0.18 0.17-0.33 0.32-1.42 1.42-11.34 11.35-5.68 5.67-3.55 3.55-0.45 0.44-0.55 0.52c-0.75 0.67-1.52 1.31-2.36 1.87-3.28 2.31-7.16 3.75-11.15 4.16-0.5 0.05-1 0.1-1.5 0.11-0.49 0.02-1.07 0.02-1.33 0.02h-113.35c-0.25 0.01-0.36 0.01-0.55 0.02-0.67 0.05-1.32 0.15-1.96 0.36s-1.25 0.49-1.82 0.85c-0.29 0.17-0.55 0.38-0.81 0.59-0.13 0.12-0.26 0.21-0.37 0.33l-0.19 0.17-7.85 7.89z"/>
			<path class="st2" d="m1424.8 333.2v-128.4l0.01-15.96c0.02-1.87 0.55-3.74 1.49-5.35 0.46-0.82 1.04-1.55 1.69-2.23l2.81-2.82 11.35-11.34 11.34-11.35 11.35-11.34 0.55-0.56 2.25-2.24 2.25 2.24-14.15 14.15-11.34 11.35-11.35 11.34-2.79 2.79c-0.46 0.48-0.88 1.01-1.21 1.59-0.67 1.16-1.05 2.48-1.06 3.82l-0.01 15.91v128.4h-3.18z"/>
			<path class="st2" d="m1467.7 128.13-2.25-2.24 7.51-7.51 0.35-0.36 0.55-0.52c0.36-0.35 0.75-0.67 1.13-1 0.78-0.63 1.59-1.23 2.44-1.76 1.69-1.08 3.53-1.93 5.43-2.55 1.91-0.62 3.9-0.98 5.9-1.1 0.48-0.02 1.05-0.03 1.47-0.04h113.35l0.68-0.01c0.17-0.01 0.33-0.02 0.5-0.04 1.32-0.14 2.63-0.61 3.71-1.39 0.28-0.18 0.53-0.4 0.79-0.62l0.44-0.43 3.54-3.54 5.67-5.68 11.35-11.34 1.81-1.81 0.55-0.52c0.36-0.35 0.75-0.67 1.13-0.99 1.56-1.26 3.28-2.34 5.1-3.17 1.82-0.84 3.74-1.46 5.72-1.81 0.99-0.18 1.99-0.29 2.99-0.35l0.75-0.02 0.66-0.01h17.06v3.17h-17.06l-0.59 0.01-0.65 0.02c-0.87 0.06-1.74 0.13-2.59 0.3-1.71 0.3-3.38 0.84-4.96 1.56s-3.06 1.66-4.42 2.75c-0.33 0.28-0.67 0.56-0.98 0.86l-0.48 0.45-1.79 1.79-11.35 11.34-9.39 9.39-0.13 0.12-0.25 0.25c-0.36 0.31-0.71 0.61-1.1 0.87-1.52 1.08-3.34 1.75-5.2 1.94-0.23 0.02-0.46 0.04-0.7 0.05s-0.43 0.02-0.81 0.02h-113.35c-0.39 0.01-0.86 0.01-1.29 0.04-1.73 0.1-3.46 0.41-5.11 0.95-1.66 0.53-3.24 1.27-4.71 2.21-0.74 0.46-1.44 0.98-2.11 1.53-0.33 0.29-0.67 0.56-0.98 0.86l-0.48 0.44-0.36 0.36-5.26 5.25-0.41 0.42-1.82 1.86z"/>
			<path class="st2" d="m1412.1 333.2v-128.4l0.01-16.2c0.06-4.01 1.18-8 3.19-11.47 1-1.75 2.24-3.34 3.64-4.78l2.88-2.89 11.34-11.35 11.35-11.34 14.15-14.15 2.24 2.25-2.25 2.24-0.55 0.56-11.34 11.35-11.35 11.34-11.34 11.35-2.86 2.86c-1.21 1.25-2.29 2.63-3.15 4.14-1.75 3.01-2.71 6.47-2.77 9.94l-0.01 16.14v128.4h-3.18z"/>
		<path class="st2" d="m1412.1 33.22c0.01 0.97 0.06 1.95 0.2 2.92 0.24 1.94 0.74 3.84 1.45 5.66s1.65 3.54 2.78 5.13c0.56 0.8 1.18 1.55 1.84 2.27 0.76 0.82 1.12 1.15 1.6 1.63l37.26 37.26 0.45 0.44 0.53 0.5c0.37 0.32 0.73 0.65 1.12 0.95 3.05 2.44 6.7 4.12 10.54 4.82 0.96 0.18 1.93 0.29 2.9 0.36 0.48 0.03 0.99 0.04 1.45 0.05h34.15l0.59-0.01 0.73-0.02c0.49-0.02 0.97-0.06 1.46-0.11 3.88-0.41 7.66-1.79 10.88-3.99 0.8-0.55 1.58-1.14 2.31-1.79 0.37-0.31 0.72-0.66 1.07-1l54.19-54.19 0.48-0.5c0.68-0.7 1.29-1.46 1.88-2.24 1.15-1.57 2.12-3.28 2.87-5.09 0.74-1.81 1.26-3.7 1.54-5.63 0.13-0.97 0.23-1.94 0.24-2.92 0.01-0.56 0.01-0.8 0.01-1.14v-16.58h-3.17v16.59c0 0.33 0 0.61-0.01 1.08-0.01 0.85-0.09 1.69-0.21 2.53-0.24 1.67-0.7 3.32-1.34 4.88-0.65 1.56-1.48 3.05-2.48 4.41-0.51 0.67-1.04 1.33-1.63 1.94l-0.42 0.44-54.17 54.17c-0.31 0.29-0.6 0.59-0.93 0.86-0.63 0.56-1.31 1.07-2 1.55-2.8 1.91-6.07 3.1-9.43 3.46-0.42 0.04-0.84 0.07-1.26 0.09-0.4 0.01-0.9 0.03-1.18 0.02h-34.15c-0.41-0.01-0.84-0.01-1.26-0.04-0.84-0.05-1.69-0.15-2.52-0.31-3.33-0.61-6.49-2.06-9.13-4.18-0.33-0.26-0.65-0.54-0.97-0.82l-0.46-0.44-0.41-0.4-37.26-37.26c-0.8-0.79-2.17-2.14-3.1-3.51-0.98-1.38-1.8-2.87-2.41-4.45-0.62-1.57-1.05-3.22-1.26-4.9-0.12-0.84-0.16-1.68-0.17-2.53v-1.98-31.2h-3.17v31.22l-0.02 2z"/>
		<path class="st2" d="m1424.9 34.51c0.11 0.9 0.34 1.79 0.68 2.64 0.33 0.85 0.77 1.65 1.3 2.39 0.55 0.79 1.04 1.27 2.09 2.31l37.26 37.26 0.54 0.52c0.18 0.14 0.34 0.3 0.52 0.44 1.42 1.14 3.13 1.92 4.92 2.25 0.45 0.09 0.9 0.14 1.35 0.17 0.23 0.02 0.45 0.01 0.69 0.02h34.15c0.37 0 0.52-0.01 0.77-0.01l0.68-0.05c1.81-0.19 3.57-0.84 5.08-1.86 0.37-0.26 0.74-0.53 1.08-0.84 0.18-0.14 0.33-0.31 0.5-0.46l53.81-53.81 0.35-0.34 0.25-0.26c0.32-0.33 0.6-0.68 0.88-1.04 0.54-0.74 0.99-1.53 1.34-2.37 0.34-0.84 0.59-1.73 0.72-2.63 0.06-0.45 0.11-0.9 0.11-1.36 0.01-0.18 0.01-0.56 0.01-0.88v-16.6h-3.17v16.59c0 0.31 0 0.72-0.01 0.81 0 0.33-0.04 0.65-0.08 0.97-0.09 0.64-0.27 1.27-0.51 1.88-0.25 0.6-0.57 1.17-0.95 1.7-0.2 0.25-0.4 0.51-0.63 0.74l-0.19 0.2-12.07 12.07-11.08 11.04-31.03 31.03c-0.12 0.11-0.23 0.23-0.36 0.33-0.24 0.22-0.5 0.41-0.77 0.6-1.08 0.73-2.33 1.19-3.63 1.33l-0.49 0.04-0.24 0.01h-0.14-34.39c-0.19-0.01-0.33 0-0.5-0.02-0.32-0.02-0.65-0.06-0.97-0.12-1.28-0.23-2.5-0.79-3.51-1.61-0.13-0.1-0.25-0.21-0.37-0.31l-0.42-0.41-37.26-37.26c-1.13-1.12-1.32-1.31-1.75-1.91-0.38-0.53-0.7-1.1-0.93-1.71-0.24-0.61-0.41-1.24-0.48-1.88-0.05-0.32-0.06-0.65-0.07-0.97v-1.91-31.23h-3.17v31.22 1.93c0.01 0.46 0.02 0.91 0.09 1.36z"/>
			<path class="st3" d="m1395.9 229.4h7.93l-3.97-3.97h-7.93c0 0.01 2.42 2.42 3.97 3.97z"/>
			<path class="st3" d="m1383.5 229.4h7.93l-3.97-3.97h-7.93c0 0.01 2.42 2.42 3.97 3.97z"/>
			<path class="st3" d="m1371 229.4h7.93l-3.97-3.97h-7.93c0 0.01 2.42 2.42 3.97 3.97z"/>
			<path class="st3" d="m1358.6 229.4h7.93l-3.97-3.97h-7.93l3.97 3.97z"/>
			<path class="st3" d="m1346.2 229.4h7.93l-3.97-3.97h-7.93l3.97 3.97z"/>
			<path class="st3" d="m1587.4 102.34h7.93l-3.97-3.97h-7.93c0.01 0 2.42 2.42 3.97 3.97z"/>
			<path class="st3" d="m1574.9 102.34h7.93l-3.97-3.97h-7.93c0.01 0 2.42 2.42 3.97 3.97z"/>
			<path class="st3" d="m1562.5 102.34h7.93l-3.97-3.97h-7.93c0.01 0 2.43 2.42 3.97 3.97z"/>
			<path class="st3" d="m1550.1 102.34h7.93l-3.97-3.97h-7.93l3.97 3.97z"/>
			<path class="st3" d="m1537.6 102.34h7.93l-3.97-3.97h-7.93l3.97 3.97z"/>
			<path class="st3" d="m1592.6 321.21v7.93l3.97-3.97v-7.93c0 0.01-2.42 2.43-3.97 3.97z"/>
			<path class="st3" d="m1592.6 308.79v7.93l3.97-3.97v-7.93l-3.97 3.97z"/>
			<path class="st3" d="m1592.6 296.36v7.93l3.97-3.97v-7.93l-3.97 3.97z"/>
			<path class="st3" d="m1401.8 32.87v7.93l3.97-3.97v-7.93c0 0.01-2.42 2.42-3.97 3.97z"/>
			<path class="st3" d="m1401.8 20.45v7.93l3.97-3.97v-7.93l-3.97 3.97z"/>
			<path class="st3" d="m1401.8 8.02v7.93l3.97-3.97v-7.93l-3.97 3.97z"/>
	<rect class="st0" x="1666" width="333.2" height="333.2"/>
	<polygon class="st1" points="1999.2 333.2 1666 0 1999.2 0"/>
			<path class="st2" d="m1907.2 92.03v3.17h-51.3l-1.07-0.01c-0.5-0.01-1-0.02-1.49-0.06-0.99-0.06-1.98-0.21-2.96-0.4-1.95-0.4-3.86-1.03-5.65-1.9-1.78-0.87-3.48-1.95-5-3.24-0.73-0.6-1.58-1.46-1.94-1.82l-4.22-4.22c-0.88-0.87-2.09-2.11-2.38-2.33-1.01-0.86-2.25-1.46-3.54-1.73-0.33-0.06-0.66-0.11-0.98-0.13-0.17-0.02-0.33-0.02-0.5-0.02l-0.14-0.01h-32.6l-2.07-0.01c-1-0.01-1.99-0.08-2.98-0.21-3.94-0.53-7.74-2.09-10.94-4.46-0.79-0.6-1.57-1.24-2.28-1.93-0.41-0.4-0.59-0.58-0.83-0.82l-0.7-0.71-21.12-21.12-0.44-0.45-0.52-0.54c-0.33-0.37-0.66-0.75-0.97-1.13-1.24-1.56-2.29-3.27-3.1-5.09-0.82-1.81-1.41-3.73-1.75-5.69-0.17-0.98-0.27-1.98-0.33-2.97l-0.02-0.75-0.01-0.63v-32.82h3.17v32.84l0.01 0.57 0.02 0.65c0.05 0.86 0.13 1.72 0.29 2.57 0.29 1.7 0.81 3.36 1.52 4.93 0.71 1.58 1.62 3.05 2.7 4.4 0.26 0.34 0.56 0.66 0.83 0.98l0.44 0.47 0.4 0.42 1.4 1.4 11.27 11.26 8.45 8.45 0.7 0.71c0.24 0.24 0.44 0.44 0.79 0.77 0.62 0.6 1.29 1.15 1.98 1.67 2.78 2.05 6.06 3.4 9.49 3.86 0.85 0.11 1.71 0.17 2.58 0.18l2.04 0.01h32.35l0.43 0.01c0.24 0 0.47 0.01 0.7 0.03 0.46 0.02 0.92 0.1 1.38 0.19 1.82 0.37 3.55 1.21 4.96 2.41 0.58 0.48 1.66 1.61 2.57 2.51l2.81 2.82c0.98 0.95 1.72 1.8 3.16 3.05 1.32 1.12 2.78 2.05 4.33 2.81 1.55 0.75 3.21 1.29 4.89 1.64 0.85 0.16 1.7 0.29 2.56 0.34 0.43 0.04 0.86 0.05 1.29 0.06l1.04 0.01h51.28z"/>
			<rect class="st2" x="1916.7" y="92.03" width="82.51" height="3.17"/>
			<path class="st2" d="m1907.2 79.33v3.17h-52.25c-0.23-0.01-0.46-0.01-0.7-0.03-0.46-0.02-0.92-0.1-1.38-0.19-0.9-0.19-1.79-0.48-2.63-0.88-0.83-0.41-1.63-0.9-2.32-1.52-0.59-0.48-1.64-1.59-2.56-2.5l-2.82-2.81c-0.99-0.96-1.71-1.78-3.14-3.04-2.63-2.25-5.83-3.79-9.21-4.48-0.85-0.17-1.7-0.3-2.56-0.36-0.43-0.04-0.86-0.05-1.29-0.06l-1.06-0.01h-33.79c-0.47-0.01-0.94-0.04-1.39-0.1-1.85-0.25-3.62-0.98-5.11-2.08-0.36-0.29-0.74-0.58-1.06-0.9-0.14-0.13-0.4-0.4-0.63-0.63l-0.71-0.71-2.82-2.81-5.63-5.63-11.26-11.27-1.57-1.57-0.12-0.13-0.24-0.25c-0.15-0.18-0.31-0.35-0.45-0.53-0.58-0.73-1.08-1.52-1.45-2.37-0.38-0.85-0.66-1.75-0.82-2.66-0.09-0.46-0.12-0.92-0.15-1.39l-0.01-0.34-0.01-0.17v-33.08h3.17v33.1l0.01 0.12v0.25c0.02 0.33 0.05 0.66 0.11 0.98 0.11 0.66 0.31 1.29 0.59 1.9 0.26 0.61 0.63 1.17 1.03 1.7 0.1 0.13 0.22 0.25 0.33 0.38l0.42 0.44 21.12 21.12 0.71 0.7c0.22 0.23 0.51 0.52 0.58 0.58 0.24 0.24 0.5 0.44 0.76 0.64 1.07 0.79 2.33 1.31 3.65 1.48 0.33 0.05 0.66 0.07 0.99 0.08h33.76l1.1 0.01c0.49 0.01 0.99 0.02 1.49 0.06 0.99 0.07 1.98 0.22 2.95 0.41 3.9 0.8 7.6 2.59 10.63 5.17 0.75 0.61 1.56 1.44 1.92 1.8l4.23 4.23c0.9 0.89 2.06 2.09 2.36 2.31 0.5 0.44 1.07 0.79 1.67 1.08 0.59 0.29 1.24 0.5 1.88 0.63 0.33 0.06 0.66 0.12 0.99 0.13 0.16 0.02 0.33 0.02 0.49 0.02h52.2z"/>
			<rect class="st2" x="1916.7" y="79.33" width="82.51" height="3.17"/>
			<path class="st2" d="m1999.2 250.69v3.17h-80.74l-0.75-0.02c-0.98-0.03-1.98-0.13-2.95-0.29-1.96-0.32-3.88-0.86-5.7-1.65s-3.54-1.79-5.1-3.01c-0.79-0.6-1.52-1.26-2.24-1.95l-70.06-70.06c-0.29-0.27-0.49-0.47-0.77-0.67-0.52-0.41-1.09-0.75-1.69-1.02s-1.25-0.45-1.9-0.56c-0.71-0.12-1.04-0.11-2.65-0.11h-33.22l-0.75-0.02c-0.98-0.04-1.98-0.13-2.95-0.29-1.95-0.33-3.87-0.87-5.69-1.67-1.82-0.79-3.54-1.8-5.09-3.02-0.79-0.6-1.52-1.27-2.23-1.96l-1.4-1.4-11.21-11.2-11.2-11.21-11.21-11.2-11.2-11.21-11.21-11.2-11.2-11.21-1.4-1.4c-0.25-0.22-0.48-0.45-0.75-0.65-0.52-0.41-1.09-0.75-1.7-1.01-0.6-0.27-1.25-0.45-1.9-0.56-0.33-0.05-0.65-0.09-0.98-0.1l-0.25-0.01h-33.11v-3.17h33.15l0.35 0.01c0.46 0.02 0.92 0.06 1.38 0.14 0.9 0.15 1.8 0.4 2.65 0.78 0.85 0.37 1.65 0.84 2.38 1.41 0.36 0.28 0.71 0.59 1.04 0.92l1.4 1.4 11.2 11.21 11.21 11.2 11.2 11.21 11.21 11.2 11.2 11.21 11.21 11.2 1.4 1.4c0.62 0.59 1.25 1.17 1.94 1.7 1.35 1.06 2.84 1.94 4.42 2.62 1.57 0.7 3.24 1.17 4.93 1.45 0.85 0.13 1.71 0.22 2.56 0.25l0.64 0.02h33.2c1.49 0 2.22-0.02 3.17 0.15 0.91 0.16 1.8 0.41 2.65 0.79 0.85 0.36 1.65 0.85 2.37 1.42 0.37 0.29 0.69 0.59 1.05 0.93l1.4 1.4 11.2 11.21 8.84 8.83 2.24 2.25 0.13 0.13 6.6 6.61 2.25 2.24 2.36 2.36 11.21 11.2 11.2 11.21 11.21 11.2 1.41 1.41c0.62 0.6 1.25 1.18 1.94 1.7 1.36 1.06 2.86 1.93 4.43 2.61s3.24 1.15 4.93 1.43c0.85 0.13 1.71 0.22 2.56 0.25l0.64 0.02h80.74z"/>
			<path class="st2" d="m1999.2 238v3.17h-80.71l-0.35-0.01c-0.46-0.02-0.92-0.06-1.38-0.13-0.9-0.15-1.81-0.4-2.65-0.77-0.85-0.37-1.66-0.83-2.39-1.4-0.36-0.28-0.71-0.6-1.04-0.91l-1.4-1.39-11.2-11.21-11.21-11.2-11.2-11.21-2.36-2.36-2.24-2.25-6.61-6.6-0.13-0.13-2.25-2.24-8.83-8.84-11.21-11.2-1.4-1.4c-0.59-0.57-1.24-1.17-1.92-1.69-1.35-1.06-2.83-1.95-4.4-2.64s-3.23-1.18-4.93-1.46c-1.66-0.32-3.59-0.29-4.73-0.29h-33.15l-0.35-0.01c-0.46-0.02-0.92-0.06-1.38-0.14-0.91-0.15-1.81-0.4-2.65-0.78-0.85-0.36-1.65-0.84-2.38-1.41-0.37-0.28-0.71-0.59-1.04-0.91l-1.4-1.4-11.2-11.21-11.21-11.2-11.2-11.21-11.21-11.2-11.2-11.21-11.21-11.2-1.4-1.4c-0.62-0.59-1.25-1.17-1.94-1.7-1.35-1.06-2.84-1.94-4.41-2.63s-3.24-1.17-4.93-1.45c-0.85-0.13-1.71-0.22-2.56-0.25l-0.64-0.02h-33.2v-3.17h33.22l0.74 0.02c0.99 0.04 1.98 0.13 2.96 0.3 1.95 0.32 3.87 0.87 5.69 1.67 1.81 0.79 3.53 1.8 5.09 3.02 0.79 0.6 1.52 1.28 2.22 1.96l1.4 1.4 11.21 11.2 11.2 11.21 11.21 11.2 11.2 11.21 11.21 11.2 11.2 11.21 1.4 1.4c0.25 0.23 0.48 0.46 0.75 0.65 0.52 0.41 1.09 0.75 1.7 1.01 0.6 0.28 1.25 0.45 1.9 0.56 0.33 0.05 0.66 0.09 0.98 0.1l0.25 0.01h33.14c0.71 0.01 1.16-0.02 2.3 0.02 0.98 0.04 1.98 0.13 2.95 0.3 1.95 0.33 3.87 0.89 5.68 1.69 1.82 0.79 3.53 1.82 5.09 3.05 0.78 0.6 1.54 1.29 2.21 1.95l68.63 68.63 1.39 1.38c0.24 0.23 0.48 0.46 0.75 0.65 0.52 0.41 1.09 0.74 1.7 1.01 0.6 0.27 1.25 0.44 1.9 0.55 0.33 0.05 0.66 0.09 0.98 0.1l0.25 0.01h80.7z"/>
			<path class="st2" d="m1855.4 196.09 2.24 2.25-1.82 1.82-0.41 0.42-5.26 5.25-0.36 0.36-0.25 0.24c-0.16 0.17-0.35 0.31-0.52 0.47-0.36 0.29-0.74 0.58-1.13 0.83-0.79 0.5-1.65 0.9-2.54 1.18-0.89 0.3-1.82 0.45-2.75 0.52-0.25 0.02-0.44 0.02-0.73 0.02h-113.35c-0.29 0-0.77 0.01-1.2 0.02-0.44 0.02-0.87 0.05-1.3 0.09-3.46 0.36-6.82 1.61-9.67 3.62-0.72 0.48-1.39 1.05-2.04 1.62l-0.48 0.45-0.41 0.4-9.22 9.22-11.34 11.35-1.42 1.42-0.34 0.33-0.25 0.24c-0.17 0.17-0.35 0.31-0.52 0.47-0.73 0.58-1.52 1.09-2.38 1.48-0.85 0.39-1.75 0.68-2.67 0.84-0.46 0.1-0.93 0.13-1.39 0.17l-0.75 0.02h-17.1v-3.19h17.06l0.59-0.01c0.33-0.03 0.67-0.06 0.99-0.12 0.66-0.11 1.3-0.33 1.91-0.6 0.61-0.28 1.17-0.64 1.7-1.06 0.12-0.12 0.25-0.21 0.37-0.33l0.18-0.17 0.33-0.32 1.42-1.42 11.34-11.35 5.68-5.67 3.55-3.55 0.45-0.44 0.55-0.52c0.75-0.67 1.52-1.31 2.36-1.87 3.28-2.31 7.16-3.75 11.15-4.16 0.5-0.05 1-0.1 1.5-0.11 0.49-0.02 1.07-0.02 1.33-0.02h113.35c0.25-0.01 0.36-0.01 0.55-0.02 0.67-0.05 1.32-0.15 1.96-0.36s1.25-0.49 1.82-0.85c0.29-0.17 0.55-0.38 0.81-0.59 0.13-0.12 0.26-0.21 0.37-0.33l0.19-0.17 7.85-7.87z"/>
			<path class="st2" d="m1907.2 0v128.4l-0.01 15.96c-0.02 1.87-0.55 3.74-1.49 5.35-0.46 0.82-1.04 1.55-1.69 2.23l-2.81 2.82-11.35 11.34-11.34 11.35-11.35 11.34-0.55 0.56-2.25 2.24-2.25-2.24 14.15-14.15 11.34-11.35 11.35-11.34 2.79-2.79c0.46-0.48 0.88-1.01 1.21-1.59 0.67-1.16 1.05-2.48 1.06-3.82l0.01-15.91v-128.4h3.18z"/>
			<path class="st2" d="m1864.3 205.07 2.25 2.24-7.51 7.51-0.35 0.36-0.55 0.52c-0.36 0.35-0.75 0.67-1.13 1-0.78 0.63-1.59 1.23-2.44 1.76-1.69 1.08-3.53 1.93-5.43 2.55-1.91 0.62-3.9 0.98-5.9 1.1-0.48 0.02-1.05 0.03-1.47 0.04h-113.35l-0.68 0.01c-0.17 0.01-0.33 0.02-0.5 0.04-1.32 0.14-2.63 0.61-3.71 1.39-0.28 0.18-0.53 0.4-0.79 0.62l-0.44 0.43-3.54 3.54-5.67 5.68-11.35 11.34-1.81 1.81-0.55 0.52c-0.36 0.35-0.75 0.67-1.13 0.99-1.56 1.26-3.28 2.34-5.1 3.17-1.82 0.84-3.74 1.46-5.72 1.81-0.99 0.18-1.99 0.29-2.99 0.35l-0.75 0.02-0.66 0.01h-17.07v-3.17h17.06l0.6-0.01 0.65-0.02c0.87-0.06 1.74-0.13 2.59-0.3 1.71-0.3 3.38-0.84 4.96-1.56s3.06-1.66 4.42-2.75c0.33-0.28 0.67-0.56 0.98-0.86l0.48-0.45 1.79-1.79 11.35-11.34 9.39-9.39 0.13-0.12 0.25-0.25c0.36-0.31 0.71-0.61 1.1-0.87 1.52-1.08 3.34-1.75 5.2-1.94 0.23-0.02 0.46-0.04 0.7-0.05s0.43-0.02 0.81-0.02h113.35c0.39-0.01 0.86-0.01 1.29-0.04 1.73-0.1 3.46-0.41 5.11-0.95 1.66-0.53 3.24-1.27 4.71-2.21 0.74-0.46 1.44-0.98 2.11-1.53 0.33-0.29 0.67-0.56 0.98-0.86l0.48-0.44 0.36-0.36 5.26-5.25 0.41-0.42 1.82-1.86z"/>
			<path class="st2" d="m1919.9 0v128.4l-0.01 16.2c-0.06 4.01-1.18 8-3.19 11.47-1 1.75-2.24 3.34-3.64 4.78l-2.88 2.89-11.34 11.35-11.35 11.34-14.15 14.15-2.24-2.25 2.25-2.24 0.55-0.56 11.34-11.35 11.35-11.34 11.34-11.35 2.86-2.86c1.21-1.25 2.29-2.63 3.15-4.14 1.75-3.01 2.71-6.47 2.77-9.94l0.01-16.14v-128.41h3.18z"/>
		<path class="st2" d="m1919.9 299.98c-0.01-0.97-0.06-1.95-0.2-2.92-0.24-1.94-0.74-3.84-1.45-5.66s-1.65-3.54-2.78-5.13c-0.56-0.8-1.18-1.55-1.84-2.27-0.76-0.82-1.12-1.15-1.6-1.63l-37.26-37.26-0.45-0.44-0.53-0.5c-0.37-0.32-0.73-0.65-1.12-0.95-3.05-2.44-6.7-4.12-10.54-4.82-0.96-0.18-1.93-0.29-2.9-0.36-0.48-0.03-0.99-0.04-1.45-0.05h-34.15l-0.6 0.01-0.73 0.02c-0.49 0.02-0.97 0.06-1.46 0.11-3.88 0.41-7.66 1.79-10.88 3.99-0.8 0.55-1.58 1.14-2.31 1.79-0.37 0.31-0.72 0.66-1.07 1l-54.19 54.19-0.48 0.5c-0.68 0.7-1.29 1.46-1.88 2.24-1.15 1.57-2.12 3.28-2.87 5.09-0.74 1.81-1.26 3.7-1.54 5.63-0.13 0.97-0.23 1.94-0.24 2.92-0.01 0.56-0.01 0.8-0.01 1.14v16.59h3.17v-16.59c0-0.33 0-0.61 0.01-1.08 0.01-0.85 0.09-1.69 0.21-2.53 0.24-1.67 0.7-3.32 1.34-4.88 0.65-1.56 1.48-3.05 2.48-4.41 0.51-0.67 1.04-1.33 1.63-1.94l0.42-0.44 0.34-0.35 53.83-53.83c0.31-0.29 0.6-0.59 0.93-0.86 0.63-0.56 1.31-1.07 2-1.55 2.8-1.91 6.07-3.1 9.43-3.46 0.42-0.04 0.84-0.07 1.26-0.09 0.4-0.01 0.9-0.03 1.18-0.02h34.15c0.41 0.01 0.84 0.01 1.26 0.04 0.84 0.05 1.69 0.15 2.52 0.31 3.33 0.61 6.49 2.06 9.13 4.18 0.33 0.26 0.65 0.54 0.97 0.82l0.46 0.44 0.41 0.4 37.26 37.26c0.8 0.79 2.17 2.14 3.1 3.51 0.98 1.38 1.8 2.87 2.41 4.45 0.62 1.57 1.05 3.22 1.26 4.9 0.12 0.84 0.16 1.68 0.17 2.53v1.98 31.22h3.17v-31.22l0.03-2.02z"/>
		<path class="st2" d="m1907.1 298.69c-0.11-0.9-0.34-1.79-0.68-2.64-0.33-0.85-0.77-1.65-1.3-2.39-0.55-0.79-1.04-1.27-2.09-2.31l-37.26-37.26-0.54-0.52c-0.18-0.14-0.34-0.3-0.52-0.44-1.42-1.14-3.13-1.92-4.92-2.25-0.45-0.09-0.9-0.14-1.35-0.17-0.23-0.02-0.45-0.01-0.69-0.02h-34.15c-0.37 0-0.52 0.01-0.77 0.01l-0.68 0.05c-1.81 0.19-3.57 0.84-5.08 1.86-0.37 0.26-0.74 0.53-1.08 0.84-0.18 0.14-0.33 0.31-0.5 0.46l-53.81 53.81-0.34 0.35-0.25 0.26c-0.32 0.33-0.6 0.68-0.88 1.04-0.54 0.74-0.99 1.53-1.34 2.37-0.34 0.84-0.59 1.73-0.72 2.63-0.06 0.45-0.11 0.9-0.11 1.36-0.01 0.18-0.01 0.56-0.01 0.88v16.59h3.17v-16.59c0-0.31 0-0.72 0.01-0.81 0-0.33 0.04-0.65 0.08-0.97 0.09-0.64 0.27-1.27 0.51-1.88 0.25-0.6 0.57-1.17 0.96-1.7 0.2-0.25 0.4-0.51 0.63-0.74l0.19-0.2 0.34-0.35 53.8-53.8c0.12-0.11 0.23-0.23 0.36-0.33 0.24-0.22 0.5-0.41 0.77-0.6 1.08-0.73 2.33-1.19 3.63-1.33l0.49-0.04 0.24-0.01h0.14 34.39c0.19 0.01 0.33 0 0.5 0.02 0.32 0.02 0.65 0.06 0.97 0.12 1.28 0.23 2.5 0.79 3.51 1.61 0.13 0.1 0.25 0.21 0.37 0.31l0.42 0.41 37.26 37.26c1.13 1.12 1.32 1.31 1.75 1.91 0.38 0.53 0.7 1.1 0.93 1.71 0.24 0.61 0.41 1.24 0.48 1.88 0.05 0.32 0.06 0.65 0.07 0.97v1.91 31.22h3.17v-31.22-1.93c0.01-0.44 0-0.89-0.07-1.34z"/>
			<path class="st3" d="m1936.1 103.79h-7.93l3.97 3.97h7.93l-3.97-3.97z"/>
			<path class="st3" d="m1948.5 103.79h-7.93l3.97 3.97h7.93c-0.01 0-2.42-2.42-3.97-3.97z"/>
			<path class="st3" d="m1961 103.79h-7.93l3.97 3.97h7.93c-0.01 0-2.42-2.42-3.97-3.97z"/>
			<path class="st3" d="m1973.4 103.79h-7.93l3.97 3.97h7.93c-0.01 0-2.43-2.42-3.97-3.97z"/>
			<path class="st3" d="m1985.8 103.79h-7.93l3.97 3.97h7.93l-3.97-3.97z"/>
			<path class="st3" d="m1744.6 230.86h-7.93l3.97 3.97h7.93c-0.01 0-2.43-2.42-3.97-3.97z"/>
			<path class="st3" d="m1757.1 230.86h-7.93l3.97 3.97h7.93l-3.97-3.97z"/>
			<path class="st3" d="m1769.5 230.86h-7.93l3.97 3.97h7.93l-3.97-3.97z"/>
			<path class="st3" d="m1781.9 230.86h-7.93l3.97 3.97h7.93l-3.97-3.97z"/>
			<path class="st3" d="m1794.4 230.86h-7.93l3.97 3.97h7.93l-3.97-3.97z"/>
			<path class="st3" d="m1739.4 11.98v-7.93l-3.97 3.97v7.93c0.01 0 2.42-2.42 3.97-3.97z"/>
			<path class="st3" d="m1739.4 24.41v-7.93l-3.97 3.97v7.93c0.01 0 2.42-2.42 3.97-3.97z"/>
			<path class="st3" d="m1739.4 36.84v-7.93l-3.97 3.97v7.93c0.01 0 2.42-2.42 3.97-3.97z"/>
			<path class="st3" d="m1930.2 300.32v-7.93l-3.97 3.97v7.93l3.97-3.97z"/>
			<path class="st3" d="m1930.2 312.75v-7.93l-3.97 3.97v7.93l3.97-3.97z"/>
			<path class="st3" d="m1930.2 325.18v-7.93l-3.97 3.97v7.93l3.97-3.97z"/>
<polygon class="st1" points="1999.2 333.2 1666 0 1999.2 0"/>
</svg>
