<?xml version="1.0" encoding="utf-8"?>
<!-- Generator: Adobe Illustrator 19.0.0, SVG Export Plug-In . SVG Version: 6.00 Build 0)  -->
<svg version="1.1" id="Слой_1" xmlns="http://www.w3.org/2000/svg" xmlns:xlink="http://www.w3.org/1999/xlink" x="0px" y="0px"
	 viewBox="-459 256.4 40.9 48.6" style="enable-background:new -459 256.4 40.9 48.6;" xml:space="preserve">
<style type="text/css">
	.st0{fill:white;}
</style>
<path id="Apple_logo_black" class="st0" d="M-420.4,293.5c-0.7,1.6-1.5,3-2.4,4.4c-0.9,1.4-2,2.6-3.2,3.9c-1.1,1.1-2.5,1.7-4,1.8
	c-1.3-0.1-2.5-0.4-3.8-0.9c-1.3-0.6-2.6-0.8-4-0.9c-1.4,0-2.8,0.4-4.1,0.9c-1.1,0.5-2.3,0.8-3.6,0.9c-1.6,0-3.1-0.7-4.1-1.9
	c-1.2-1.2-2.3-2.5-3.3-3.9c-1.5-2.2-2.6-4.5-3.5-7c-0.9-2.6-1.4-5.4-1.5-8.3c-0.1-2.7,0.7-5.5,2-7.9c1-1.7,2.4-3.2,4.1-4.2
	c1.7-1,3.7-1.6,5.6-1.6c1.5,0.1,3,0.5,4.3,1c1.1,0.5,2.3,0.8,3.5,1c1.3-0.3,2.6-0.7,3.9-1.2c1.7-0.7,3.4-0.9,5.2-0.9
	c3.9,0.3,6.8,1.8,8.6,4.5c-3.5,2.1-5.2,5-5.1,8.7c0,2.7,1.1,5.4,3.2,7.2c0.9,0.8,2,1.6,3.2,2.1
	C-419.9,292.1-420.1,292.7-420.4,293.5L-420.4,293.5z M-429.3,258.8c0,2.3-0.9,4.6-2.5,6.4c-2,2.3-4.4,3.7-7,3.5
	c0-0.3-0.1-0.6-0.1-0.8c0.1-2.4,1-4.7,2.6-6.5c0.9-1,2-1.9,3.2-2.4c1.1-0.6,2.4-0.9,3.7-1C-429.3,258.2-429.3,258.4-429.3,258.8
	L-429.3,258.8z"/>
</svg>
