<svg xmlns="http://www.w3.org/2000/svg" width="47.877" height="49.941" viewBox="0 0 47.877 49.941">
  <g id="content" transform="translate(-0.5)">
    <path id="Path_128" data-name="Path 128" d="M48.02,19.444l-7.456-4.476q0-.036,0-.073V.737A.737.737,0,0,0,39.83,0H36.585a.737.737,0,0,0,0,1.475h2.507v12.61L32.5,10.126h3.4a.737.737,0,0,0,0-1.475H30.162a.744.744,0,0,0-.106.008l-2.8-1.68H35.9a.737.737,0,0,0,0-1.475H24.886a.74.74,0,0,0-.077,0L21.047,3.251a.745.745,0,0,0-1.012.253l-.257.429H12.3a.737.737,0,0,0-.737.737v7.865a.738.738,0,0,0,.737.737h1.869L9.107,21.708V1.475h24.07a.737.737,0,1,0,0-1.475H8.37a.737.737,0,0,0-.738.737V24.164L.6,35.872a.737.737,0,0,0,.253,1.012L22.436,49.837a.745.745,0,0,0,.558.083l8.633-2.156a.746.746,0,0,0,.453-.336L37,39.227H39.83a.738.738,0,0,0,.738-.738v-5.2l7.705-12.835A.737.737,0,0,0,48.02,19.444ZM15.055,11.8H13.04V5.407h5.853L15.056,11.8Zm9.308,36.26,1.943-3.236,3.236,1.943-.534.133ZM39.092,37.752h-1.2l1.2-2Zm-7.9,8.285-4.762-2.859a.737.737,0,0,0-1.012.253l-2.859,4.762L2.248,36,20.92,4.9,46.629,20.328Zm0,0" transform="translate(0)" fill="#006cdd"/>
    <path id="Path_129" data-name="Path 129" d="M258.119,124.9l5.395,3.238a.737.737,0,0,0,.759-1.265l-5.395-3.238a.737.737,0,0,0-.759,1.265Zm0,0" transform="translate(-232.168 -111.481)" fill="#006cdd"/>
    <path id="Path_130" data-name="Path 130" d="M341.076,174.7l7.418,4.453a.737.737,0,1,0,.759-1.264l-7.418-4.453a.737.737,0,0,0-.759,1.265Zm0,0" transform="translate(-307.033 -156.424)" fill="#006cdd"/>
    <path id="Path_131" data-name="Path 131" d="M184.826,137.33l6.069,3.643a.737.737,0,1,0,.759-1.264l-6.069-3.643a.737.737,0,0,0-.759,1.264Zm0,0" transform="translate(-166.024 -122.698)" fill="#006cdd"/>
    <path id="Path_132" data-name="Path 132" d="M286.919,196.9l-11.463-6.882a.737.737,0,0,0-.759,1.265l11.464,6.882a.737.737,0,1,0,.759-1.264Zm0,0" transform="translate(-247.129 -171.385)" fill="#006cdd"/>
    <path id="Path_133" data-name="Path 133" d="M185.064,182.775l-20.23-12.144a.737.737,0,0,0-.759,1.264l20.23,12.144a.737.737,0,1,0,.759-1.264Zm0,0" transform="translate(-147.298 -153.892)" fill="#006cdd"/>
    <path id="Path_134" data-name="Path 134" d="M207.985,243.559l-15.509-9.31a.737.737,0,1,0-.759,1.264l15.509,9.311a.737.737,0,1,0,.759-1.265Zm0,0" transform="translate(-172.243 -211.305)" fill="#006cdd"/>
    <path id="Path_135" data-name="Path 135" d="M122.576,241.025l12.138,7.286a.737.737,0,1,0,.759-1.264l-12.138-7.287a.737.737,0,0,0-.759,1.265Zm0,0" transform="translate(-109.846 -216.279)" fill="#006cdd"/>
    <path id="Path_136" data-name="Path 136" d="M280.817,334.3l-5.395-3.238a.737.737,0,0,0-.759,1.264l5.395,3.238a.737.737,0,1,0,.759-1.264Zm0,0" transform="translate(-247.098 -298.677)" fill="#006cdd"/>
    <path id="Path_137" data-name="Path 137" d="M101.826,275.591l4.72,2.834a.737.737,0,1,0,.759-1.264l-4.72-2.834a.737.737,0,0,0-.759,1.264Zm0,0" transform="translate(-91.12 -247.474)" fill="#006cdd"/>
    <path id="Path_138" data-name="Path 138" d="M191.44,327.671l-12.812-7.691a.737.737,0,1,0-.759,1.264l12.812,7.691a.737.737,0,1,0,.759-1.264Zm0,0" transform="translate(-159.746 -288.673)" fill="#006cdd"/>
    <path id="Path_139" data-name="Path 139" d="M102.064,321.038l-20.23-12.144a.737.737,0,0,0-.759,1.264l20.23,12.144a.737.737,0,0,0,.759-1.264Zm0,0" transform="translate(-72.394 -278.668)" fill="#006cdd"/>
    <path id="Path_140" data-name="Path 140" d="M69.173,348.318l-8.092-4.858a.737.737,0,1,0-.759,1.264l8.092,4.858a.737.737,0,1,0,.759-1.264Zm0,0" transform="translate(-53.665 -309.863)" fill="#006cdd"/>
    <path id="Path_141" data-name="Path 141" d="M176.412,412.7l-4.72-2.834a.737.737,0,1,0-.759,1.264l4.72,2.834a.737.737,0,1,0,.759-1.264Zm0,0" transform="translate(-153.486 -369.788)" fill="#006cdd"/>
  </g>
</svg>
