<svg xmlns="http://www.w3.org/2000/svg" width="13" height="112" viewBox="0 0 13 112">
  <g id="Group_190" data-name="Group 190" transform="translate(-481 -1627)">
    <circle id="Ellipse_94" data-name="Ellipse 94" cx="2" cy="2" r="2" transform="translate(486 1645)" fill="#afafaf" opacity="0.475"/>
    <circle id="Ellipse_95" data-name="Ellipse 95" cx="2" cy="2" r="2" transform="translate(486 1699)" fill="#afafaf" opacity="0.475"/>
    <circle id="Ellipse_94-2" data-name="Ellipse 94" cx="2" cy="2" r="2" transform="translate(486 1654)" fill="#afafaf" opacity="0.475"/>
    <circle id="Ellipse_96" data-name="Ellipse 96" cx="2" cy="2" r="2" transform="translate(486 1708)" fill="#afafaf" opacity="0.475"/>
    <circle id="Ellipse_94-3" data-name="Ellipse 94" cx="2" cy="2" r="2" transform="translate(486 1663)" fill="#afafaf" opacity="0.475"/>
    <circle id="Ellipse_97" data-name="Ellipse 97" cx="2" cy="2" r="2" transform="translate(486 1717)" fill="#afafaf" opacity="0.475"/>
    <circle id="Ellipse_94-4" data-name="Ellipse 94" cx="2" cy="2" r="2" transform="translate(486 1672)" fill="#afafaf" opacity="0.475"/>
    <circle id="Ellipse_94-5" data-name="Ellipse 94" cx="2" cy="2" r="2" transform="translate(486 1681)" fill="#afafaf" opacity="0.475"/>
    <circle id="Ellipse_94-6" data-name="Ellipse 94" cx="2" cy="2" r="2" transform="translate(486 1690)" fill="#afafaf" opacity="0.475"/>
    <g id="Ellipse_92" data-name="Ellipse 92" transform="translate(481 1627)" fill="none" stroke="#afafaf" stroke-width="2" opacity="0.475">
      <circle cx="6.5" cy="6.5" r="6.5" stroke="none"/>
      <circle cx="6.5" cy="6.5" r="5.5" fill="none"/>
    </g>
    <g id="Ellipse_101" data-name="Ellipse 101" transform="translate(481 1726)" fill="none" stroke="#afafaf" stroke-width="2" opacity="0.475">
      <circle cx="6.5" cy="6.5" r="6.5" stroke="none"/>
      <circle cx="6.5" cy="6.5" r="5.5" fill="none"/>
    </g>
  </g>
</svg>
