<?xml version="1.0" encoding="utf-8"?>
<!-- Generator: Adobe Illustrator 19.0.0, SVG Export Plug-In . SVG Version: 6.00 Build 0)  -->
<svg version="1.1" id="Слой_1" xmlns="http://www.w3.org/2000/svg" xmlns:xlink="http://www.w3.org/1999/xlink" x="0px" y="0px"
	 viewBox="-460 259.8 37.8 42.2" style="enable-background:new -460 259.8 37.8 42.2;" xml:space="preserve">
<style type="text/css">
	.st0{fill:white;}
</style>
<path id="play-store" class="st0" d="M-424,277.9l-30.8-17.6c-0.5-0.3-1.1-0.5-1.7-0.5h0c-0.1,0-0.2,0-0.2,0l-0.1,0
	c-0.1,0-0.1,0-0.2,0c0,0,0,0-0.1,0l0,0c-1.6,0.3-2.8,1.7-2.8,3.4v35.3c0,1.7,1.2,3.1,2.8,3.4l0,0c0,0,0,0,0.1,0c0.1,0,0.1,0,0.2,0
	l0.1,0c0.1,0,0.2,0,0.2,0h0c0.6,0,1.2-0.2,1.7-0.5l30.8-17.6c1.1-0.6,1.7-1.8,1.7-3l0,0C-422.2,279.7-422.9,278.5-424,277.9z
	 M-436.2,274.4l-3.1,4l-7.8-10.2L-436.2,274.4z M-425.5,281.3l-21.6,12.3l13.5-17.7l8.1,4.6c0.2,0.1,0.3,0.4,0.2,0.6
	C-425.3,281.2-425.4,281.3-425.5,281.3L-425.5,281.3z"/>
</svg>
