<svg xmlns="http://www.w3.org/2000/svg" width="47.541" height="47.501" viewBox="0 0 47.541 47.501">
  <path id="train-seats" d="M46.828,47.584H.713a.713.713,0,1,1,0-1.426H3.28V26a2.963,2.963,0,0,1,2.96-2.96H41.3A2.963,2.963,0,0,1,44.261,26V46.158h2.567a.713.713,0,1,1,0,1.426ZM4.706,46.158H42.835V38.2H4.706Zm.167-9.389H42.667a1.606,1.606,0,0,0-1.437-.891H6.311A1.606,1.606,0,0,0,4.873,36.769Zm26.851-2.318H41.23a3.011,3.011,0,0,1,1.6.461V26A1.535,1.535,0,0,0,41.3,24.468H31.724ZM6.24,24.468A1.535,1.535,0,0,0,4.706,26v8.91a3.011,3.011,0,0,1,1.6-.461h9.506V24.467H6.24Zm11,9.984H30.3V24.468H17.243ZM41.207,21.16H6.334A3.057,3.057,0,0,1,3.28,18.106V6.306A3.057,3.057,0,0,1,6.334,3.252h3.858V1.509H.713a.713.713,0,0,1,0-1.426H46.828a.713.713,0,1,1,0,1.426H37.349V3.252h3.858a3.057,3.057,0,0,1,3.054,3.054v11.8A3.057,3.057,0,0,1,41.207,21.16ZM4.706,10.621v7.484a1.629,1.629,0,0,0,1.628,1.628H41.207a1.629,1.629,0,0,0,1.628-1.628V10.621Zm0-1.426H42.835V6.306a1.629,1.629,0,0,0-1.628-1.628H37.723L40.268,7.4a.713.713,0,0,1-.521,1.2H33.525A.713.713,0,0,1,33,7.4l2.544-2.722H11.992L14.536,7.4a.713.713,0,0,1-.521,1.2H7.794a.713.713,0,0,1-.521-1.2L9.817,4.679H6.334A1.629,1.629,0,0,0,4.706,6.306Zm30.462-2.02H38.1L36.636,5.6Zm-25.731,0h2.936L10.9,5.6Zm2.181-3.922H35.923V1.509H11.618Z" transform="translate(0 -0.083)" fill="#006cdd"/>
</svg>
