<svg xmlns="http://www.w3.org/2000/svg" width="62.205" height="35.44" viewBox="0 0 62.205 35.44">
  <g id="train_5_" data-name="train (5)" transform="translate(0 -110.148)">
    <g id="Group_211" data-name="Group 211" transform="translate(7.831 139.52)">
      <path id="Path_119" data-name="Path 119" d="M66.881,356.757h0a2.427,2.427,0,0,1-2.427-2.427V351.9h4.855v2.427A2.427,2.427,0,0,1,66.881,356.757Z" transform="translate(-64.454 -351.902)" fill="none"/>
      <path id="Path_120" data-name="Path 120" d="M349.892,356.757h0a2.427,2.427,0,0,1-2.427-2.427V351.9h4.855v2.427A2.427,2.427,0,0,1,349.892,356.757Z" transform="translate(-313.08 -351.902)" fill="none"/>
    </g>
    <path id="Path_121" data-name="Path 121" d="M9.994,148.295H63.058a6.651,6.651,0,0,0,6.651-6.651h0a6.651,6.651,0,0,0-1.948-4.7L56.718,125.9a19.67,19.67,0,0,0-13.909-5.761H9.994" transform="translate(-8.78 -8.774)" fill="none"/>
    <g id="Group_212" data-name="Group 212" transform="translate(1.214 120.586)">
      <path id="Path_122" data-name="Path 122" d="M276.185,196.06H259.269a3.4,3.4,0,0,0-3.4,3.4h0a3.4,3.4,0,0,0,3.4,3.4h23.713Z" transform="translate(-225.998 -196.06)" fill="none"/>
      <path id="Path_123" data-name="Path 123" d="M9.994,196.06H28.928a3.4,3.4,0,0,1,3.4,3.4h0a3.4,3.4,0,0,1-3.4,3.4H9.994" transform="translate(-9.994 -196.06)" fill="none"/>
    </g>
    <path id="Path_124" data-name="Path 124" d="M61,143.161H48.079a3.623,3.623,0,0,0,.209-1.214v-1.214h5.994a7.865,7.865,0,0,0,5.561-13.426l-.783-.783h0l-6.8-6.8h0L48.8,116.265a20.747,20.747,0,0,0-14.767-6.117H1.218a1.214,1.214,0,1,0,0,2.427H34.034a18.335,18.335,0,0,1,13.05,5.406l1.391,1.391H34.489a4.612,4.612,0,0,0,0,9.224H57.7l.427.427a5.438,5.438,0,0,1-3.845,9.283H1.218a1.214,1.214,0,1,0,0,2.427h5.4v1.214a3.624,3.624,0,0,0,.209,1.214H1.28a1.214,1.214,0,0,0,0,2.427H21.671a1.214,1.214,0,0,0,0-2.427H13.694a3.623,3.623,0,0,0,.209-1.214v-1.214h27.1v1.214a3.624,3.624,0,0,0,.209,1.214H31.143a1.214,1.214,0,0,0,0,2.427H61a1.214,1.214,0,0,0,0-2.428ZM34.489,126.169a2.185,2.185,0,1,1,0-4.369H50.9l4.369,4.369H34.489ZM11.476,141.948a1.214,1.214,0,1,1-2.427,0v-1.214h2.427v1.214Zm31.957,0v-1.214H45.86v1.214a1.214,1.214,0,1,1-2.427,0Z" transform="translate(-0.004)" fill="#006cdd"/>
    <path id="Path_125" data-name="Path 125" d="M208.523,381.872a1.214,1.214,0,1,0,.858.356A1.223,1.223,0,0,0,208.523,381.872Z" transform="translate(-182.122 -238.711)" fill="#39b580"/>
    <path id="Path_126" data-name="Path 126" d="M20.152,192.869H1.218a1.214,1.214,0,0,0,0,2.427H20.152a4.612,4.612,0,0,0,0-9.224H5.852a1.214,1.214,0,0,0,0,2.427h14.3a2.185,2.185,0,1,1,0,4.369Z" transform="translate(-0.004 -66.7)" fill="#006cdd"/>
    <path id="Path_127" data-name="Path 127" d="M1.214,186.07a1.214,1.214,0,1,0,.858.356A1.222,1.222,0,0,0,1.214,186.07Z" transform="translate(0 -66.698)" fill="#39b580"/>
  </g>
</svg>
