<svg xmlns="http://www.w3.org/2000/svg" width="98.541" height="84.582" viewBox="0 0 98.541 84.582"><defs><style>.a,.b{fill:#0060aa;}.a{fill-rule:evenodd;}</style></defs><g transform="translate(-7906.04 -4606.831)"><path class="a" d="M20761.9,10000.844l3.572-3.574,3.572,3.574-3.572,3.574Z" transform="translate(-12764.464 -5352.117)"/><path class="b" d="M9994.907,14559.081a1.456,1.456,0,0,1,.917-.666,1.386,1.386,0,0,1,1.076.281,1.4,1.4,0,0,1,.659.906,1.424,1.424,0,0,1-.289,1.078,1.709,1.709,0,0,1-.592.568,1.176,1.176,0,0,1-.661.139,1.559,1.559,0,0,1-.732-.293,1.735,1.735,0,0,1-.55-.562,1.188,1.188,0,0,1-.133-.674A1.589,1.589,0,0,1,9994.907,14559.081Zm.7.482a.967.967,0,0,0-.219.588.537.537,0,0,0,.242.395.529.529,0,0,0,.453.092,1.029,1.029,0,0,0,.492-.455.862.862,0,0,0,.2-.559.572.572,0,0,0-.7-.477A.93.93,0,0,0,9995.608,14559.563Zm1.271,2.506,1.44-2.4,1.214.729a1.922,1.922,0,0,1,.479.371.619.619,0,0,1,.159.391.795.795,0,0,1-.787.846,1.046,1.046,0,0,1-.312-.057.935.935,0,0,1,.138.2,1.015,1.015,0,0,1,.039.2,1.172,1.172,0,0,1,.014.211l-.065.906-.82-.5.049-.963a.715.715,0,0,0-.021-.266.37.37,0,0,0-.148-.164l-.062-.037-.586.973Zm1.586-.984.308.186a1.561,1.561,0,0,0,.214.082.208.208,0,0,0,.164,0,.261.261,0,0,0,.13-.113.255.255,0,0,0,.034-.221.507.507,0,0,0-.234-.227l-.32-.193Zm2.6,2.207.264-.521,1.172.594-.536,1.063a2.649,2.649,0,0,1-.759.016,2.167,2.167,0,0,1-.653-.227,1.616,1.616,0,0,1-.639-.51,1.186,1.186,0,0,1-.2-.668,1.705,1.705,0,0,1,.2-.766,1.611,1.611,0,0,1,.523-.625,1.212,1.212,0,0,1,.72-.213,1.722,1.722,0,0,1,.734.221,2.064,2.064,0,0,1,.567.381.837.837,0,0,1,.217.4,1.163,1.163,0,0,1,0,.5l-.8-.238a.441.441,0,0,0-.042-.293.513.513,0,0,0-.237-.217.549.549,0,0,0-.486-.025.966.966,0,0,0-.431.484.953.953,0,0,0-.143.65.588.588,0,0,0,.328.389,1.008,1.008,0,0,0,.261.086,1.783,1.783,0,0,0,.328,0l.119-.23Zm2.9,1.994-.881-.393-.315.367-.794-.352,2.084-2.139.852.381-.192,2.975-.815-.361Zm.08-.627.133-1.039-.682.8Zm1.973-1.037.737.295.386,1.82.573-1.436.744.3-1.039,2.6-.748-.3-.38-1.809-.573,1.428-.74-.3Zm2.9,1.1.806.279-.92,2.645-.8-.281Zm1.251.428,2.29.727-.172.537-1.965,1.092,1.524.486-.183.572-2.488-.791.178-.555,1.946-1.082-1.313-.416Zm3.624,3.473-.934-.242-.247.414-.844-.219,1.7-2.451.9.234.3,2.967-.865-.225Zm-.023-.631-.04-1.053-.544.9Zm1.354-1.459,2.519.578-.153.678-.847-.2-.472,2.053-.828-.189.474-2.053-.849-.2Zm2.784.578.845.146-.477,2.758-.842-.143Zm1.061,1.605a1.454,1.454,0,0,1,.523-1,1.388,1.388,0,0,1,1.089-.227,1.293,1.293,0,0,1,1.215,1.611,1.754,1.754,0,0,1-.274.773,1.149,1.149,0,0,1-.536.414,1.509,1.509,0,0,1-.781.068,1.8,1.8,0,0,1-.743-.26,1.176,1.176,0,0,1-.422-.545A1.607,1.607,0,0,1,10018.966,14568.716Zm.842.125a.947.947,0,0,0,.065.625.53.53,0,0,0,.393.242.52.52,0,0,0,.446-.119,1.038,1.038,0,0,0,.242-.623.9.9,0,0,0-.073-.594.539.539,0,0,0-.4-.24.507.507,0,0,0-.435.125A.936.936,0,0,0,10019.808,14568.841Zm2.524-1.084.789.078.873,1.641.156-1.539.8.08-.276,2.785-.8-.08-.87-1.629-.15,1.529-.795-.08Zm4.1,1.738a1.469,1.469,0,0,1,.394-1.064,1.4,1.4,0,0,1,1.053-.361,1.3,1.3,0,0,1,1.4,1.451,1.728,1.728,0,0,1-.175.8,1.182,1.182,0,0,1-.477.48,1.6,1.6,0,0,1-.771.164,1.741,1.741,0,0,1-.766-.168,1.158,1.158,0,0,1-.487-.486A1.6,1.6,0,0,1,10026.435,14569.5Zm.85.016a.939.939,0,0,0,.144.609.52.52,0,0,0,.419.191.529.529,0,0,0,.43-.172,1.057,1.057,0,0,0,.162-.648.888.888,0,0,0-.146-.58.526.526,0,0,0-.424-.187.513.513,0,0,0-.417.174A.942.942,0,0,0,10027.284,14569.511Zm2.36-1.389,2.1-.055.016.6-1.25.033.013.488,1.071-.029.013.568-1.068.027.031,1.143-.852.023Zm3.452-.082,2.573-.258.07.691-.867.086.208,2.1-.844.084-.208-2.1-.865.086Zm4.634-.5.842-.113.224,1.65a1.51,1.51,0,0,1-.013.475,1.07,1.07,0,0,1-.185.414.975.975,0,0,1-.3.275,1.709,1.709,0,0,1-.579.172,2.994,2.994,0,0,1-.439.029,1.076,1.076,0,0,1-.407-.057,1.01,1.01,0,0,1-.32-.2.87.87,0,0,1-.224-.295,1.7,1.7,0,0,1-.144-.457l-.224-1.652.841-.115.229,1.691a.475.475,0,0,0,.175.338.534.534,0,0,0,.68-.09.482.482,0,0,0,.078-.373Zm1.785,2.58-.5-2.752,1.394-.258a1.979,1.979,0,0,1,.6-.039.646.646,0,0,1,.378.193.763.763,0,0,1,.206.422.809.809,0,0,1-.021.414.784.784,0,0,1-.216.318.991.991,0,0,1-.276.16,1.125,1.125,0,0,1,.237.063,1.1,1.1,0,0,1,.159.121,1.2,1.2,0,0,1,.148.15l.552.723-.945.172-.6-.76a.671.671,0,0,0-.188-.184.38.38,0,0,0-.219-.027l-.075.016.206,1.113Zm.539-1.787.356-.066a1.5,1.5,0,0,0,.217-.078.211.211,0,0,0,.117-.111.266.266,0,0,0,.023-.17.272.272,0,0,0-.122-.189.515.515,0,0,0-.323-.016l-.37.07Zm1.756-1.5.828-.191.24,1.029.628-1.232,1.1-.254-.74,1.25,1.42,1.463-1.021.24-.826-.986-.326.555.157.664-.829.193Zm2.943-.686,1.079-.318.894,1.514-.076-1.756,1.071-.318.8,2.684-.667.2-.606-2.049.091,2.2-.6.18-1.123-1.891.607,2.045-.667.2Zm3.34-.977,2.145-.77.2.563-1.342.482.154.418,1.237-.443.2.537-1.243.441.188.521,1.379-.494.213.6-2.183.785Zm2.551-.918.74-.289,1.523,1.066-.562-1.441.748-.291,1.016,2.607-.748.295-1.514-1.064.558,1.434-.745.289Zm2.813-1.164.773-.359,1.186,2.535-.776.361Zm1.973,1.148.7-.4a.618.618,0,0,0,.229.225.434.434,0,0,0,.411-.014.405.405,0,0,0,.214-.2.25.25,0,0,0-.169-.355,1,1,0,0,0-.461.043,1.846,1.846,0,0,1-.868.047.686.686,0,0,1-.45-.379.747.747,0,0,1-.068-.42.8.8,0,0,1,.2-.432,1.7,1.7,0,0,1,.561-.4,1.362,1.362,0,0,1,.81-.176.864.864,0,0,1,.576.428l-.7.395a.44.44,0,0,0-.242-.191.453.453,0,0,0-.292.047.341.341,0,0,0-.172.156.2.2,0,0,0,0,.172.156.156,0,0,0,.106.082.689.689,0,0,0,.3-.031,3.449,3.449,0,0,1,.825-.129.846.846,0,0,1,.451.123.82.82,0,0,1,.281.322.92.92,0,0,1-.13,1,1.555,1.555,0,0,1-.542.395,1.354,1.354,0,0,1-1,.184A1.1,1.1,0,0,1,10055.431,14564.239Zm1.489-2.826,2.259-1.256.339.605-.758.422,1.021,1.842-.743.41-1.021-1.842-.759.426Zm4.916-.17-.823.5.125.463-.742.453-.575-2.928.792-.484,2.342,1.848-.759.463Zm-.469-.424-.784-.7.269,1.016Zm.139-2.121.633-.477,1.756.621-.928-1.238.641-.482,1.678,2.24-.641.482-1.743-.615.923,1.23-.641.482Z" transform="translate(-2073.709 -9879.552)"/><path class="b" d="M9687.369,4619.5l2.553-1.949.523.688-.854.653,1.6,2.094-.839.64-1.6-2.093-.859.654Zm4.895-3.581.862-.6,1.188,1.71a1.741,1.741,0,0,1,.258.535,1.3,1.3,0,0,1,.031.565,1.174,1.174,0,0,1-.18.479,2.129,2.129,0,0,1-.539.518c-.139.094-.295.187-.467.28a1.4,1.4,0,0,1-.487.166,1.243,1.243,0,0,1-.472-.041,1.134,1.134,0,0,1-.411-.2,2.123,2.123,0,0,1-.42-.43l-1.19-1.711.868-.6,1.216,1.752a.62.62,0,0,0,.384.278.567.567,0,0,0,.442-.111.581.581,0,0,0,.261-.375.6.6,0,0,0-.131-.457Zm-1.6.117.5-.347.342.489-.5.346Zm.813-.565.5-.349.339.49-.5.349Zm4.291,2.4-1.74-3.037,1.526-.873a2.459,2.459,0,0,1,.693-.3.8.8,0,0,1,.521.069,1,1,0,0,1,.443,1.375,1.171,1.171,0,0,1-.253.3,1.038,1.038,0,0,1,.3-.024,1.132,1.132,0,0,1,.237.075,1.373,1.373,0,0,1,.237.116l.948.623-1.037.593-1.019-.646a.816.816,0,0,0-.3-.14.434.434,0,0,0-.266.06l-.078.046.7,1.23Zm-.115-2.329.389-.221a1.653,1.653,0,0,0,.219-.181.279.279,0,0,0,.1-.18.342.342,0,0,0-.047-.21.33.33,0,0,0-.22-.174.621.621,0,0,0-.388.118l-.4.23Zm1.884-2.633.956-.443.558,1.2.448-1.664,1.271-.591-.579,1.718,2.1,1.434-1.178.546-1.258-1-.25.762.356.772-.956.444Zm3.882-1.772,1.308-.474,1.225,1.822-.225-2.183,1.306-.472,1.188,3.292-.812.293-.906-2.509.281,2.734-.737.266-1.532-2.283.9,2.509-.811.294Zm4.518-1.6,2.728-.743.2.721-1.7.464.148.537,1.576-.43.188.688-1.578.431.182.665,1.756-.479.209.764-2.777.757Zm3.473-.934.958-.221,1.686,1.6-.437-1.884.975-.223.784,3.411-.972.224-1.673-1.587.43,1.872-.966.222Zm4.2-.88,1.048-.153.5,3.463-1.047.152Zm1.993,2.029.99-.166a.785.785,0,0,0,.172.364.552.552,0,0,0,.484.163.5.5,0,0,0,.333-.143.314.314,0,0,0-.041-.494,1.341,1.341,0,0,0-.558-.146,2.233,2.233,0,0,1-1.026-.322.859.859,0,0,1-.367-.641.917.917,0,0,1,.1-.521,1.012,1.012,0,0,1,.419-.422,2.1,2.1,0,0,1,.818-.221,1.68,1.68,0,0,1,1.021.148,1.084,1.084,0,0,1,.486.748l-.981.162a.556.556,0,0,0-.2-.328.517.517,0,0,0-.359-.072.414.414,0,0,0-.269.107.25.25,0,0,0-.072.2.2.2,0,0,0,.091.142.838.838,0,0,0,.365.092,4.314,4.314,0,0,1,1.013.207,1.031,1.031,0,0,1,.475.342.987.987,0,0,1,.188.5,1.149,1.149,0,0,1-.117.636,1.131,1.131,0,0,1-.461.479,1.985,1.985,0,0,1-.8.231,1.683,1.683,0,0,1-1.237-.221A1.393,1.393,0,0,1,9715.6,4609.743Zm3.28-2.691,3.206-.189.05.863-1.073.063.153,2.63-1.05.063-.158-2.629-1.076.064Zm5.65,2.7-1.2.027-.156.58-1.078.023,1.206-3.526,1.154-.026,1.362,3.47-1.107.025Zm-.237-.753-.4-1.249-.347,1.266Zm2.089-2.126.982.062,1.159,2.008.12-1.929,1,.062-.216,3.493-1-.062-1.154-2-.12,1.917-.99-.062Zm3.89.235,1.162.164.519,1.263.847-1.07,1.154.164-1.6,1.827-.208,1.451-1.05-.148.208-1.45Zm4.163.6.97.178.911,2.13.347-1.9.982.18-.631,3.442-.979-.179-.909-2.119-.344,1.89-.975-.179Zm1.973.126-.665-.12-.383-.767.563.1.217.41.344-.308.57.1Zm3.9,1.13,1.5.473a1.851,1.851,0,0,1,.675.349,1.226,1.226,0,0,1,.338.5,1.492,1.492,0,0,1,.086.616,2.928,2.928,0,0,1-.5,1.463,1.464,1.464,0,0,1-.485.39,1.15,1.15,0,0,1-.539.122,2.415,2.415,0,0,1-.63-.1l-1.5-.473Zm.769,1.073-.576,1.822.248.077a1.087,1.087,0,0,0,.472.073.527.527,0,0,0,.286-.185,1.63,1.63,0,0,0,.261-.555,1.191,1.191,0,0,0,.06-.78.744.744,0,0,0-.5-.373Zm2.165,1.7a1.809,1.809,0,0,1,.891-1.1,1.726,1.726,0,0,1,1.384-.011,1.616,1.616,0,0,1,1.065,2.279,2.163,2.163,0,0,1-.529.878,1.461,1.461,0,0,1-.756.377,1.91,1.91,0,0,1-.969-.117,2.132,2.132,0,0,1-.836-.5,1.466,1.466,0,0,1-.375-.769A2.059,2.059,0,0,1,9743.247,4611.735Zm.992.36a1.2,1.2,0,0,0-.078.781.652.652,0,0,0,.414.395.641.641,0,0,0,.573-.034,1.294,1.294,0,0,0,.453-.7,1.111,1.111,0,0,0,.061-.744.658.658,0,0,0-.42-.394.64.64,0,0,0-.562.043A1.189,1.189,0,0,0,9744.239,4612.095Zm.795-2.447.567.206-.2.561-.57-.206Zm.927.334.576.208-.2.56-.573-.207Zm1.6,1.508.909.419-.487,1.924,1.3-1.553.9.415-.333,2,1.146-1.625.907.417-2.147,2.864-.94-.433.376-2.251-1.462,1.752-.94-.432Zm4.88,2.378.914.523-1.311,2.291,1.434.821-.428.746-2.348-1.344Zm3.024,1.743,2.321,1.614-.428.613-1.448-1.009-.317.458,1.342.935-.407.585-1.344-.935-.391.565,1.49,1.039-.451.649-2.365-1.643Zm2.762,1.929,2.55,1.954-.528.688-.854-.657-1.6,2.091-.836-.642,1.6-2.091-.857-.656Z" transform="translate(-1768.665 0)"/><path class="b" d="M10712.023,14056.7l2.707,1.867-.5.725-.908-.625-1.523,2.2-.889-.613,1.523-2.205-.912-.625Zm2.883,1.891.943.527-.611,1.082,1.031.582.609-1.084.945.531-1.742,3.1-.949-.531.707-1.26-1.029-.574-.709,1.252-.937-.529Zm3.27,1.795,2.645,1.176-.311.693-1.65-.732-.23.516,1.535.68-.295.664-1.533-.68-.285.641,1.7.756-.326.734-2.693-1.2Zm3.533,4.051.99.277a.786.786,0,0,0,0,.406.573.573,0,0,0,.383.361.544.544,0,0,0,.375.014.352.352,0,0,0,.2-.2.345.345,0,0,0-.031-.271,1.376,1.376,0,0,0-.455-.379,2.291,2.291,0,0,1-.814-.738.871.871,0,0,1-.064-.75.962.962,0,0,1,.316-.437,1.085,1.085,0,0,1,.57-.209,2.275,2.275,0,0,1,.857.152,1.733,1.733,0,0,1,.883.574,1.1,1.1,0,0,1,.131.9l-.982-.277a.572.572,0,0,0-.043-.387.558.558,0,0,0-.3-.223.482.482,0,0,0-.3-.018.26.26,0,0,0-.154.156.206.206,0,0,0,.023.17.825.825,0,0,0,.3.242,4.341,4.341,0,0,1,.855.631,1.062,1.062,0,0,1,.293.518,1.045,1.045,0,0,1-.041.545,1.1,1.1,0,0,1-.383.533,1.167,1.167,0,0,1-.635.248,2.042,2.042,0,0,1-.846-.139,1.71,1.71,0,0,1-1.051-.734A1.4,1.4,0,0,1,10721.709,14064.437Zm3.791-1.225,3.184.818-.223.855-1.064-.277-.67,2.6-1.045-.27.666-2.6-1.07-.277Zm4.658,4.131-1.207-.209-.273.549-1.086-.187,1.9-3.281,1.168.2.689,3.729-1.117-.191Zm-.1-.8-.158-1.326-.6,1.2Zm1.559-1.963,3.254.469-.125.873-1.092-.16-.385,2.652-1.068-.154.383-2.65-1.094-.16Zm3.457.473,2.887.186-.049.758-1.8-.117-.037.566,1.672.105-.043.727-1.676-.105-.045.7,1.857.117-.049.8-2.941-.184Zm4.871.225,1.082-.029.1,3.559-1.084.029Zm1.777-.037,1.008-.051,1.416,1.891-.105-1.961,1.02-.053.189,3.553-1.021.055-1.4-1.883.1,1.953-1.014.053Zm3.9,2.166,1.008-.2a.817.817,0,0,0,.188.367.583.583,0,0,0,.5.148.549.549,0,0,0,.338-.156.333.333,0,0,0,.09-.271.328.328,0,0,0-.148-.232,1.422,1.422,0,0,0-.576-.129,2.324,2.324,0,0,1-1.062-.289.886.886,0,0,1-.4-.639.947.947,0,0,1,.09-.537,1.028,1.028,0,0,1,.412-.439,2.116,2.116,0,0,1,.832-.254,1.711,1.711,0,0,1,1.051.113,1.108,1.108,0,0,1,.523.744l-1,.2a.574.574,0,0,0-.217-.326.563.563,0,0,0-.373-.059.433.433,0,0,0-.27.117.26.26,0,0,0-.068.211.211.211,0,0,0,.1.141.864.864,0,0,0,.379.08,4.438,4.438,0,0,1,1.047.178,1.074,1.074,0,0,1,.494.328,1.018,1.018,0,0,1,.209.506,1.121,1.121,0,0,1-.1.65,1.171,1.171,0,0,1-.453.5,2.083,2.083,0,0,1-.816.26,1.723,1.723,0,0,1-1.27-.18A1.4,1.4,0,0,1,10745.627,14067.407Zm5.438-3.262,1.063-.193.379,2.082a1.738,1.738,0,0,1,.014.6,1.279,1.279,0,0,1-.211.539,1.247,1.247,0,0,1-.373.371,2.285,2.285,0,0,1-.723.25,4.789,4.789,0,0,1-.553.064,1.486,1.486,0,0,1-.523-.053,1.269,1.269,0,0,1-.42-.234,1.177,1.177,0,0,1-.3-.361,2.214,2.214,0,0,1-.205-.576l-.381-2.084,1.063-.2.391,2.137a.616.616,0,0,0,.238.416.57.57,0,0,0,.461.086.59.59,0,0,0,.4-.24.631.631,0,0,0,.074-.477Zm2.393,3.053-.924-3.436,1.736-.469a2.58,2.58,0,0,1,.764-.113.8.8,0,0,1,.5.2.98.98,0,0,1,.307.516.992.992,0,0,1,.012.527.964.964,0,0,1-.238.426,1.251,1.251,0,0,1-.33.232,1.125,1.125,0,0,1,.3.055.961.961,0,0,1,.217.139,1.64,1.64,0,0,1,.205.172l.771.857-1.18.316-.84-.9a.811.811,0,0,0-.26-.213.464.464,0,0,0-.277-.012l-.094.027.377,1.391Zm.5-2.32.443-.121a1.265,1.265,0,0,0,.264-.121.288.288,0,0,0,.141-.154.341.341,0,0,0,.012-.217.327.327,0,0,0-.172-.229.651.651,0,0,0-.416.016l-.459.123Zm4.977.025-1.152.414.031.613-1.037.371.035-3.795,1.111-.4,2.441,2.908-1.066.383Zm-.475-.648-.793-1.074.07,1.332Zm.725-2.582.914-.43,2.023,1.225-.834-1.779.924-.436,1.514,3.223-.928.436-2.012-1.217.828,1.771-.92.432Zm6.525-.9.969-.205a1.752,1.752,0,0,1,.068.736,1.29,1.29,0,0,1-.248.605,1.845,1.845,0,0,1-.611.5,2.2,2.2,0,0,1-.9.307,1.482,1.482,0,0,1-.834-.213,2.03,2.03,0,0,1-.758-.822,1.876,1.876,0,0,1-.256-1.408,2.076,2.076,0,0,1,1.955-1.32,1.62,1.62,0,0,1,.9.457l-.73.648a.893.893,0,0,0-.207-.152.6.6,0,0,0-.287-.062.68.68,0,0,0-.289.082.64.64,0,0,0-.35.541,1.3,1.3,0,0,0,.211.682,1.329,1.329,0,0,0,.551.619.681.681,0,0,0,.861-.43A1.117,1.117,0,0,0,10765.707,14060.776Zm-.014-2.389,2.393-1.629.43.629-1.5,1.018.32.471,1.387-.947.408.6-1.389.943.4.578,1.537-1.047.453.668-2.436,1.658Z" transform="translate(-2784.927 -9382.688)"/><path class="b" d="M10347.434,5426.484l-.738.645.2.441-.662.581-1.049-2.8.711-.624,2.635,1.417-.684.6Zm-.537-.336-.895-.555.43.958Zm-2.287-1.167.373-.328.314.359-.375.327Zm.609-.534.375-.33.314.36-.377.33Zm1.539-.435,2.135-1.537.4.562-.715.516,1.23,1.71-.7.5-1.232-1.709-.717.517Zm2.592-1.84.729-.474,1.531,2.342-.727.476Zm1.115-.737.828-.488.967.526.008-1.1.824-.483-.113,1.954.6,1.011-.748.439-.6-1.011Zm.914-1.4.58-.34-.246.806-.318.188Zm4.74.987-.887.422.074.477-.8.38-.254-2.98.852-.408,2.154,2.074-.818.391Zm-.428-.469-.709-.776.156,1.041Zm3.09-1.453.787-.087a1.413,1.413,0,0,1-.014.583,1.034,1.034,0,0,1-.248.457,1.542,1.542,0,0,1-.525.344,1.84,1.84,0,0,1-.74.172,1.215,1.215,0,0,1-.646-.233,1.576,1.576,0,0,1-.525-.7,1.455,1.455,0,0,1-.082-1.127,1.682,1.682,0,0,1,1.668-.883,1.262,1.262,0,0,1,.672.429l-.635.455a.6.6,0,0,0-.154-.138.478.478,0,0,0-.219-.07.517.517,0,0,0-.24.044.5.5,0,0,0-.32.392.975.975,0,0,0,.105.552,1.077,1.077,0,0,0,.379.531.567.567,0,0,0,.729-.273A.877.877,0,0,0,10358.781,5419.1Zm-.406,1.764-.037-.231a1.486,1.486,0,0,1,.295-.173.685.685,0,0,1,.459-.076.363.363,0,0,1,.219.191.344.344,0,0,1,.018.2.365.365,0,0,1-.123.224.98.98,0,0,1-.33.206,3.083,3.083,0,0,1-.492.156l-.092-.216a2.236,2.236,0,0,0,.4-.131.381.381,0,0,0,.188-.127.136.136,0,0,0,.01-.128.127.127,0,0,0-.08-.069.237.237,0,0,0-.156.022A1.785,1.785,0,0,0,10358.375,5420.868Zm1.094-3.779.82-.269.654,2.009,1.287-.418.211.654-2.107.687Zm4.883.956-.947.266-.008.48-.854.24.26-2.98.91-.256,1.768,2.412-.875.245Zm-.342-.534-.566-.886-.025,1.051Zm1.217-2.095.791-.153,1.326,1.317-.295-1.519.8-.155.535,2.748-.8.156-1.318-1.31.295,1.51-.8.153Zm3.326-.617,1.273-.19a1.569,1.569,0,0,1,.621.011,1.034,1.034,0,0,1,.428.236,1.243,1.243,0,0,1,.283.412,2.3,2.3,0,0,1,.15,1.229,1.137,1.137,0,0,1-.221.452.908.908,0,0,1-.355.278,1.88,1.88,0,0,1-.494.151l-1.271.19Zm.949.5.227,1.511.211-.03a.913.913,0,0,0,.371-.117.423.423,0,0,0,.148-.235,1.288,1.288,0,0,0-.008-.49.929.929,0,0,0-.234-.581.617.617,0,0,0-.5-.091Zm1.873-.891.961-.06.627.9.5-.976.947-.062-.979,1.693.074,1.17-.867.056-.072-1.17Zm3.508,2.595-.064-2.8,1.443-.034a2.01,2.01,0,0,1,.611.055.635.635,0,0,1,.35.246.787.787,0,0,1,.139.452.745.745,0,0,1-.09.4.761.761,0,0,1-.268.281,1.022,1.022,0,0,1-.3.117.93.93,0,0,1,.229.1.979.979,0,0,1,.139.143,1.028,1.028,0,0,1,.125.172l.439.8-.979.022-.482-.843a.667.667,0,0,0-.162-.212.361.361,0,0,0-.213-.059h-.076l.025,1.135Zm.832-1.68.365-.009a1.216,1.216,0,0,0,.227-.043.211.211,0,0,0,.137-.091.26.26,0,0,0,.053-.164.254.254,0,0,0-.092-.207.518.518,0,0,0-.324-.065l-.381.009Zm1.922-1.183.957.059.51.975.621-.905.953.057-1.186,1.558-.07,1.171-.867-.053.072-1.17Zm3.1,2.058.822.037a.619.619,0,0,0,.076.313.459.459,0,0,0,.361.21.433.433,0,0,0,.293-.055.269.269,0,0,0,.121-.19.261.261,0,0,0-.072-.2,1.109,1.109,0,0,0-.422-.209,1.908,1.908,0,0,1-.771-.423.7.7,0,0,1-.186-.563.72.72,0,0,1,.168-.391.843.843,0,0,1,.406-.261,1.787,1.787,0,0,1,.7-.034,1.41,1.41,0,0,1,.795.285.862.862,0,0,1,.264.668l-.816-.041a.442.442,0,0,0-.1-.289.432.432,0,0,0-.273-.117.378.378,0,0,0-.238.039.213.213,0,0,0-.09.147.15.15,0,0,0,.049.126.714.714,0,0,0,.275.133,3.451,3.451,0,0,1,.779.333.862.862,0,0,1,.324.346.832.832,0,0,1,.066.423.9.9,0,0,1-.2.479.93.93,0,0,1-.451.3,1.683,1.683,0,0,1-.682.044,1.386,1.386,0,0,1-.953-.379A1.1,1.1,0,0,1,10380.732,5416.2Zm.7,1.326.084-.219a1.419,1.419,0,0,1,.338-.009.692.692,0,0,1,.436.159.347.347,0,0,1,.1.274.384.384,0,0,1-.078.181.371.371,0,0,1-.217.134,1.018,1.018,0,0,1-.391.018,3.193,3.193,0,0,1-.5-.1l.025-.233a2.22,2.22,0,0,0,.414.083.4.4,0,0,0,.227-.02.145.145,0,0,0,.07-.108.121.121,0,0,0-.035-.1.232.232,0,0,0-.146-.057A1.97,1.97,0,0,0,10381.436,5417.522Zm5.01-.6.107-.574,1.314.248-.221,1.171a2.754,2.754,0,0,1-.73.224,2.335,2.335,0,0,1-.709-.035,1.731,1.731,0,0,1-.768-.318,1.153,1.153,0,0,1-.381-.586,1.641,1.641,0,0,1-.027-.789,1.6,1.6,0,0,1,.33-.749,1.26,1.26,0,0,1,.641-.4,1.794,1.794,0,0,1,.777.01,2.1,2.1,0,0,1,.666.21.89.89,0,0,1,.326.327,1.162,1.162,0,0,1,.143.482l-.846-.006a.5.5,0,0,0-.125-.272.624.624,0,0,0-.777-.031.979.979,0,0,0-.283.583,1,1,0,0,0,.049.668.6.6,0,0,0,.434.28.95.95,0,0,0,.277.011,1.511,1.511,0,0,0,.324-.085l.047-.256Zm4.135-.841.836.232-.451,1.606a1.474,1.474,0,0,1-.2.431,1.041,1.041,0,0,1-.338.3.961.961,0,0,1-.4.129,1.7,1.7,0,0,1-.607-.073,3.9,3.9,0,0,1-.422-.147,1.226,1.226,0,0,1-.359-.217,1.023,1.023,0,0,1-.221-.312.91.91,0,0,1-.088-.361,1.657,1.657,0,0,1,.047-.477l.449-1.606.836.233-.463,1.644a.494.494,0,0,0,.025.378.548.548,0,0,0,.676.191.5.5,0,0,0,.219-.312Zm.635,3.105.867-2.661,1.369.447a2.052,2.052,0,0,1,.559.254.666.666,0,0,1,.248.35.775.775,0,0,1-.018.473.739.739,0,0,1-.566.526,1.04,1.04,0,0,1-.322.012.814.814,0,0,1,.182.168.8.8,0,0,1,.086.182.945.945,0,0,1,.061.2l.148.9-.928-.3-.174-.955a.735.735,0,0,0-.082-.253.364.364,0,0,0-.184-.126l-.07-.025-.355,1.077Zm1.34-1.311.346.113a1.334,1.334,0,0,0,.229.034.228.228,0,0,0,.162-.039.29.29,0,0,0,.086-.363.523.523,0,0,0-.287-.169l-.361-.119Zm3.287,2.548-.9-.386-.312.369-.812-.346,2.07-2.161.867.373-.133,2.985-.83-.354Zm.07-.63.115-1.045-.678.805Zm2.279-.922,1.006.534-.414,1.708,1.186-1.3,1,.533-1.311,2.472-.625-.331,1-1.885-1.484,1.628-.566-.3.521-2.139-1,1.885-.625-.332Zm3.66,4.7-.846-.5-.355.327-.76-.445,2.324-1.883.814.479-.51,2.947-.783-.458Zm.146-.614.244-1.022-.771.712Zm1.131.915.693.438a.644.644,0,0,0-.086.31.464.464,0,0,0,.211.361.428.428,0,0,0,.281.1.254.254,0,0,0,.2-.105.241.241,0,0,0,.037-.212,1.071,1.071,0,0,0-.264-.39,1.882,1.882,0,0,1-.461-.749.7.7,0,0,1,.115-.581.727.727,0,0,1,.338-.257.819.819,0,0,1,.482-.026,1.769,1.769,0,0,1,.623.311,1.39,1.39,0,0,1,.547.638.872.872,0,0,1-.1.713l-.691-.435a.377.377,0,0,0-.133-.542.344.344,0,0,0-.221-.081.2.2,0,0,0-.152.082.156.156,0,0,0-.02.134.692.692,0,0,0,.176.251,3.683,3.683,0,0,1,.514.675.85.85,0,0,1,.107.46.812.812,0,0,1-.148.4.893.893,0,0,1-.412.317.925.925,0,0,1-.537.038,1.724,1.724,0,0,1-.619-.3,1.4,1.4,0,0,1-.641-.8A1.1,1.1,0,0,1,10403.129,5423.873Zm3.49.191.727.628-.187,1.083,1.039-.342.725.625-1.887.519-.768.886-.654-.568.766-.886Z" transform="translate(-2421.233 -801.568)"/><path class="a" d="M9900.713,6615.788h-22.2l.018-16.468,5.725-6.928H9894.8l6.789-7.783h24.137l6.83,7.8,10.074.021,6.572,7.062-20.02-.021-6.488-7.8h-18.121l-6.551,7.7-9.988-.021-3.5,4.136-.021,5.659,16.221-.021Zm26.3-6.684h22.193l-.016,16.467-5.723,6.929H9932.92l-6.785,7.781h-24.141l-6.828-7.8-10.074-.021-6.574-7.061,20.023.021,6.486,7.8h18.121l6.553-7.7,9.988.021,3.5-4.134.02-5.662-16.221.021Zm-18.83,3.3,5.666-5.681,5.689,5.681-5.689,5.708Z" transform="translate(-1958.455 -1963.718)"/><path class="a" d="M7906.04,10000.844l3.572-3.574,3.574,3.574-3.574,3.574Z" transform="translate(0 -5352.117)"/></g></svg>