<svg xmlns="http://www.w3.org/2000/svg" viewBox="0 0 107 127.35"><defs><style>.cls-1{fill:#f9ed15;}.cls-2{fill:#45933a;}.cls-3{fill:#fff;}.cls-4{fill:#6cc0ff;}</style></defs><g id="Layer_2" data-name="Layer 2"><g id="Layer_1-2" data-name="Layer 1"><path class="cls-1" d="M107,8.89l-1.1,65.22v.12l0,1.87a1.09,1.09,0,0,0,0,.18c-.66,15.8-8.85,29.16-20.26,34.83h0l-.57.29L53.5,127.35,22,111.4l-.57-.29h0C10,105.44,1.8,92.08,1.14,76.28a1.09,1.09,0,0,0,0-.18l0-1.87v-.12L0,8.89l.53-.28C10.46,3.5,30.45,0,53.5,0s43,3.5,53,8.61Z"/><path class="cls-2" d="M104.91,11l-1,62.67v.12l0,1.8a.91.91,0,0,0,0,.17c-.64,15.18-8.51,28-19.48,33.47h0l-.55.28L53.5,124.87,23.19,109.54l-.55-.28h0C11.69,103.81,3.82,91,3.18,75.79a.91.91,0,0,0,0-.17l0-1.8V73.7L2.09,11l.51-.27c9.54-4.91,28.75-8.28,50.9-8.28s41.36,3.37,50.9,8.28Z"/><path class="cls-3" d="M9.18,26.33,7.12,27V17.5L5,18.21V16.35c2.5-.85,3.76-1.26,6.3-2v1.86c-.86.25-1.28.37-2.13.64Z"/><path class="cls-3" d="M19.4,12.23v7.33a5.65,5.65,0,0,1-.91,3.31,4.45,4.45,0,0,1-2.62,1.72,2.57,2.57,0,0,1-2.55-.38,3.84,3.84,0,0,1-.87-2.88V14l2.07-.57v7.46c0,1.44.47,2,1.41,1.79a1.62,1.62,0,0,0,1-.81,3.38,3.38,0,0,0,.36-1.66v-7.5C18.15,12.52,18.56,12.42,19.4,12.23Zm-6-.63a1.26,1.26,0,0,1,.27-.81,1.32,1.32,0,0,1,.74-.47.86.86,0,0,1,.75.08.75.75,0,0,1,.27.65,1.24,1.24,0,0,1-.27.79,1.47,1.47,0,0,1-.75.47.86.86,0,0,1-.74-.06A.73.73,0,0,1,13.37,11.6Zm3.05-.81a1.23,1.23,0,0,1,.27-.8,1.32,1.32,0,0,1,.75-.46.89.89,0,0,1,.75.08.78.78,0,0,1,.27.67,1.2,1.2,0,0,1-.27.79,1.36,1.36,0,0,1-.75.45.88.88,0,0,1-.75-.08A.76.76,0,0,1,16.42,10.79Z"/><path class="cls-3" d="M23.44,18.27v4.41l-2.1.45V11.79c1.1-.24,1.65-.36,2.75-.58a3.1,3.1,0,0,1,2.59.34,2.93,2.93,0,0,1,.84,2.39,3.85,3.85,0,0,1-1.46,3.26c.88,1.83,1.31,2.75,2.19,4.59-.91.15-1.36.23-2.26.4l-1.8-4.07Zm0-1.81.55-.11a1.6,1.6,0,0,0,1.07-.64,2.38,2.38,0,0,0,.32-1.32A1.53,1.53,0,0,0,25,13.22,1.24,1.24,0,0,0,24,13.06l-.53.11Z"/><path class="cls-3" d="M36.4,20.64l-2.27.28c-.75-1.85-1.13-2.77-1.88-4.6l-.85,1v4l-2.12.33V10.28L31.4,10v5.62c.3-.72.45-1.08.74-1.8l2-4.19,2.27-.27-2.64,5.23Z"/><path class="cls-3" d="M41.5,20.16c-.88-3.8-1.31-5.69-2.18-9.47h-.09a15.06,15.06,0,0,1,.15,2v7.61l-2,.19V9.19c1.3-.13,2-.2,3.27-.3.79,3.5,1.18,5.25,2,8.76h.06l1.95-9c1.33-.07,2-.1,3.33-.15V19.8l-2,.08V12.2a16.44,16.44,0,0,1,.11-2H46c-.87,3.9-1.3,5.85-2.17,9.76C42.89,20.05,42.43,20.09,41.5,20.16Z"/><path class="cls-3" d="M55.19,19.73c-2.07,0-3.11,0-5.18,0V8.41c2.07,0,3.11-.05,5.18,0v1.82c-1.21,0-1.82,0-3,0v2.7H55v1.84c-1.13,0-1.69,0-2.82,0v3.14c1.22,0,1.83,0,3,0Z"/><path class="cls-3" d="M64.91,20.2c-1-.08-1.56-.12-2.6-.18-1.42-3.38-2.13-5.06-3.56-8.4h-.1a10,10,0,0,1,.2,2v6.2c-.79,0-1.19-.05-2-.07V8.43c1.05,0,1.57.05,2.62.1,1.41,3.31,2.11,5,3.52,8.32h.09A11,11,0,0,1,63,14.91V8.72c.78,0,1.18.08,2,.15Z"/><path class="cls-3" d="M67.32,20.42V9.08l2,.21V20.63Z"/><path class="cls-3" d="M76.93,18.55a3,3,0,0,1-.8,2.31,2.76,2.76,0,0,1-2.33.49,5.88,5.88,0,0,1-2.54-.92V18.35a5.21,5.21,0,0,0,2.35,1.14,1.07,1.07,0,0,0,.92-.2,1.14,1.14,0,0,0,.31-.86,1.84,1.84,0,0,0-.37-1.09,6.49,6.49,0,0,0-1.21-1.22A6.1,6.1,0,0,1,72.15,15a4.23,4.23,0,0,1-.59-1.11,4.1,4.1,0,0,1-.2-1.36,2.85,2.85,0,0,1,.81-2.2,2.52,2.52,0,0,1,2.19-.55,5.41,5.41,0,0,1,2.52,1.12l-.7,1.58a5.92,5.92,0,0,0-.79-.51,2.45,2.45,0,0,0-.87-.31.83.83,0,0,0-.79.23,1.21,1.21,0,0,0-.28.88,1.76,1.76,0,0,0,.33,1A6,6,0,0,0,74.94,15a6,6,0,0,1,1.55,1.76A3.87,3.87,0,0,1,76.93,18.55Z"/><path class="cls-3" d="M81.82,22.57c-.84-.17-1.26-.25-2.1-.4V12.68c-.87-.16-1.31-.24-2.18-.38V10.44c2.59.44,3.88.69,6.45,1.24v1.85l-2.17-.45Z"/><path class="cls-3" d="M90,24.44l-.65-3c-1.17-.3-1.75-.44-2.93-.71l-.65,2.71c-.84-.19-1.26-.29-2.1-.46,1.12-4.32,1.68-6.47,2.8-10.77l2.84.69C90.4,17.71,91,20.13,92.07,25,91.23,24.76,90.82,24.65,90,24.44Zm-1-5-.6-2.79c0-.17-.12-.59-.24-1.26s-.2-1.12-.23-1.35c-.06.43-.15.9-.25,1.41s-.37,1.67-.8,3.47Z"/><path class="cls-3" d="M100.83,27.69c-1-.34-1.5-.51-2.51-.83-1.37-3.73-2.06-5.58-3.43-9.28l-.1,0A11.74,11.74,0,0,1,95,19.63v6.19l-1.93-.55V13.93l2.55.74c1.36,3.66,2,5.5,3.4,9.2l.08,0a13,13,0,0,1-.14-2V15.72l1.89.63Z"/><path id="branch" class="cls-1" d="M16.63,82.35c.43,1.85,1.91,3.25,2.26,5.17.7-2,1.35-3.68.86-5.87-.34-1.56-1.66-2.68-1.81-4.29a4.88,4.88,0,0,0-1.31,5Zm-.36,7.76a12,12,0,0,0,4.78,3.8c-.37-1.46.32-2.56,1.09-3.72.92-1.4,1.37-2.77.62-4.38a9.59,9.59,0,0,1-1.38,2.24A6.63,6.63,0,0,0,19.9,91.6,7,7,0,0,1,18,88.83a8.76,8.76,0,0,0-3.45-3.46,12.65,12.65,0,0,0,1.69,4.74Zm6.83,5a8.65,8.65,0,0,0-.44,2.81,19.69,19.69,0,0,0-2.82-2.22C18.54,94.63,17,93.89,16,92.56a6.35,6.35,0,0,0,2.6,4.77c1.69,1.26,3.73,1.94,5.4,3.27-.25-1.79.41-3.22,1-4.87a4.58,4.58,0,0,0-1.06-4.37,12.28,12.28,0,0,1-.77,3.73Zm3.79,6a17,17,0,0,0,2,3.68,26.5,26.5,0,0,1-5-2.44c-1.93-1.05-4-1.72-5.77-3.11a8.32,8.32,0,0,0,6.17,6c2.16.66,4,.33,6.59,1.39a18.16,18.16,0,0,0-1.67-5.28,19.05,19.05,0,0,1-1.77-3.56,4.32,4.32,0,0,0-.55,3.29Zm6.6,4.93a8.24,8.24,0,0,0,2.44,2.65c-2.55.16-4.59-1.45-7.07-1.52-1.53,0-3,.43-4.55.29a14.09,14.09,0,0,0,6.05,2.63c2.93.38,5.64-.36,8.88-.07A12.25,12.25,0,0,1,36,106c-1.22-1.92-2.38-3.29-4.77-3.6a21.65,21.65,0,0,1,2.24,3.65Zm9,4.22C38,111,33.74,112,29.17,112.07c5.12,1.79,9.95,2.11,15,.27A16.69,16.69,0,0,1,51.12,111c3,.21,6.72,1.41,10.79,5.71l1.61-1.28c-5.85-5.21-13.49-6.39-21-5.11Z"/><path id="path1986" class="cls-1" d="M90.37,82.35c-.43,1.85-1.91,3.25-2.26,5.17-.7-2-1.35-3.68-.86-5.87.34-1.56,1.66-2.68,1.81-4.29a4.88,4.88,0,0,1,1.31,5Zm.36,7.76A12,12,0,0,1,86,93.91c.37-1.46-.32-2.56-1.09-3.72-.92-1.4-1.37-2.77-.62-4.38a9.59,9.59,0,0,0,1.38,2.24A6.63,6.63,0,0,1,87.1,91.6,7,7,0,0,0,89,88.83a8.76,8.76,0,0,1,3.45-3.46,12.65,12.65,0,0,1-1.69,4.74Zm-6.83,5a8.65,8.65,0,0,1,.44,2.81,19.69,19.69,0,0,1,2.82-2.22c1.3-1.05,2.82-1.79,3.88-3.12a6.35,6.35,0,0,1-2.6,4.77c-1.69,1.26-3.73,1.94-5.4,3.27.25-1.79-.41-3.22-1-4.87a4.58,4.58,0,0,1,1.06-4.37,12.28,12.28,0,0,0,.77,3.73Zm-3.79,6a17,17,0,0,1-2,3.68,26.5,26.5,0,0,0,5-2.44c1.93-1.05,4-1.72,5.77-3.11a8.32,8.32,0,0,1-6.17,6c-2.16.66-4,.33-6.59,1.39a18.16,18.16,0,0,1,1.67-5.28,19.05,19.05,0,0,0,1.77-3.56,4.32,4.32,0,0,1,.55,3.29Zm-6.6,4.93a8.24,8.24,0,0,1-2.44,2.65c2.55.16,4.59-1.45,7.07-1.52,1.53,0,3,.43,4.55.29a14.09,14.09,0,0,1-6,2.63c-2.93.38-5.64-.36-8.88-.07A12.25,12.25,0,0,0,71,106c1.22-1.92,2.38-3.29,4.77-3.6a21.65,21.65,0,0,0-2.24,3.65Zm-9,4.22c4.48.76,8.78,1.75,13.35,1.79-5.12,1.79-10,2.11-15,.27A16.69,16.69,0,0,0,55.88,111c-3,.21-6.72,1.41-10.79,5.71l-1.61-1.28c5.85-5.21,13.49-6.39,21-5.11Z"/><path class="cls-3" d="M53.47,30.65a23.07,23.07,0,0,0-2.49.13,21.08,21.08,0,0,0-2.25.36l-.43.09a23.26,23.26,0,0,0-11.47,6.41c-.29.3-.58.61-.86.92A23.26,23.26,0,0,0,70.12,70.11c.29-.3.58-.6.85-.92a23.21,23.21,0,0,0-17.5-38.54Z"/><path class="cls-4" d="M37.86,38.8l.38-.37.43-.42.4-.35.45-.4.41-.33.47-.37.43-.31.49-.34.44-.29.5-.31.46-.26.52-.29.46-.24.54-.26.47-.22.56-.23.48-.19.57-.2.49-.17.58-.18.49-.14.19,0a19.13,19.13,0,0,0-5,8,26,26,0,0,1-5.32-2Z"/><path class="cls-4" d="M36.75,40.05a27,27,0,0,0,5.89,2.34A39.64,39.64,0,0,0,41.07,53.1h-9.3A21.55,21.55,0,0,1,36.75,40.05Z"/><path class="cls-4" d="M36.75,67.7a21.55,21.55,0,0,1-5-13.05h9.3a39.58,39.58,0,0,0,1.57,10.71A27,27,0,0,0,36.75,67.7Z"/><path class="cls-4" d="M47.87,74.82l-.48-.13-.58-.18-.49-.17-.57-.2L45.27,74l-.55-.24c-.16-.06-.32-.14-.48-.21l-.54-.26L43.23,73l-.52-.29-.45-.26-.51-.32-.44-.29-.49-.34-.42-.31-.48-.37-.4-.33-.46-.4-.39-.35-.44-.42L37.86,69l-.07-.07a25.79,25.79,0,0,1,5.32-2,19.21,19.21,0,0,0,5,8Z"/><path class="cls-4" d="M52.7,75.5c-3.32-.47-6.23-3.93-8.06-9a39.62,39.62,0,0,1,8.06-.95v10Z"/><path class="cls-4" d="M52.7,64a40.28,40.28,0,0,0-8.55,1,38.43,38.43,0,0,1-1.53-10.33H52.7V64Z"/><path class="cls-4" d="M52.7,53.1H42.62a38.49,38.49,0,0,1,1.53-10.33,41,41,0,0,0,8.55,1Z"/><path class="cls-4" d="M52.7,42.24a39.62,39.62,0,0,1-8.06-1c1.83-5.11,4.74-8.56,8.06-9v10Z"/><path class="cls-4" d="M70.2,40.05a21.61,21.61,0,0,1,5,13.05h-9.3a40,40,0,0,0-1.57-10.71A27,27,0,0,0,70.2,40.05Z"/><path class="cls-4" d="M59.07,32.93l.48.14.59.17.49.17.57.21.48.19.55.23.47.21.55.27.46.23.53.29.45.27.5.31.44.29.49.34.43.31.47.37.41.33.46.4.39.35.44.42.37.37.07.08a26.57,26.57,0,0,1-5.32,2,19.33,19.33,0,0,0-5-8Z"/><path class="cls-4" d="M54.25,32.26c3.32.47,6.23,3.92,8.06,9a39.79,39.79,0,0,1-8.06,1v-10Z"/><path class="cls-4" d="M54.25,43.79a41,41,0,0,0,8.55-1A38.89,38.89,0,0,1,64.33,53.1H54.25Z"/><path class="cls-4" d="M54.25,54.65H64.33A38.83,38.83,0,0,1,62.8,65h0a40.36,40.36,0,0,0-8.55-1Z"/><path class="cls-4" d="M54.25,75.5v-10a39.79,39.79,0,0,1,8.06.95C60.48,71.57,57.57,75,54.25,75.5Z"/><path class="cls-4" d="M69.08,69l-.37.37c-.14.14-.29.29-.44.42l-.39.36-.45.39-.42.33c-.15.13-.31.25-.47.37l-.43.31-.48.34-.45.29-.5.31-.45.26-.52.29-.47.24-.53.26-.48.22-.55.23-.48.19-.57.21-.49.16c-.19.07-.39.12-.58.18l-.49.14-.19.05a19.33,19.33,0,0,0,5-8,25.89,25.89,0,0,1,5.31,2A.27.27,0,0,1,69.08,69Z"/><path class="cls-4" d="M70.2,67.7a27,27,0,0,0-5.89-2.34,40,40,0,0,0,1.57-10.71h9.3A21.61,21.61,0,0,1,70.2,67.7Z"/><polygon class="cls-2" points="73.9 55.04 73.85 54.95 73.85 54.95 73.85 54.95 73.75 54.9 73.64 54.86 73.53 54.85 73.32 54.88 73.24 54.87 72.94 54.79 72.79 54.65 72.69 54.58 72.6 54.55 72.42 54.53 72.22 54.42 72.14 54.4 71.96 54.4 71.66 54.3 71.57 54.31 71.5 54.35 71.38 54.48 71.32 54.53 71.13 54.58 70.94 54.55 70.44 54.31 70.14 54.17 69.74 53.98 69.44 53.79 69.03 53.52 68.83 53.43 68.4 53.35 68.02 53.2 67.37 52.81 67.19 52.63 67.09 52.54 67.02 52.51 66.93 52.53 66.74 52.67 66.67 52.7 66.59 52.7 66.5 52.67 66.01 52.42 65.59 52.21 65.25 52.04 65.06 51.9 64.7 51.53 64.5 51.4 64.08 51.19 63.09 50.69 62.59 50.44 62.18 50.23 61.83 50.06 61.64 49.92 61.61 49.91 61.38 49.7 61.33 49.61 61.25 49.41 61.23 49.33 61.23 49.26 61.24 49.19 61.25 49.12 61.23 49.05 61.12 48.88 61.09 48.81 61.08 48.71 61.05 48.65 61.02 48.58 60.93 48.45 60.9 48.39 60.87 48.24 60.84 48.21 60.59 48.12 60.46 48.1 60.39 48.07 60.38 48.05 60.37 48.04 60.33 47.96 60.31 47.93 60.19 47.81 60.14 47.74 60.05 47.53 60.01 47.48 59.91 47.4 59.87 47.36 59.84 47.28 59.78 47.13 59.65 46.84 59.6 46.77 59.62 46.74 59.6 46.69 59.55 46.44 59.53 46.37 59.5 46.31 59.25 46.01 59.18 45.95 58.5 45.6 58.25 45.54 57.97 45.51 57.87 45.51 57.81 45.55 57.79 45.63 57.78 45.77 57.72 45.81 57.69 45.94 57.63 46.03 57.54 46.09 57.44 46.11 57.32 46.09 57.01 45.93 56.96 45.94 56.8 45.99 56.78 45.96 56.77 45.93 56.76 45.92 56.74 45.95 56.72 46.02 56.7 46.04 56.69 46.06 56.53 45.95 56.34 45.93 55.79 46.05 55.48 46.21 55.32 46.24 55.22 46.23 55.13 46.19 54.96 46.06 54.78 45.96 54.49 45.87 54.17 45.76 54.08 45.7 54.05 45.62 54.04 45.32 54.05 45.26 54.08 45.2 54.12 45.15 54.22 45.08 54.25 45.03 54.22 44.96 54 44.73 53.89 44.59 53.84 44.46 53.9 44.35 53.96 44.29 54.05 44.27 54.16 44.28 54.26 44.33 54.31 44.34 54.36 44.33 54.38 44.28 54.37 44.23 54.33 44.18 54.29 44.15 54.25 44.12 54.11 44.06 54.06 44.03 54.02 43.98 53.95 43.9 53.85 43.84 53.55 43.78 53.41 43.81 53.37 43.79 53.33 43.75 53.33 43.7 53.35 43.66 53.4 43.64 53.4 43.64 53.4 43.64 53.4 43.64 53.55 43.55 53.52 43.41 53.44 43.23 53.44 43.06 53.48 43.02 53.53 42.99 53.57 42.95 53.57 42.89 53.53 42.84 53.46 42.81 53.33 42.79 53.22 42.72 53.13 42.61 53.03 42.53 52.9 42.53 52.78 42.57 52.54 42.58 51.98 42.76 51.84 42.78 51.77 42.77 51.64 42.67 51.57 42.65 51.43 42.66 51.35 42.63 51.3 42.57 51.22 42.29 51.19 42.23 51.14 42.17 50.94 42.02 50.86 41.99 50.8 42.01 50.72 42.06 50.65 42.09 50.57 42.11 50.44 42.1 50.24 42.05 50.03 41.91 49.33 41.31 49.26 41.28 49.22 41.37 49.24 41.69 49.2 41.81 49.09 41.86 48.95 41.87 48.8 41.86 48.49 41.79 48.42 41.8 48.37 41.82 48.24 41.93 48.15 41.99 48.1 42.04 48.09 42.1 48.11 42.17 48.17 42.2 48.54 42.31 48.65 42.37 48.75 42.49 48.85 42.65 49.1 42.94 49.23 43.06 49.27 43.08 49.29 43.11 49.28 43.14 49.25 43.17 49.08 43.22 49.03 43.22 48.99 43.17 48.99 43.12 48.99 43.05 48.99 42.98 48.94 42.86 48.86 42.77 48.75 42.72 48.46 42.63 48.4 42.63 48.35 42.65 48.26 42.71 48.22 42.72 48.17 42.7 48.09 42.62 48.05 42.58 47.99 42.57 47.93 42.58 47.87 42.6 47.83 42.63 47.8 42.67 47.78 42.72 47.73 42.81 47.66 42.86 47.62 42.9 47.65 43 47.73 43.12 47.74 43.17 47.73 43.26 47.66 43.53 47.63 43.58 47.53 43.63 47.52 43.68 47.54 43.74 47.59 43.77 47.6 43.81 47.55 43.86 47.49 43.88 47.31 43.9 47.26 43.92 47.12 44.02 46.99 44.06 46.6 44.06 46.34 44.11 46.1 44.27 45.92 44.52 45.81 44.83 45.81 44.83 45.73 45 45.63 45.1 45.39 45.26 45.33 45.38 45.35 45.52 45.46 45.8 45.47 45.94 45.47 46.06 45.49 46.17 45.55 46.3 45.63 46.38 45.68 46.48 45.7 46.58 45.72 46.71 45.75 46.8 45.8 46.9 45.87 46.98 45.94 47.04 45.98 47.06 46.03 47.07 46.17 47.09 46.19 47.1 46.19 47.13 46.17 47.17 46.11 47.22 46 47.3 45.95 47.37 45.89 47.54 45.84 47.58 45.5 47.56 45.23 47.55 44.62 47.61 44.52 47.62 43.95 47.67 43.44 47.73 42.99 47.77 42.81 47.78 42.72 47.81 42.49 47.96 42.24 48.04 42.09 48.13 41.75 48.2 41.66 48.19 41.58 48.15 41.52 48.12 41.46 48.06 41.36 47.89 41.31 47.84 41.26 47.8 41.07 47.7 40.97 47.64 40.87 47.55 40.64 47.27 40.42 46.98 40.27 46.83 39.92 46.49 39.89 46.43 39.86 46.36 39.85 46.28 39.85 46.22 39.84 46.16 39.8 46.09 39.73 46.02 39.2 45.66 38.84 45.5 38.54 45.36 38.03 45.12 37.57 44.91 37.36 44.87 37.15 44.87 36.51 45.09 36.11 45.23 35.64 45.4 35.47 45.46 34.9 45.8 34.76 45.91 34.36 46.13 33.85 46.71 33.85 46.71 33.85 46.71 33.55 47.13 33.2 47.61 33.1 47.74 33.15 47.79 33.22 47.8 33.24 47.8 33.29 47.85 33.34 47.86 33.35 47.88 33.39 47.91 33.41 47.92 33.45 47.91 33.47 47.91 33.49 47.93 33.51 47.96 33.55 48.03 33.55 48.03 33.57 48.04 33.58 48.05 33.6 48.07 33.6 48.09 33.59 48.13 33.59 48.16 33.6 48.24 33.61 48.28 33.6 48.31 33.56 48.42 33.55 48.43 33.57 48.52 33.62 48.55 33.67 48.57 33.72 48.6 33.84 48.71 33.87 48.72 33.94 48.72 33.97 48.74 34.03 48.77 34.05 48.79 34.06 48.83 34.07 48.87 34.08 48.91 34.11 48.92 34.15 48.92 34.2 48.95 34.26 49.08 34.3 49.11 34.31 49.14 34.41 49.34 34.41 49.38 34.41 49.45 34.43 49.49 34.44 49.5 34.48 49.54 34.49 49.56 34.53 49.62 34.56 49.69 34.59 49.76 34.6 49.84 34.59 49.96 34.6 49.99 34.62 50.02 34.67 50.05 34.69 50.08 34.71 50.08 34.7 50 34.74 49.88 34.75 49.81 34.72 49.75 34.53 49.47 34.5 49.41 34.45 49.19 34.4 49.04 34.35 48.96 34.34 48.92 34.34 48.89 34.35 48.78 34.36 48.7 34.47 48.21 34.46 48.13 34.45 48.08 34.43 48.02 34.42 47.98 34.42 47.94 34.45 47.86 34.45 47.81 34.41 47.76 34.34 47.74 34.2 47.74 34.16 47.78 34.1 47.9 34.07 47.92 34.05 47.87 34.05 47.77 34.05 47.68 34.07 47.64 34.1 47.6 34.14 47.52 34.35 46.77 34.39 46.66 34.63 46.4 34.69 46.31 34.77 46.2 34.88 46.13 35.04 46.19 35.26 46.17 35.31 46.15 35.45 46.04 36.27 45.77 36.39 45.81 36.51 45.76 36.65 45.78 36.79 45.84 36.89 45.91 36.93 45.97 36.95 46.03 36.98 46.11 36.99 46.17 36.99 46.21 36.97 46.3 36.98 46.34 37 46.41 37.01 46.44 37.01 46.48 37 46.51 36.99 46.55 37.01 46.59 37.04 46.6 37.07 46.6 37.1 46.61 37.12 46.63 37.15 46.7 37.31 46.9 37.38 47.01 37.42 47.13 37.46 47.26 37.51 47.57 37.55 47.71 37.6 47.83 37.67 47.94 37.71 47.99 37.76 48.03 37.82 48.05 37.92 48.06 37.95 48.08 38.02 48.16 38.06 48.21 38.08 48.23 38.14 48.26 38.28 48.31 38.39 48.4 38.44 48.43 38.7 48.49 39.31 48.83 39.42 48.92 39.45 49.03 39.51 49.05 39.59 49.05 39.67 49.06 39.73 49.11 39.72 49.1 39.7 49.12 39.7 49.14 39.7 49.17 39.7 49.18 39.72 49.2 39.75 49.23 39.77 49.26 39.83 49.29 39.86 49.32 39.73 49.26 39.66 49.23 39.59 49.23 39.6 49.26 39.63 49.27 39.74 49.4 39.82 49.48 39.86 49.52 39.88 49.58 39.88 49.64 39.86 49.7 39.78 49.89 39.76 49.92 39.66 49.99 39.62 50.09 39.58 50.1 39.49 50.15 39.19 50.26 39.08 50.25 39.12 50.18 39.15 50.11 39.13 50.06 39.05 50.03 39 50.03 38.82 49.92 38.73 49.9 38.68 49.92 38.65 49.95 38.59 50.05 38.57 50.06 38.55 50.06 38.53 50.07 38.52 50.09 38.53 50.12 38.56 50.13 38.59 50.12 38.6 50.12 38.61 50.15 38.61 50.17 38.6 50.19 38.6 50.21 38.61 50.24 38.65 50.3 38.68 50.39 38.74 50.48 38.77 50.54 38.78 50.62 38.81 50.64 38.85 50.64 39.12 50.6 39.08 50.65 38.98 50.69 38.95 50.74 39.01 50.76 39.07 50.78 38.66 50.83 38.57 50.81 38.55 50.8 38.56 50.78 38.57 50.69 38.58 50.66 38.57 50.66 38.41 50.68 38.33 50.74 38.25 50.76 38.09 50.78 38.12 50.8 38.2 50.82 38.22 50.82 38.22 50.85 38.21 50.88 38.19 50.91 38.11 50.94 38.06 50.98 38.01 51 37.94 51.01 37.86 50.98 37.83 50.97 37.8 50.99 37.7 51.07 37.66 51.13 37.62 51.18 37.46 51.18 37.34 51.23 37.24 51.24 37.18 51.16 37.18 51.13 37.21 51.05 37.21 51.02 37.19 50.98 37.17 50.98 37.14 50.97 37.11 50.96 37.06 50.9 36.99 50.77 36.95 50.71 36.97 50.68 36.98 50.66 37 50.6 36.97 50.59 36.95 50.56 36.92 50.49 36.92 50.48 36.93 50.46 36.93 50.43 36.93 50.41 36.91 50.4 36.88 50.4 36.87 50.38 36.85 50.37 36.83 50.35 36.8 50.34 36.77 50.33 36.74 50.34 36.72 50.35 36.68 50.5 36.68 50.56 36.71 50.71 36.7 50.78 36.67 50.83 36.58 50.9 36.55 50.93 36.53 50.95 36.5 50.96 36.47 50.96 36.42 50.93 36.4 50.92 36.34 50.92 36.28 50.89 36.23 50.84 36.2 50.77 36.2 50.74 36.2 50.67 36.2 50.65 36.16 50.64 36.14 50.67 36.1 50.73 36.1 50.77 36.11 50.81 36.11 50.85 36.09 50.87 35.89 50.93 35.86 50.91 35.86 50.85 35.89 50.75 35.85 50.78 35.75 50.93 35.69 50.96 35.64 50.98 35.52 50.98 35.48 50.98 35.47 50.94 35.46 50.9 35.45 50.87 35.42 50.84 35.38 50.81 35.35 50.8 35.33 50.74 35.37 50.71 35.43 50.67 35.47 50.62 35.44 50.64 35.41 50.65 35.34 50.66 35.33 50.65 35.23 50.6 35.2 50.56 35.15 50.42 35.12 50.37 34.98 50.23 34.94 50.17 34.93 50.13 34.94 50.09 34.94 50.05 34.92 50.01 34.89 49.98 34.82 49.96 34.79 49.94 34.81 50.08 34.89 50.33 34.89 50.45 34.83 50.74 34.8 51.02 34.82 51.04 34.83 51.07 34.84 51.11 34.84 51.14 34.82 51.14 34.78 51.17 34.75 51.2 34.76 51.2 34.77 51.22 34.76 51.28 34.76 51.32 34.77 51.34 34.85 51.35 34.88 51.36 34.88 51.49 34.82 51.66 34.7 51.92 34.65 52.05 34.63 52.17 34.64 52.8 34.65 52.94 34.72 53.06 34.79 53.11 34.81 53.15 34.78 53.18 34.87 53.27 34.91 53.33 34.9 53.4 34.88 53.45 34.88 53.54 34.88 53.7 34.93 53.77 35.04 53.85 35.34 54.02 35.37 54.06 35.4 54.19 35.44 54.26 35.48 54.32 35.58 54.34 35.62 54.38 35.73 54.56 35.77 54.6 35.88 54.67 35.89 54.65 35.8 54.57 35.76 54.55 35.9 54.6 35.9 54.57 35.87 54.56 35.77 54.49 35.64 54.31 35.6 54.3 35.51 54.2 35.49 54.18 35.44 53.98 35.42 53.94 35.37 53.87 35.34 53.83 35.34 53.79 35.38 53.74 35.42 53.77 35.48 53.87 35.57 53.88 35.67 53.85 35.85 53.76 35.83 53.78 35.81 53.81 35.8 53.84 35.79 53.87 35.98 53.81 36.02 53.79 36.05 53.74 36.09 53.71 36.29 53.83 36.33 53.84 36.35 53.84 36.4 53.87 36.43 53.87 36.45 53.86 36.48 53.82 36.49 53.81 36.54 53.78 36.63 53.64 36.67 53.6 36.72 53.58 36.76 53.58 36.81 53.58 36.86 53.6 36.93 53.65 36.98 53.66 37.08 53.63 37.12 53.64 37.17 53.68 37.18 53.66 37.19 53.66 37.19 53.66 37.21 53.65 37.2 53.72 37.16 53.77 37.13 53.81 37.1 53.86 37.12 53.87 37.14 53.89 37.14 53.92 37.11 53.94 37.05 53.95 37.03 53.96 37.01 53.98 37.02 53.99 37.04 54.02 37.06 54.04 36.99 54.15 36.88 54.37 36.79 54.43 36.8 54.45 36.83 54.47 36.86 54.47 36.9 54.46 36.93 54.44 36.92 54.71 36.95 54.84 37.06 54.89 37.04 54.83 36.98 54.77 36.97 54.7 36.99 54.71 37.03 54.73 37.05 54.74 37.01 54.66 37 54.65 37.08 54.65 37.16 54.71 37.28 54.85 37.3 54.85 37.29 54.8 37.25 54.68 37.29 54.7 37.33 54.73 37.35 54.77 37.37 54.8 37.38 54.87 37.39 54.89 37.52 54.85 37.56 54.86 37.6 54.89 37.63 54.94 37.64 54.98 37.62 55 37.58 55.03 37.63 55.06 37.75 55.07 37.82 55.09 37.85 55.1 37.88 55.13 37.9 55.17 37.87 55.2 37.85 55.2 37.78 55.18 37.75 55.17 37.7 55.2 37.63 55.29 37.58 55.3 37.53 55.26 37.48 55.21 37.45 55.2 37.43 55.3 37.46 55.3 37.48 55.31 37.49 55.34 37.5 55.37 37.49 55.41 37.47 55.41 37.41 55.4 37.3 55.41 37.25 55.4 37.21 55.38 37.17 55.34 37.14 55.28 37.1 55.24 37.04 55.23 36.87 55.26 36.58 55.36 36.48 55.36 36.45 55.28 36.5 55.21 36.5 55.2 36.51 55.09 36.52 55.06 36.58 54.94 36.62 54.89 36.67 54.85 36.56 54.85 36.48 54.96 36.43 55.12 36.38 55.41 36.35 55.48 36.3 55.54 36.3 55.58 36.3 55.63 36.29 55.66 36.22 55.75 36.2 55.78 36.19 55.86 36.21 55.92 36.35 56.07 36.37 56.11 36.52 56.6 36.55 56.6 36.57 56.56 36.56 56.47 36.51 56.33 36.49 56.27 36.49 56.21 36.5 56.16 36.54 56.08 36.5 56.08 36.4 56.03 36.45 55.99 36.57 55.93 36.63 55.92 36.66 55.92 36.7 55.95 36.73 55.95 36.77 55.95 36.79 55.95 36.8 55.96 36.79 55.99 36.79 56.01 36.84 56.01 36.9 55.96 36.94 55.94 36.95 55.95 36.97 55.98 36.98 55.98 36.99 55.98 37.01 55.96 37.01 55.95 37.03 55.95 37.07 55.94 37.09 55.94 37.08 56.02 37.07 56.04 37.11 56.03 37.14 56 37.17 55.97 37.18 55.93 37.2 55.92 37.21 55.99 37.23 55.99 37.28 55.94 37.4 55.91 37.42 55.89 37.45 55.91 37.48 55.84 37.51 55.82 37.53 55.85 37.51 55.93 37.56 55.9 37.58 55.89 37.58 55.94 37.55 56.07 37.61 55.98 37.59 56.19 37.59 56.3 37.62 56.38 37.64 56.34 37.66 56.22 37.67 56.2 37.7 56.21 37.72 56.26 37.72 56.32 37.71 56.36 37.77 56.36 37.8 56.41 37.81 56.48 37.83 56.54 37.87 56.59 37.95 56.66 37.99 56.71 37.91 56.33 37.86 56.31 37.9 56.25 37.97 56.18 38.02 56.14 37.98 56.31 37.99 56.38 38.08 56.38 38.01 56.44 37.99 56.47 38 56.5 38.03 56.56 38.02 56.66 38.04 56.72 38.09 56.77 38.14 56.78 38.14 56.76 38.11 56.73 38.08 56.68 38.06 56.63 38.08 56.6 38.1 56.63 38.18 56.79 38.22 56.84 38.25 56.86 38.26 56.85 38.27 56.83 38.3 56.81 38.32 56.81 38.39 56.82 38.5 56.8 38.53 56.82 38.58 56.89 38.59 56.92 38.6 56.96 38.62 56.98 38.63 57 38.64 57.01 38.68 57.01 38.69 57.02 38.7 57.03 38.72 57.05 38.72 57.06 38.82 57.08 38.86 57.11 38.88 57.18 38.9 57.17 38.89 57.22 38.87 57.3 38.85 57.35 38.83 57.41 38.83 57.48 38.82 57.55 38.78 57.59 38.83 57.69 38.8 57.82 38.7 58.04 38.68 58.17 38.67 58.31 38.69 58.59 38.7 58.67 38.78 58.87 38.8 58.94 38.81 58.98 38.83 59.01 38.86 59.05 38.87 59.08 38.92 59.33 38.94 59.48 38.92 59.59 38.95 59.68 38.92 59.96 38.92 60.13 38.9 60.25 38.9 60.31 39.11 61.29 39.28 61.73 39.31 61.88 39.34 61.94 39.41 62.07 39.46 62.2 39.56 62.63 39.57 62.63 40.32 62.57 40.37 62.56 40.42 62.53 40.46 62.48 40.51 62.44 40.57 62.42 40.63 62.42 40.69 62.41 40.78 62.37 41.2 62.03 41.26 62.01 41.43 62.02 41.49 62.01 41.53 61.98 41.59 61.9 41.64 61.87 41.67 61.83 41.78 61.73 41.84 61.66 41.85 61.63 41.85 61.58 41.88 61.48 41.88 61.43 41.87 61.35 41.86 61.33 41.84 61.31 41.81 61.28 41.79 61.27 41.78 61.2 41.81 61.08 41.81 61.01 41.81 60.95 41.84 60.89 41.91 60.79 42.27 60.44 42.38 60.28 42.4 60.24 42.4 60.19 42.43 60.17 42.47 60.16 42.5 60.14 42.51 60.11 42.53 60.05 42.55 60.02 42.6 59.99 42.76 59.94 42.79 59.92 42.8 59.86 42.86 59.82 42.97 59.76 43 59.74 43.05 59.69 43.1 59.65 43.28 59.47 43.34 59.43 43.52 59.39 44.04 59.2 44.12 59.18 44.29 59.19 44.41 59.24 44.45 59.24 44.59 59.23 44.64 59.23 44.72 59.26 44.76 59.27 44.8 59.26 45.18 59.13 45.29 59.13 45.31 59.13 45.4 59.15 45.44 59.15 45.67 59.07 45.71 59.04 45.73 58.98 45.73 58.91 45.7 58.85 45.62 58.78 45.63 58.73 45.77 58.54 45.85 58.47 45.95 58.41 46.2 58.37 46.24 58.37 46.29 58.39 46.32 58.41 46.36 58.42 46.41 58.4 46.61 58.27 46.74 58.23 46.76 58.23 46.88 58.3 46.99 58.34 47.03 58.35 47.45 58.36 47.57 58.39 47.62 58.39 47.67 58.35 47.7 58.31 47.78 58.24 47.81 58.2 47.85 58.1 47.85 58.09 47.87 58.06 47.92 58.03 47.95 58.02 47.98 58.02 48.04 58.03 48.07 58.04 48.08 58.06 48.09 58.09 48.1 58.12 48.19 58.21 48.25 58.33 48.29 58.37 48.4 58.45 48.44 58.55 48.52 58.62 48.54 58.68 48.54 58.74 48.52 58.93 48.6 59.01 49.02 59.1 49.06 59.09 49.1 59.07 49.14 59.06 49.19 59.06 49.34 59.08 49.47 59.05 49.51 59.03 49.55 59.03 49.59 59.05 49.63 59.07 49.66 59.09 49.68 59.09 49.69 59.09 49.73 59.07 49.76 59.07 49.78 59.09 49.81 59.13 49.83 59.15 49.87 59.16 49.92 59.15 49.96 59.13 50.01 59.12 50.1 59.13 50.56 59.27 50.75 59.29 50.84 59.28 50.89 59.28 50.94 59.3 50.96 59.32 50.97 59.34 50.96 59.37 50.97 59.39 51.03 59.47 51.04 59.49 51.06 59.55 51.06 59.6 51.08 59.64 51.14 59.67 51.19 59.68 51.4 59.68 51.44 59.69 51.52 59.73 51.56 59.73 51.8 59.67 51.85 59.64 51.87 59.58 51.89 59.52 51.91 59.46 51.95 59.42 52 59.41 52.05 59.43 52.21 59.53 52.33 59.56 52.4 59.56 52.46 59.54 52.48 59.52 52.49 59.5 52.51 59.48 52.54 59.48 52.6 59.48 52.63 59.47 52.66 59.46 52.68 59.41 52.68 59.35 52.69 59.33 52.87 59.39 53.09 59.41 53.21 59.44 53.25 59.46 53.29 59.47 53.37 59.47 53.4 59.48 53.5 59.56 53.91 59.76 53.97 59.76 54.11 59.66 54.18 59.67 54.24 59.72 54.3 59.78 54.32 59.82 54.33 59.9 54.35 59.94 54.36 59.96 54.35 59.99 54.34 60.03 54.34 60.07 54.36 60.14 54.45 60.37 54.49 60.41 54.68 60.52 54.74 60.57 54.76 60.59 54.76 60.61 54.75 60.62 54.75 60.63 54.75 60.66 54.74 60.69 54.76 60.71 54.8 60.72 54.82 60.73 54.85 60.74 54.87 60.75 54.9 60.75 54.98 60.7 55.02 60.7 55.07 60.74 55.1 60.8 55.12 60.86 55.15 60.91 55.19 60.93 55.22 60.92 55.23 60.9 55.26 60.84 55.28 60.83 55.31 60.83 55.72 60.89 55.92 61.01 56.03 61.06 56.26 61.06 56.37 61.09 56.47 61.19 56.61 61.39 56.76 61.56 57.11 61.86 57.18 61.95 57.29 62.14 57.36 62.23 57.46 62.27 57.89 62.19 58.27 62.13 58.85 62.02 59.17 61.97 59.45 61.92 59.59 61.92 59.7 61.92 59.74 62.03 59.78 62.08 59.79 62.11 59.8 62.15 59.8 62.19 59.8 62.23 59.79 62.27 59.78 62.29 59.77 62.33 59.78 62.37 59.81 62.42 59.79 62.7 59.8 62.87 59.85 62.96 59.85 62.97 59.84 62.98 59.84 63.01 59.87 63.02 59.89 63.03 59.91 63.05 59.93 63.06 59.95 63.1 59.95 63.13 59.97 63.21 59.98 63.24 60.03 63.3 60.11 63.5 60.13 63.6 60.14 63.62 60.13 63.64 60.11 63.68 60.1 63.71 60.1 63.74 60.1 63.77 60.1 63.8 60.1 63.84 60.08 63.86 60.05 63.88 60.04 63.9 60.04 63.94 60.06 64 60.06 64.04 60.03 64.08 59.98 64.13 59.96 64.17 60 64.19 60.07 64.19 60.13 64.21 60.18 64.24 60.23 64.29 60.27 64.33 60.3 64.39 60.33 64.44 60.36 64.56 60.38 64.61 60.39 64.66 60.38 64.74 60.4 64.76 60.41 64.79 60.4 64.88 60.41 64.89 60.42 64.95 60.41 64.98 60.38 65.02 60.37 65.04 60.39 65.13 60.44 65.2 60.52 65.29 60.56 65.27 60.7 65.22 60.72 65.22 60.74 65.23 60.77 65.25 60.77 65.25 60.75 65.3 60.79 65.32 60.8 65.32 60.8 65.32 60.85 65.35 60.86 65.36 60.85 65.4 60.85 65.42 60.88 65.44 60.9 65.46 60.92 65.47 60.95 65.47 60.97 65.47 61 65.48 61.2 65.61 61.35 65.73 61.54 65.78 61.91 65.77 62.07 65.74 62.38 65.57 62.54 65.55 62.63 65.58 62.71 65.61 63.03 65.84 63.12 65.88 63.28 65.93 63.32 65.96 63.36 66.01 63.39 66.06 63.4 66.12 63.42 66.26 63.44 66.31 63.51 66.42 63.55 66.45 63.59 66.42 63.79 66.02 63.87 65.92 63.94 65.9 64.15 66.04 64.18 66.05 64.21 66.05 64.23 66.03 64.26 66.03 64.35 66.05 64.37 66.05 64.42 66.03 64.6 65.92 64.64 65.88 64.67 65.84 64.69 65.79 64.75 65.71 64.91 65.6 64.92 65.59 65.14 65.35 65.31 65.24 65.36 65.22 65.47 65.19 65.52 65.17 65.55 65.12 65.56 65.06 65.55 64.93 65.56 64.82 65.55 64.79 65.5 64.76 65.48 64.72 65.45 64.55 65.45 64.5 65.51 64.42 65.7 64.31 65.77 64.25 65.78 64.21 65.78 64.19 65.77 64.17 65.69 64.16 65.67 64.15 65.63 64.1 65.47 64 65.44 63.96 65.42 63.9 65.39 63.86 65.36 63.82 65.36 63.76 65.4 63.71 65.45 63.69 66.05 63.61 66.28 63.52 66.48 63.38 66.52 63.34 66.57 63.24 66.6 63.2 66.65 63.16 66.7 63.14 67.03 63.07 67.14 63.02 67.37 62.83 67.45 62.8 67.49 62.78 67.53 62.77 67.61 62.77 67.89 62.83 67.88 62.79 67.83 62.63 67.82 62.58 67.84 62.52 67.86 62.47 68.02 62.3 68.11 62.24 68.21 62.21 68.33 62.21 68.37 62.22 68.41 62.22 68.43 62.19 68.45 62.05 68.48 62.01 68.52 61.97 68.56 61.94 68.76 61.87 68.84 61.82 68.92 61.73 68.97 61.65 69.13 61.29 69.16 61.17 69.17 61.04 69.16 60.9 69.14 60.83 69.09 60.71 69.06 60.64 69.05 60.57 69.05 60.5 69.06 60.36 69.09 60.25 69.3 59.67 69.37 59.47 69.39 59.35 69.36 59.22 69.26 58.97 69.26 58.83 69.29 58.74 69.36 58.66 69.81 58.32 70.01 58.22 71.16 58.01 71.2 58 71.28 57.94 71.38 57.74 71.45 57.65 71.47 57.6 71.48 57.53 71.47 57.45 71.42 57.31 71.42 57.23 71.44 57.16 71.46 57.08 71.46 57.08 71.46 57.08 71.46 57.08 71.48 57.02 71.5 56.98 71.53 56.96 71.58 56.94 71.69 56.92 71.72 56.89 71.72 56.79 71.72 56.74 71.77 56.76 71.82 56.76 71.85 56.77 71.91 56.87 71.94 56.9 71.96 56.91 72.02 56.95 72.67 57.08 72.72 57.11 72.81 57.2 72.87 57.24 72.93 57.26 72.96 57.26 73.05 57.24 73.08 57.24 73.12 57.27 73.15 57.27 73.17 57.28 73.19 57.29 73.25 57.33 73.31 57.36 73.38 57.36 73.56 57.27 73.62 57.25 73.65 57.26 73.7 57.31 73.74 57.32 73.77 57.31 73.79 57.29 73.82 57.24 73.86 57.19 73.91 57.15 73.83 57.11 73.83 57.05 73.86 56.98 73.9 56.92 73.93 56.84 73.91 56.79 73.86 56.75 73.8 56.71 73.75 56.62 73.74 56.5 73.76 56.26 73.75 56.12 73.69 55.85 73.68 55.72 73.75 55.53 73.87 55.31 73.94 55.1 73.9 55.04"/><polygon class="cls-2" points="36.47 57.74 36.39 57.45 36.31 57.18 36.3 57.04 36.37 56.97 36.37 56.95 36.36 56.94 36.34 56.92 36.28 56.94 36.24 57 36.22 57.07 36.23 57.15 36.24 57.23 36.3 57.38 36.32 57.48 36.33 57.57 36.34 57.6 36.36 57.66 36.42 57.74 36.55 58.03 36.57 58.11 36.59 58.11 36.57 58.08 36.57 58.06 36.57 58.01 36.47 57.74"/><polygon class="cls-2" points="37.17 55.17 37.22 55.28 37.24 55.3 37.27 55.3 37.31 55.26 37.34 55.22 37.35 55.17 37.28 55.1 37.27 55.08 37.25 55 37.24 55.02 37.23 55.02 37.21 55.01 37.19 54.99 37.16 55.01 37.13 55.05 37.12 55.09 37.14 55.13 37.17 55.17"/><path class="cls-1" d="M53.5,86.11l-9.45-9.45H30.69V63.3l-9.45-9.45,9.45-9.45V31H44.05l9.45-9.45L63,31H76.31V44.4l9.45,9.45L76.31,63.3V76.66H63Zm-21.31-11H44.67L53.5,84l8.83-8.82H74.81V62.67l8.83-8.82L74.81,45V32.54H62.33L53.5,23.71l-8.83,8.83H32.19V45l-8.83,8.83,8.83,8.82Z"/><path class="cls-3" d="M16.75,54c.18,1.32.29,2,.54,3.2a5.64,5.64,0,0,1,.13,1.53,2.68,2.68,0,0,1-.31,1.16,1.24,1.24,0,0,1-.71.61,1.07,1.07,0,0,1-.89-.08,2.16,2.16,0,0,1-.81-.87,4.87,4.87,0,0,1-.55-1.46c-.28-1.41-.41-2.13-.61-3.6l.21,0c0,.21,0,.32.07.54a.61.61,0,0,0,.1.29.16.16,0,0,0,.16.08l2.41-.42a.15.15,0,0,0,.13-.13.79.79,0,0,0,0-.34c0-.18,0-.27-.06-.45Zm-2.48,3.62a3.19,3.19,0,0,0,.36,1,1.29,1.29,0,0,0,.54.53,1.36,1.36,0,0,0,.84,0,1.57,1.57,0,0,0,.8-.46,1.3,1.3,0,0,0,.3-.71,4.2,4.2,0,0,0-.1-1.13,2.25,2.25,0,0,0-.13-.49.14.14,0,0,0-.16-.08l-2.4.51a.15.15,0,0,0-.14.12.69.69,0,0,0,0,.29C14.22,57.31,14.23,57.4,14.27,57.58Z"/><path class="cls-3" d="M19.11,63.36a5.23,5.23,0,0,1,.3,1.42A2.72,2.72,0,0,1,19.25,66a1.33,1.33,0,0,1-.63.74,1.28,1.28,0,0,1-1.43-.21A3.76,3.76,0,0,1,16,64.73a4.83,4.83,0,0,1-.3-1.57,2.93,2.93,0,0,1,.24-1.25,1.24,1.24,0,0,1,.72-.67,1.38,1.38,0,0,1,1.4.39A4.25,4.25,0,0,1,19.11,63.36Zm-.19.1a1.88,1.88,0,0,0-.39-.67,1.05,1.05,0,0,0-.6-.33,1.57,1.57,0,0,0-.89.13,1.78,1.78,0,0,0-.78.5,1.21,1.21,0,0,0-.24.7,2.35,2.35,0,0,0,.15.87,1.65,1.65,0,0,0,.71.92,1.33,1.33,0,0,0,1.23-.12,2,2,0,0,0,.74-.54,1.23,1.23,0,0,0,.21-.66A2.15,2.15,0,0,0,18.92,63.46Zm.74-1.15a.57.57,0,0,1,0,.36.26.26,0,0,1-.14.21.22.22,0,0,1-.24-.05.66.66,0,0,1-.2-.3.76.76,0,0,1,0-.36.31.31,0,0,1,.15-.22.23.23,0,0,1,.24.06A.58.58,0,0,1,19.66,62.31Zm.55,1.49a.66.66,0,0,1,0,.36.29.29,0,0,1-.13.22.24.24,0,0,1-.25,0,.63.63,0,0,1-.2-.29.65.65,0,0,1-.05-.36.28.28,0,0,1,.15-.22.23.23,0,0,1,.24.05A.67.67,0,0,1,20.21,63.8Z"/><path class="cls-3" d="M20.11,66.06c.35.79.53,1.17.91,1.92l-.18.11a1.51,1.51,0,0,0-.09-.18.77.77,0,0,0-.13-.21.09.09,0,0,0-.11,0,.14.14,0,0,0-.06.07c-.49.77-.73,1.16-1.19,2,.76,0,1.14,0,1.89-.09l.16-.3a.24.24,0,0,0,0-.18.85.85,0,0,0-.11-.3l-.12-.22.18-.11c.45.85.69,1.27,1.19,2.07l-.17.12-.12-.18a.79.79,0,0,0-.2-.26.11.11,0,0,0-.13,0l0,.05c-.44.8-.65,1.21-1.06,2,.75-.11,1.13-.17,1.87-.3a.35.35,0,0,0,.14-.06.28.28,0,0,0,.11-.22.56.56,0,0,0-.1-.29l-.08-.13.17-.12c.35.56.54.83.91,1.36l-.16.13a1,1,0,0,0-.32-.3.45.45,0,0,0-.32,0c-1.22.24-1.84.33-3.09.48-.1-.15-.15-.23-.24-.39.48-1,.74-1.47,1.27-2.41-1,.07-1.54.1-2.58.11l-.22-.41c.71-1.24,1.09-1.84,1.86-3a.32.32,0,0,0,.06-.18.49.49,0,0,0-.06-.22,1,1,0,0,0-.07-.15Z"/><path class="cls-3" d="M23.67,72.75l.17-.13c.59.84.9,1.24,1.54,2l-.15.14L25,74.45a.47.47,0,0,0-.2-.17.17.17,0,0,0-.16,0L22.74,76c-.07.07-.11.13-.1.19a1.21,1.21,0,0,0,.2.31l.48.59a1.24,1.24,0,0,0,.7.42,1.4,1.4,0,0,0,.95-.16l.21.23-1,.83a32.39,32.39,0,0,1-3-3.66l.17-.14.27.39a.6.6,0,0,0,.18.16.16.16,0,0,0,.16,0L24,73.46a.15.15,0,0,0,.06-.15.74.74,0,0,0-.12-.24C23.81,73,23.77,72.88,23.67,72.75Z"/><path class="cls-3" d="M26.92,76.38a30.24,30.24,0,0,0,3,2.87l-.64,1-.23-.19a1.65,1.65,0,0,0,.18-.64,1,1,0,0,0-.13-.48,1.77,1.77,0,0,0-.42-.49L28.23,78a.37.37,0,0,0-.19-.12.11.11,0,0,0-.12,0l-.77.88.17.16a1,1,0,0,0,.55.31.67.67,0,0,0,.51-.21l.22.19-1,1.22-.23-.2a.77.77,0,0,0,.16-.6,1.23,1.23,0,0,0-.39-.58L27,79l-.82.94a.14.14,0,0,0,0,.14,1,1,0,0,0,.2.26l.46.42a1.64,1.64,0,0,0,.94.48,1,1,0,0,0,.87-.32l.24.2-.84,1a32.77,32.77,0,0,1-3.44-3.24l.14-.15.33.34a.42.42,0,0,0,.2.13.16.16,0,0,0,.16,0l1.75-1.91a.14.14,0,0,0,0-.15.81.81,0,0,0-.17-.22l-.26-.28Z"/><path class="cls-3" d="M30.69,79.85a29.48,29.48,0,0,0,3.36,2.36c-.23.47-.34.7-.56,1.17l-.25-.15a2.17,2.17,0,0,0,.1-.7A1,1,0,0,0,33.2,82a1.29,1.29,0,0,0-.33-.33.48.48,0,0,0-.2-.09.13.13,0,0,0-.12.07l-1.41,2.22a.17.17,0,0,0,0,.14.32.32,0,0,0,.12.14l.48.32-.11.18c-.91-.59-1.36-.91-2.24-1.57l.13-.17.44.33a.41.41,0,0,0,.18.07.15.15,0,0,0,.13-.06l1.45-2.17a.14.14,0,0,0,0-.15.44.44,0,0,0-.15-.17c-.43-.32-.93-.25-1.5.2l-.23-.18Z"/><path class="cls-3" d="M39.62,84.93l.21.08-.38,1.32-.26-.1a2,2,0,0,0-.25-1.06,1.48,1.48,0,0,0-.67-.59,1.41,1.41,0,0,0-.66-.12,1.07,1.07,0,0,0-.62.24,2,2,0,0,0-.53.75,2.32,2.32,0,0,0-.28.94.94.94,0,0,0,.22.62,1.48,1.48,0,0,0,.57.43,1.29,1.29,0,0,0,.82.14.58.58,0,0,0,.47-.38l.11-.29a.14.14,0,0,0,0-.14.29.29,0,0,0-.16-.11l-.46-.21.08-.19c.86.38,1.29.55,2.17.87l-.07.2-.28-.1a.43.43,0,0,0-.23,0,.14.14,0,0,0-.11.09l-.43,1.18-.25-.09c-.08-.28-.11-.42-.19-.7a1.57,1.57,0,0,1-.77.16,2.45,2.45,0,0,1-.87-.23,3.14,3.14,0,0,1-1-.73,2,2,0,0,1-.51-.94,1.49,1.49,0,0,1,.15-1,1.53,1.53,0,0,1,1.18-.86,2.8,2.8,0,0,1,1.68.24,2.43,2.43,0,0,1,.55.33,2.3,2.3,0,0,1,.44.48Z"/><path class="cls-3" d="M40.92,85.52c.88.31,1.32.45,2.21.71l-.06.2-.45-.13a.25.25,0,0,0-.17,0,.22.22,0,0,0-.09.13l-.54,1.81a.69.69,0,0,0,.12.68,1.44,1.44,0,0,0,.76.44,1.87,1.87,0,0,0,.73.07.78.78,0,0,0,.44-.18.85.85,0,0,0,.27-.46l.33-1.41a.53.53,0,0,0-.07-.45.7.7,0,0,0-.4-.24l-.07,0,0-.21c.68.18,1,.26,1.71.41l0,.21-.12,0a.55.55,0,0,0-.44.06.54.54,0,0,0-.22.34L44.52,89a1,1,0,0,1-.69.7,2.47,2.47,0,0,1-1.44,0,3.58,3.58,0,0,1-1-.46,1.43,1.43,0,0,1-.53-.56.93.93,0,0,1,0-.64l.59-1.82a.23.23,0,0,0,0-.2.49.49,0,0,0-.22-.13l-.32-.11Zm2-.39a.41.41,0,0,1,.24.16.3.3,0,0,1,.06.25.24.24,0,0,1-.17.17.47.47,0,0,1-.31,0,.49.49,0,0,1-.25-.17.3.3,0,0,1-.05-.25.28.28,0,0,1,.18-.17A.39.39,0,0,1,42.92,85.13Zm1.28.36a.5.5,0,0,1,.26.16.26.26,0,0,1-.11.42.44.44,0,0,1-.3,0,.48.48,0,0,1-.26-.17.23.23,0,0,1-.06-.24.25.25,0,0,1,.17-.18A.44.44,0,0,1,44.2,85.49Z"/><path class="cls-3" d="M46,86.94c.72.15,1.09.21,1.82.32.27,1,.42,1.47.75,2.45.55-.87.81-1.31,1.31-2.19.75.07,1.13.1,1.88.14v.21l-.41,0a.31.31,0,0,0-.21,0s-.06.07-.07.14c-.06,1-.1,1.56-.16,2.61a.13.13,0,0,0,.06.14.58.58,0,0,0,.26.07l.4,0v.21c-1,0-1.52-.08-2.53-.19l0-.22.48,0a.32.32,0,0,0,.2,0,.17.17,0,0,0,.08-.13c.1-1.12.15-1.68.24-2.79-.69,1.22-1.06,1.83-1.85,3l-.29,0c-.46-1.37-.66-2.06-1-3.43l-.42,2.46a.4.4,0,0,0,.13.38,1.14,1.14,0,0,0,.54.26l0,.21c-.73-.11-1.1-.18-1.82-.33l0-.21A.9.9,0,0,0,46,90a.44.44,0,0,0,.26-.33l.39-2.18a.29.29,0,0,0,0-.2.57.57,0,0,0-.24-.09L46,87.15Z"/><path class="cls-3" d="M52.38,87.68c.95,0,1.43,0,2.39,0a3.75,3.75,0,0,1,.95.07,1.26,1.26,0,0,1,.57.27.61.61,0,0,1,.21.42.69.69,0,0,1-.42.64,2.87,2.87,0,0,1-1.09.28,1.82,1.82,0,0,1,.58.12,1.1,1.1,0,0,1,.38.27,2.16,2.16,0,0,1,.37.57.68.68,0,0,0,.17.27.16.16,0,0,0,.14,0c.15,0,.23-.15.23-.42l.29,0a.79.79,0,0,1-.22.64,1.08,1.08,0,0,1-.68.24,1.35,1.35,0,0,1-.52-.06.68.68,0,0,1-.3-.25,2.76,2.76,0,0,1-.19-.46,2,2,0,0,0-.24-.57.51.51,0,0,0-.25-.21.86.86,0,0,0-.38-.07H54v1.26a.17.17,0,0,0,.07.13.6.6,0,0,0,.24.05h.45v.21c-1,0-1.51,0-2.52,0v-.22l.39,0a.49.49,0,0,0,.23-.05A.22.22,0,0,0,53,90.7c0-1,0-1.55,0-2.58A.17.17,0,0,0,53,88a.31.31,0,0,0-.19,0h-.39ZM54,89.25h.4a1.39,1.39,0,0,0,.83-.22.56.56,0,0,0,.21-.52.56.56,0,0,0-.24-.47,1.52,1.52,0,0,0-.77-.12.87.87,0,0,0-.37,0s-.07.1-.07.21Z"/><path class="cls-3" d="M57.36,87.51c.92-.09,1.38-.15,2.29-.29l0,.21-.46.07a.21.21,0,0,0-.15.07.2.2,0,0,0,0,.16l.26,1.87a.71.71,0,0,0,.39.57,1.42,1.42,0,0,0,.87.08,2.1,2.1,0,0,0,.69-.25.88.88,0,0,0,.33-.36.82.82,0,0,0,0-.52l-.28-1.43a.51.51,0,0,0-.25-.37.69.69,0,0,0-.46-.06l-.07,0,0-.21c.69-.13,1-.2,1.71-.36l.05.21-.12,0a.57.57,0,0,0-.37.25.51.51,0,0,0-.07.4L62,89.13a1,1,0,0,1-.33.93,2.49,2.49,0,0,1-1.33.57,3.63,3.63,0,0,1-1.13,0,1.34,1.34,0,0,1-.71-.29.86.86,0,0,1-.27-.57l-.21-1.91c0-.09,0-.15-.09-.17a.43.43,0,0,0-.25,0l-.34,0ZM59,86.31a.44.44,0,0,1,.3,0,.24.24,0,0,1,.15.19.29.29,0,0,1-.09.24.49.49,0,0,1-.27.13.44.44,0,0,1-.3,0,.28.28,0,0,1-.14-.2.26.26,0,0,1,.09-.23A.43.43,0,0,1,59,86.31Zm1.31-.22a.42.42,0,0,1,.3,0,.24.24,0,0,1,.16.19.26.26,0,0,1-.08.24.5.5,0,0,1-.27.14.44.44,0,0,1-.3,0,.24.24,0,0,1-.15-.19.25.25,0,0,1,.08-.24A.44.44,0,0,1,60.31,86.09Z"/><path class="cls-3" d="M62.66,86.6c.88-.21,1.32-.33,2.19-.61l.06.21-.35.11a.49.49,0,0,0-.23.11.16.16,0,0,0,0,.15l.4,1.45c.48-.68.7-1,1.12-1.71a.3.3,0,0,0,.06-.24.12.12,0,0,0-.11-.09.73.73,0,0,0-.31,0l-.12,0-.06-.21c.72-.23,1.08-.36,1.78-.63l.08.2-.11,0a1.27,1.27,0,0,0-.42.25,3.09,3.09,0,0,0-.48.61c-.16.27-.24.41-.41.67.74.5,1.13.73,1.91,1.19a.48.48,0,0,0,.26.07.88.88,0,0,0,.33-.06l.19-.07.07.2c-.92.36-1.38.53-2.31.83L66.11,89l.24-.08a.7.7,0,0,0,.26-.12s.07-.08.06-.11a.12.12,0,0,0,0,0c-.55-.34-.82-.51-1.36-.87-.17.26-.26.4-.45.66l.21.72a.14.14,0,0,0,.1.11.32.32,0,0,0,.19,0l.43-.13.07.2c-.94.3-1.41.43-2.36.66l-.05-.21.34-.09a.35.35,0,0,0,.21-.1.12.12,0,0,0,0-.15l-.65-2.56a.12.12,0,0,0-.09-.1.42.42,0,0,0-.22,0l-.32.08Z"/><path class="cls-3" d="M72.62,82.43l.2-.11c.3.45.46.67.77,1.12l-.25.15a1.77,1.77,0,0,0-1-.46,1.46,1.46,0,0,0-.87.18,1.48,1.48,0,0,0-.51.45,1.16,1.16,0,0,0-.2.65,2.09,2.09,0,0,0,.24.9,2.19,2.19,0,0,0,.54.8.92.92,0,0,0,.61.22,1.49,1.49,0,0,0,.68-.19,1.44,1.44,0,0,0,.63-.58.66.66,0,0,0,0-.61l-.15-.28a.16.16,0,0,0-.12-.08.38.38,0,0,0-.18.06l-.45.25-.09-.18c.82-.46,1.23-.7,2-1.21l.11.18-.25.16a.48.48,0,0,0-.18.16.14.14,0,0,0,0,.14l.62,1.09-.23.14L74,85.1a1.77,1.77,0,0,1-.37.72,2.35,2.35,0,0,1-.72.55,3,3,0,0,1-1.2.38,2,2,0,0,1-1-.17,1.47,1.47,0,0,1-.64-.72,1.65,1.65,0,0,1,.08-1.48,2.85,2.85,0,0,1,1.24-1.21,2.62,2.62,0,0,1,.59-.24,2.53,2.53,0,0,1,.64-.06C72.59,82.7,72.6,82.61,72.62,82.43Z"/><path class="cls-3" d="M73.89,81.74c.79-.51,1.18-.79,1.93-1.36l.13.18-.39.29a.2.2,0,0,0-.1.13.16.16,0,0,0,0,.16l1.05,1.56a.64.64,0,0,0,.59.32,1.47,1.47,0,0,0,.82-.35,2.24,2.24,0,0,0,.51-.56.82.82,0,0,0,.14-.48.83.83,0,0,0-.18-.5L77.55,80a.47.47,0,0,0-.38-.22.7.7,0,0,0-.44.18l-.06,0-.12-.18c.56-.44.84-.68,1.38-1.16l.14.17-.1.08a.62.62,0,0,0-.23.4.52.52,0,0,0,.11.4l1,1.23a1,1,0,0,1,.11,1,2.84,2.84,0,0,1-1,1.16,3.65,3.65,0,0,1-1,.56,1.39,1.39,0,0,1-.77.09.83.83,0,0,1-.49-.39l-1-1.61q-.08-.12-.15-.12a.45.45,0,0,0-.24.1l-.29.19Z"/><path class="cls-3" d="M78.39,78.54l-.13-.17c.72-.65,1.08-1,1.76-1.71l.15.15-.29.3a.47.47,0,0,0-.15.22.19.19,0,0,0,0,.16l1.68,1.87q.11.11.18.09c.06,0,.15-.09.28-.22l.52-.54a1.34,1.34,0,0,0,.35-.76,1.62,1.62,0,0,0-.21-1,2.41,2.41,0,0,1,.21-.24c.34.39.5.59.84,1A30.45,30.45,0,0,1,80.4,81l-.13-.16.33-.31a.44.44,0,0,0,.14-.19.18.18,0,0,0,0-.16l-1.68-2a.15.15,0,0,0-.14,0,.57.57,0,0,0-.21.14Z"/><path class="cls-3" d="M81.76,75l-.15-.14c.64-.78,1-1.17,1.56-2l.16.13-.26.35a.66.66,0,0,0-.12.24.19.19,0,0,0,.08.16l1.88,1.62c.08.07.14.09.19.07s.14-.11.25-.26.28-.38.46-.63a1.39,1.39,0,0,0,.26-.83,1.69,1.69,0,0,0-.32-1l.17-.27,1,.87a34.34,34.34,0,0,1-2.83,3.82l-.16-.14.3-.36a.41.41,0,0,0,.11-.22.17.17,0,0,0,0-.15l-1.9-1.73a.14.14,0,0,0-.15,0,.65.65,0,0,0-.19.17Z"/><path class="cls-3" d="M84.5,70.93c.55-.86.81-1.31,1.3-2.23l.18.11-.26.47a.3.3,0,0,0,0,.18.17.17,0,0,0,.09.13l1.53,1a.59.59,0,0,0,.67,0,1.7,1.7,0,0,0,.63-.74,2.77,2.77,0,0,0,.28-.79,1,1,0,0,0,0-.54.7.7,0,0,0-.35-.39l-1.22-.7a.44.44,0,0,0-.43,0,.85.85,0,0,0-.35.39l0,.07-.18-.1c.36-.72.53-1.08.86-1.83l.19.1-.06.13a.73.73,0,0,0-.07.51.5.5,0,0,0,.25.33l1.33.73a1,1,0,0,1,.46.93,3.33,3.33,0,0,1-.46,1.59,4.4,4.4,0,0,1-.73,1,1.46,1.46,0,0,1-.68.44.7.7,0,0,1-.59-.14l-1.53-1.07c-.07,0-.14-.07-.19,0a.51.51,0,0,0-.18.2l-.2.32Z"/><path class="cls-3" d="M88.8,61.23c0-.11,0-.16.08-.26l1.27.3-.1.33A1.79,1.79,0,0,0,89,62a2.07,2.07,0,0,0-.57.88,2.2,2.2,0,0,0-.12.79,1.26,1.26,0,0,0,.24.7,1.77,1.77,0,0,0,.72.56,2,2,0,0,0,.91.23,1,1,0,0,0,.6-.32,1.92,1.92,0,0,0,.41-.72,2.11,2.11,0,0,0,.14-1,.62.62,0,0,0-.37-.52l-.28-.1a.12.12,0,0,0-.14,0,.46.46,0,0,0-.11.2c-.07.23-.11.35-.19.58l-.19-.08c.36-1.06.53-1.61.83-2.73l.19.06c0,.15,0,.22-.09.36a.64.64,0,0,0,0,.28q0,.11.09.12l1.14.4c0,.12,0,.18-.09.31l-.67.31a2,2,0,0,1,.15.91,3.46,3.46,0,0,1-.22,1.06,4.12,4.12,0,0,1-.7,1.3,2.11,2.11,0,0,1-.9.68,1.23,1.23,0,0,1-.94-.08A1.63,1.63,0,0,1,88,64.94a4.1,4.1,0,0,1,.23-2,3.73,3.73,0,0,1,.31-.69,3.38,3.38,0,0,1,.46-.59C88.94,61.48,88.89,61.4,88.8,61.23Z"/><path class="cls-3" d="M89.29,59.83c.29-1.1.42-1.66.65-2.82l.2.05-.08.4a.92.92,0,0,0,0,.3c0,.06,0,.09,0,.1a.16.16,0,0,0,.14,0c.56-.37.84-.56,1.39-1-.3-.44-.46-.66-.77-1.08a.32.32,0,0,0-.19-.15c-.07,0-.14,0-.2.11a1.15,1.15,0,0,0-.13.41c0,.07,0,.11,0,.18l-.2,0c.17-.91.24-1.37.37-2.32l.2,0a2.47,2.47,0,0,0,0,.67,1.09,1.09,0,0,0,.19.47c.43.58.64.87,1.06,1.48l1,.21a.14.14,0,0,0,.15-.07.65.65,0,0,0,.09-.29l.12-.67.2,0c-.23,1.42-.37,2.12-.68,3.47l-.2-.06c.06-.25.09-.38.14-.63a1,1,0,0,0,0-.32.18.18,0,0,0-.12-.12L91.75,58c-.72.51-1.08.75-1.81,1.19a.73.73,0,0,0-.27.25,1.64,1.64,0,0,0-.16.39l0,.12Z"/><path id="crescent" class="cls-3" d="M57.14,94.77a7,7,0,1,1-7.3,11.77,6.91,6.91,0,0,0,2.45.56,7,7,0,0,0,4.85-12.33Z"/><polygon class="cls-3" points="50.76 98.98 51.74 98.98 50.95 98.41 51.25 97.47 50.46 98.05 49.66 97.47 49.97 98.41 49.17 98.98 50.16 98.98 50.46 99.92 50.76 98.98"/><polygon class="cls-3" points="50.76 95.38 51.74 95.38 50.95 94.8 51.25 93.87 50.46 94.45 49.66 93.87 49.97 94.8 49.17 95.38 50.16 95.38 50.46 96.31 50.76 95.38"/><polygon class="cls-3" points="54.32 97.22 55.3 97.22 54.51 96.65 54.81 95.72 54.02 96.29 53.23 95.72 53.53 96.65 52.73 97.22 53.72 97.22 54.02 98.16 54.32 97.22"/><polygon class="cls-3" points="47.2 100.74 48.18 100.74 47.39 100.16 47.69 99.23 46.9 99.81 46.1 99.23 46.41 100.16 45.61 100.74 46.59 100.74 46.9 101.67 47.2 100.74"/><polygon class="cls-3" points="50.76 102.59 51.74 102.59 50.95 102.01 51.25 101.08 50.46 101.65 49.66 101.08 49.97 102.01 49.17 102.59 50.16 102.59 50.46 103.52 50.76 102.59"/></g></g></svg>